<svg width="500" height="172" viewBox="0 0 500 172" fill="none" xmlns="http://www.w3.org/2000/svg">
<rect width="500" height="172"/>
<g clip-path="url(#clip0)">
<path d="M166.112 128.179H126.846V140.18H154.093L154.122 140.803C150.453 151.256 142.04 157.273 128.768 157.273C113.431 157.273 101.868 145.005 101.868 129.484C101.868 113.348 113.909 100.612 129.873 100.612C142.111 100.612 150.813 106.608 155.776 117.337L167.038 112.152C160.077 97.0994 146.881 88.8161 129.873 88.8161C107.217 88.8161 89.472 106.687 89.472 129.501C89.472 151.708 106.731 169.102 128.768 169.102C140.268 169.102 148.95 164.469 155.223 157.24L156.354 166.276H166.112V129.317L166.175 128.945H166.112V128.179Z" fill="#E1251B"/>
<path d="M166.112 63.2513H104.013V43.461H158.959V31.9873H104.013V12.2012H166.112V0.40976H91.3608V75.0427H166.112V63.2513Z" fill="#E1251B"/>
<path d="M61.9946 31.2514H12.6519V0.40976H0V75.0427H12.6519V43.1474H61.9946V75.0427H74.7512V0.40976H61.9946V31.2514Z" fill="#E1251B"/>
<path d="M43.7016 154.363V103.522H74.7512V91.626H0V103.522H31.0497V154.363H0V166.259H74.7512V154.363H43.7016Z" fill="#E1251B"/>
<path d="M198.213 0.418121H203.276L195.47 21.743H190.553L182.721 0.418121H187.969L193.12 15.4292L198.213 0.418121Z" fill="#E1251B"/>
<path d="M207.217 21.743V0.418121H214.961C221.381 0.418121 225.686 4.51167 225.686 11.1015C225.686 17.6913 221.381 21.743 214.931 21.743H207.217ZM214.755 17.2606C218.043 17.2606 220.727 15.3623 220.727 11.0931C220.727 6.82396 218.035 4.89217 214.747 4.89217H211.979V17.2606H214.755Z" fill="#E1251B"/>
<path d="M258.306 0.40976H256.639V166.259H258.306V0.40976Z" fill="#E1251B"/>
<path d="M274.12 21.789V0.464142H278.94V21.789H274.12Z" fill="#E1251B"/>
<path d="M299.65 21.789L299.348 19.6231C298.414 20.9779 296.417 22.2406 293.351 22.2406C287.412 22.2406 282.529 17.8795 282.529 11.1349C282.529 4.39042 287.622 0 293.653 0C299.771 0 302.602 3.61269 303.54 6.58981L298.955 8.18709C298.624 6.8616 297.208 4.45314 293.653 4.45314C290.759 4.45314 287.371 6.38075 287.371 11.1433C287.371 15.5964 290.327 17.9171 293.791 17.9171C297.321 17.9171 298.795 15.6299 299.068 14.4257H292.627V10.3823H303.515V21.789H299.65Z" fill="#E1251B"/>
<path d="M316.653 5.01764V21.789H311.887V5.01764H305.304V0.451599H323.241V5.01764H316.653Z" fill="#E1251B"/>
<path d="M274.568 130.157V108.832H277.583V130.157H274.568Z" fill="#E1251B"/>
<path d="M285.574 130.157H282.739V115.681H285.511V117.772C285.956 116.989 286.607 116.342 287.393 115.9C288.178 115.458 289.07 115.238 289.971 115.263C293.439 115.263 295.16 117.772 295.16 120.983V130.161H292.321V121.464C292.321 119.449 291.483 117.822 288.945 117.822C286.713 117.822 285.57 119.599 285.57 121.794L285.574 130.157Z" fill="#E1251B"/>
<path d="M301.007 125.495C301.187 126.996 302.334 128.2 304.382 128.2C305.978 128.2 306.853 127.297 306.853 126.277C306.853 125.374 306.192 124.68 304.985 124.408L302.515 123.868C300.253 123.388 298.896 121.853 298.896 119.804C298.896 117.337 301.216 115.23 304.052 115.23C308.03 115.23 309.266 117.818 309.567 119.114L307.054 120.047C306.933 119.294 306.33 117.638 304.039 117.638C302.59 117.638 301.627 118.571 301.627 119.566C301.627 120.436 302.167 121.067 303.302 121.309L305.651 121.82C308.273 122.392 309.663 123.99 309.663 126.126C309.663 128.171 307.942 130.609 304.357 130.609C300.379 130.609 298.691 128.05 298.448 126.394L301.007 125.495Z" fill="#E1251B"/>
<path d="M317.252 115.681H320.38V118.24H317.244V125.767C317.244 127.092 317.788 127.753 319.266 127.753C319.641 127.749 320.014 127.71 320.38 127.636V130.04C319.755 130.233 319.104 130.325 318.45 130.312C315.979 130.312 314.413 128.807 314.413 126.189V118.245H311.64V115.686H312.423C313.99 115.686 314.651 114.724 314.651 113.457V111.111H317.244L317.252 115.681Z" fill="#E1251B"/>
<path d="M325.151 108.159C325.553 108.156 325.948 108.272 326.284 108.493C326.621 108.713 326.885 109.029 327.042 109.399C327.199 109.769 327.242 110.178 327.166 110.573C327.091 110.968 326.899 111.331 326.617 111.618C326.334 111.904 325.973 112.1 325.578 112.181C325.184 112.263 324.774 112.225 324.401 112.074C324.028 111.922 323.708 111.664 323.482 111.331C323.256 110.998 323.134 110.606 323.132 110.204C323.13 109.937 323.18 109.673 323.28 109.425C323.381 109.178 323.529 108.953 323.716 108.763C323.904 108.573 324.127 108.422 324.373 108.319C324.619 108.215 324.883 108.161 325.151 108.159ZM323.764 130.157V115.681H326.566V130.157H323.764Z" fill="#E1251B"/>
<path d="M335.097 115.681H338.234V118.24H335.097V125.767C335.097 127.092 335.641 127.753 337.12 127.753C337.494 127.749 337.867 127.71 338.234 127.636V130.04C337.609 130.232 336.957 130.324 336.303 130.312C333.832 130.312 332.266 128.807 332.266 126.189V118.245H329.489V115.686H330.277C331.843 115.686 332.505 114.724 332.505 113.457V111.111H335.097V115.681Z" fill="#E1251B"/>
<path d="M346.882 130.609C343.506 130.609 341.458 128.1 341.458 124.801V115.681H344.29V124.379C344.29 126.365 345.194 128.113 347.577 128.113C349.868 128.113 351.015 126.607 351.015 124.408V115.681H353.846V127.481C353.848 128.375 353.899 129.269 353.997 130.157H351.283C351.206 129.579 351.166 128.997 351.166 128.414C350.379 129.919 348.574 130.609 346.882 130.609Z" fill="#E1251B"/>
<path d="M362.407 115.681H365.544V118.24H362.407V125.767C362.407 127.092 362.951 127.753 364.425 127.753C364.801 127.749 365.176 127.71 365.544 127.636V130.04C364.919 130.232 364.267 130.324 363.613 130.312C361.142 130.312 359.576 128.807 359.576 126.189V118.245H356.816V115.686H357.603C359.17 115.686 359.831 114.724 359.831 113.457V111.111H362.424L362.407 115.681Z" fill="#E1251B"/>
<path d="M386.944 127.949C386.517 128.76 385.869 129.434 385.074 129.892C384.28 130.35 383.371 130.574 382.454 130.538C378.204 130.538 375.582 127.168 375.582 122.861C375.582 118.767 378.354 115.276 382.454 115.276C385.013 115.276 386.404 116.53 386.885 117.713V108.368H389.687V127.481C389.685 128.375 389.736 129.269 389.838 130.157H387.095C386.992 129.51 386.942 128.856 386.944 128.2V127.949ZM382.723 128.037C385.315 128.037 386.91 125.783 386.91 122.802C386.91 119.821 385.344 117.785 382.752 117.785C380.159 117.785 378.472 119.875 378.472 122.869C378.472 125.863 380.013 128.05 382.723 128.05V128.037Z" fill="#E1251B"/>
<path d="M407.143 126.034C406.326 128.593 404.006 130.609 400.63 130.609C396.74 130.609 393.335 127.782 393.335 122.873C393.335 118.328 396.623 115.23 400.266 115.23C404.73 115.23 407.231 118.299 407.231 122.815C407.232 123.117 407.212 123.419 407.172 123.718H396.258C396.321 126.306 398.189 128.113 400.63 128.113C402.98 128.113 404.157 126.816 404.701 125.186L407.143 126.034ZM404.278 121.435C404.215 119.344 402.858 117.73 400.3 117.73C399.289 117.717 398.313 118.096 397.576 118.787C396.84 119.478 396.4 120.427 396.35 121.435H404.278Z" fill="#E1251B"/>
<path d="M290.667 166.28L290.394 163.269C289.461 164.942 287.14 166.732 283.551 166.732C278.187 166.732 273.182 162.818 273.182 155.597C273.182 148.375 278.488 144.491 283.765 144.491C288.405 144.491 291.994 147.079 293.23 150.93L290.545 152.076C289.582 149.007 287.082 147.2 283.765 147.2C279.937 147.2 276.197 149.939 276.197 155.597C276.197 161.254 279.816 164.055 283.643 164.055C288.405 164.055 290.126 160.681 290.244 158.486H282.831V155.839H293.05V166.292L290.667 166.28Z" fill="#E1251B"/>
<path d="M310.112 162.157C309.274 164.716 306.975 166.732 303.599 166.732C299.709 166.732 296.304 163.905 296.304 158.996C296.304 154.451 299.591 151.352 303.235 151.352C307.699 151.352 310.199 154.422 310.199 158.937C310.201 159.24 310.181 159.541 310.141 159.841H299.227C299.29 162.429 301.158 164.235 303.599 164.235C305.949 164.235 307.125 162.939 307.67 161.308L310.112 162.157ZM307.247 157.558C307.184 155.467 305.827 153.853 303.268 153.853C302.258 153.84 301.281 154.219 300.545 154.91C299.808 155.6 299.369 156.55 299.319 157.558H307.247ZM304.382 149.943H301.999L304.625 145.549H308.181L304.382 149.943Z" fill="#E1251B"/>
<path d="M316.611 166.28H313.776V151.804H316.553V153.895C316.998 153.112 317.648 152.464 318.434 152.022C319.22 151.58 320.111 151.36 321.013 151.386C324.48 151.386 326.197 153.895 326.197 157.106V166.284H323.362V157.587C323.362 155.571 322.525 153.945 319.987 153.945C317.759 153.945 316.611 155.722 316.611 157.917V166.28Z" fill="#E1251B"/>
<path d="M331.994 144.282C332.396 144.279 332.791 144.395 333.128 144.615C333.464 144.836 333.728 145.151 333.885 145.522C334.042 145.892 334.085 146.301 334.01 146.695C333.934 147.09 333.743 147.454 333.46 147.74C333.177 148.027 332.816 148.223 332.421 148.304C332.027 148.385 331.617 148.348 331.244 148.197C330.871 148.045 330.551 147.787 330.325 147.454C330.1 147.121 329.978 146.729 329.975 146.326C329.972 145.788 330.182 145.271 330.561 144.887C330.939 144.504 331.455 144.286 331.994 144.282V144.282ZM330.608 166.28V151.804H333.409V166.28H330.608Z" fill="#E1251B"/>
<path d="M350.835 162.157C349.998 164.716 347.699 166.731 344.323 166.731C340.432 166.731 337.028 163.905 337.028 158.996C337.028 154.451 340.315 151.352 343.963 151.352C348.423 151.352 350.923 154.422 350.923 158.937C350.925 159.239 350.905 159.541 350.865 159.841H339.951C340.014 162.429 341.881 164.235 344.323 164.235C346.672 164.235 347.849 162.939 348.394 161.308L350.835 162.157ZM347.971 157.558C347.908 155.467 346.555 153.853 343.992 153.853C342.986 153.845 342.015 154.226 341.283 154.915C340.552 155.605 340.115 156.55 340.064 157.553L347.971 157.558Z" fill="#E1251B"/>
<path d="M365.456 151.804H368.588V154.363H365.456V161.889C365.456 163.215 365.996 163.876 367.474 163.876C367.848 163.872 368.221 163.833 368.588 163.759V166.163C367.963 166.355 367.311 166.447 366.658 166.435C364.187 166.435 362.62 164.929 362.62 162.312V154.367H359.848V151.808H360.631C362.197 151.808 362.859 150.847 362.859 149.58V147.234H365.456V151.804Z" fill="#E1251B"/>
<path d="M374.799 166.28H371.964V144.491H374.799V153.489C375.855 151.955 377.542 151.398 379.201 151.398C382.664 151.398 384.385 153.907 384.385 157.119V166.297H381.55V157.599C381.55 155.584 380.713 153.957 378.175 153.957C376.005 153.957 374.858 155.63 374.799 157.779V166.28Z" fill="#E1251B"/>
<path d="M401.656 162.157C400.844 164.716 398.52 166.731 395.144 166.731C391.258 166.731 387.849 163.905 387.849 158.996C387.849 154.451 391.136 151.352 394.784 151.352C399.244 151.352 401.744 154.422 401.744 158.937C401.746 159.239 401.726 159.541 401.686 159.841H390.772C390.835 162.429 392.703 164.235 395.144 164.235C397.498 164.235 398.67 162.939 399.215 161.308L401.656 162.157ZM398.792 157.558C398.733 155.467 397.376 153.853 394.813 153.853C393.803 153.84 392.826 154.219 392.09 154.91C391.353 155.6 390.914 156.55 390.864 157.558H398.792Z" fill="#E1251B"/>
<path d="M413.353 154.664C412.937 154.603 412.517 154.572 412.097 154.572C409.718 154.572 408.118 155.826 408.118 159.029V166.28H405.287V151.804H408.06V154.334C408.417 153.487 409.022 152.769 409.797 152.274C410.572 151.779 411.479 151.53 412.398 151.562C412.713 151.565 413.027 151.596 413.337 151.654L413.353 154.664Z" fill="#E1251B"/>
<path d="M416.243 166.28V151.804H418.957V153.732C419.862 152.134 421.671 151.382 423.359 151.382C424.275 151.346 425.18 151.589 425.956 152.078C426.731 152.567 427.34 153.279 427.701 154.121C428.845 152.03 430.713 151.382 432.551 151.382C435.085 151.382 437.577 153.1 437.577 156.889V166.28H434.775V157.19C434.775 155.295 433.841 153.882 431.701 153.882C429.712 153.882 428.351 155.446 428.351 157.524V166.28H425.499V157.19C425.499 155.325 424.594 153.882 422.425 153.882C420.406 153.882 419.049 155.387 419.049 157.553V166.28H416.243Z" fill="#E1251B"/>
<path d="M443.373 144.282C443.776 144.279 444.17 144.395 444.507 144.615C444.843 144.836 445.107 145.151 445.264 145.522C445.421 145.892 445.464 146.301 445.389 146.695C445.313 147.09 445.122 147.454 444.839 147.74C444.556 148.027 444.195 148.223 443.801 148.304C443.406 148.385 442.996 148.348 442.623 148.197C442.25 148.045 441.931 147.787 441.705 147.454C441.479 147.121 441.357 146.729 441.354 146.326C441.351 145.788 441.562 145.271 441.94 144.887C442.318 144.504 442.834 144.286 443.373 144.282V144.282ZM441.987 166.28V151.804H444.793V166.28H441.987Z" fill="#E1251B"/>
<path d="M459.84 172V164.235C459.086 165.707 457.461 166.673 455.321 166.673C451.158 166.673 448.449 163.211 448.449 158.996C448.449 154.902 451.008 151.444 455.258 151.444C457.771 151.444 459.3 152.736 459.903 154.033V151.804H462.646V172H459.84ZM455.589 164.173C458.152 164.173 459.873 161.977 459.873 158.996C459.873 156.015 458.152 153.941 455.589 153.941C453.026 153.941 451.343 156.031 451.343 158.996C451.343 161.961 452.988 164.173 455.581 164.173H455.589Z" fill="#E1251B"/>
<path d="M472.492 166.731C469.116 166.731 467.048 164.223 467.048 160.924V151.804H469.891V160.501C469.891 162.487 470.796 164.235 473.179 164.235C475.47 164.235 476.613 162.73 476.613 160.531V151.804H479.448V163.604C479.45 164.498 479.5 165.391 479.599 166.28H476.885C476.806 165.702 476.765 165.12 476.764 164.536C475.989 166.042 474.18 166.731 472.492 166.731Z" fill="#E1251B"/>
<path d="M496.908 162.157C496.095 164.716 493.775 166.731 490.4 166.731C486.509 166.731 483.104 163.905 483.104 158.996C483.104 154.451 486.388 151.352 490.035 151.352C494.5 151.352 497 154.422 497 158.937C497.001 159.239 496.982 159.541 496.941 159.841H486.027C486.086 162.429 487.958 164.235 490.4 164.235C492.749 164.235 493.926 162.939 494.466 161.308L496.908 162.157ZM494.047 157.558C493.985 155.467 492.628 153.853 490.069 153.853C489.058 153.839 488.081 154.217 487.344 154.908C486.607 155.599 486.168 156.549 486.12 157.558H494.047Z" fill="#E1251B"/>
</g>
<defs>
<clipPath id="clip0">
<rect width="497" height="172" fill="white"/>
</clipPath>
</defs>
</svg>
