<svg width="439" height="172" viewBox="0 0 439 172" fill="none" xmlns="http://www.w3.org/2000/svg">
<rect width="439" height="172"/>
<path d="M165.847 127.768H126.643V139.768H153.846L153.876 140.395C150.213 150.848 141.813 156.861 128.562 156.861C113.25 156.861 101.706 144.593 101.706 129.072C101.706 112.937 113.727 100.2 129.666 100.2C141.884 100.2 150.572 106.196 155.527 116.926L166.771 111.741C159.821 96.6882 146.646 88.405 129.666 88.405C107.045 88.405 89.3291 106.276 89.3291 129.089C89.3291 151.296 106.56 168.69 128.562 168.69C140.044 168.69 148.712 164.057 154.975 156.828L156.104 165.863H165.847V128.905L165.909 128.533H165.847V127.768Z" fill="#E1251B"/>
<path d="M165.847 62.8406H103.847V43.0506H158.705V31.5771H103.847V11.7912H165.847V0H91.2148V74.6319H165.847V62.8406Z" fill="#E1251B"/>
<path d="M61.8956 30.8412H12.6317V0H0V74.6319H12.6317V42.737H61.8956V74.6319H74.6319V0H61.8956V30.8412Z" fill="#E1251B"/>
<path d="M43.6318 153.951V103.111H74.6319V91.2148H0V103.111H31.0001V153.951H0V165.847H74.6319V153.951H43.6318Z" fill="#E1251B"/>
<path d="M197.896 0H202.952L195.158 21.3246H190.249L182.43 0H187.669L192.812 15.0108L197.896 0Z" fill="#E1251B"/>
<path d="M206.886 21.3246V0H214.617C221.027 0 225.326 4.09348 225.326 10.6832C225.326 17.2729 221.027 21.3246 214.588 21.3246H206.886ZM214.412 16.8422C217.695 16.8422 220.375 14.9439 220.375 10.6748C220.375 6.40574 217.695 4.47398 214.412 4.47398H211.649V16.8506L214.412 16.8422Z" fill="#E1251B"/>
<path d="M257.894 0H256.229V165.847H257.894V0Z" fill="#E1251B"/>
<path d="M293.184 21.3789V7.23363L287.614 21.3789H283.763L278.194 7.41761V21.3789H273.678V0.0418091H279.879L285.733 14.4589L291.315 0.0418091H297.846V21.3664L293.184 21.3789Z" fill="#E1251B"/>
<path d="M302.663 21.3789V0.0418091H316.177V4.52833H307.417V8.58837H315.361V12.7697H307.417V16.8631H316.198V21.3789H302.663Z" fill="#E1251B"/>
<path d="M320.149 21.3789V0.0418091H324.961V21.3664L320.149 21.3789Z" fill="#E1251B"/>
<path d="M294.267 93.6233V77.011L286.983 93.6233H284.273L277.052 77.011V93.6233H274.125V72.2987H278.131L285.657 89.6636L293.242 72.2987H297.185V93.6233H294.267Z" fill="#E1251B"/>
<path d="M314.822 89.5005C314.015 92.0595 311.69 94.079 308.32 94.079C304.44 94.079 301.036 91.2525 301.036 86.3437C301.036 81.8028 304.319 78.7003 307.96 78.7003C312.414 78.7003 314.914 81.7693 314.914 86.2851C314.914 86.5873 314.893 86.8891 314.851 87.1883H303.98C304.038 89.7765 305.903 91.5828 308.341 91.5828C310.691 91.5828 311.862 90.2866 312.405 88.6559L314.822 89.5005ZM311.962 84.9011C311.903 82.8105 310.549 81.2007 307.99 81.2007C306.981 81.1864 306.006 81.5643 305.271 82.2545C304.535 82.9448 304.097 83.8936 304.047 84.9011H311.962Z" fill="#E1251B"/>
<path d="M328.875 91.4281C328.45 92.2394 327.802 92.9133 327.009 93.3714C326.216 93.8296 325.308 94.0532 324.393 94.0163C320.149 94.0163 317.531 90.6462 317.531 86.3395C317.531 82.2502 320.3 78.7588 324.393 78.7588C326.952 78.7588 328.336 80.0132 328.817 81.1965V71.8346H331.614V90.9472C331.612 91.8414 331.662 92.7349 331.765 93.6233H329.026C328.924 92.976 328.873 92.3217 328.875 91.6664V91.4281ZM324.665 91.5159C327.253 91.5159 328.846 89.2622 328.846 86.2809C328.846 83.2997 327.282 81.2634 324.694 81.2634C322.106 81.2634 320.421 83.354 320.421 86.3478C320.421 89.3416 321.959 91.5159 324.665 91.5159V91.5159Z" fill="#E1251B"/>
<path d="M337.606 71.6255C338.008 71.6231 338.401 71.7398 338.737 71.961C339.072 72.1823 339.335 72.498 339.491 72.8684C339.647 73.2387 339.69 73.6471 339.614 74.0417C339.538 74.4364 339.346 74.7997 339.064 75.0856C338.782 75.3716 338.421 75.5673 338.027 75.6482C337.633 75.729 337.224 75.6913 336.852 75.5398C336.48 75.3883 336.161 75.1298 335.936 74.797C335.71 74.4642 335.589 74.0721 335.586 73.6702C335.584 73.4032 335.634 73.1383 335.735 72.8909C335.835 72.6435 335.984 72.4183 336.171 72.2284C336.359 72.0384 336.582 71.8873 336.828 71.7839C337.074 71.6804 337.339 71.6266 337.606 71.6255ZM336.217 93.6233V79.1477H339.019V93.6233H336.217Z" fill="#E1251B"/>
<path d="M347.022 85.3485L350.936 84.7757C351.81 84.6544 352.048 84.2028 352.048 83.6927C352.048 82.2794 351.116 81.1045 348.92 81.1045C346.934 81.1045 345.822 82.338 345.638 84.0314L342.933 83.4C343.234 80.632 345.73 78.7044 348.858 78.7044C353.194 78.7044 354.879 81.1714 354.879 84.0021V91.2567C354.87 92.052 354.93 92.8466 355.058 93.6316H352.29C352.181 92.9853 352.13 92.3303 352.14 91.6748C351.509 92.6992 350.049 94.0832 347.474 94.0832C344.547 94.0832 342.632 92.0386 342.632 89.7514C342.632 87.1548 344.538 85.7165 347.022 85.3485ZM352.04 87.4392V86.7618L347.616 87.4266C346.412 87.6064 345.525 88.2963 345.525 89.5925C345.525 90.6755 346.424 91.6832 347.871 91.6832C350.183 91.6999 352.065 90.5835 352.065 87.4266L352.04 87.4392Z" fill="#E1251B"/>
<path d="M274.13 129.745V108.421H287.092V111.16H277.057V117.72H286.147V120.488H277.082V127.019H287.117V129.758L274.13 129.745Z" fill="#E1251B"/>
<path d="M293.635 129.745H290.804V115.27H293.572V117.36C294.017 116.577 294.666 115.93 295.451 115.488C296.235 115.046 297.125 114.826 298.026 114.852C301.488 114.852 303.206 117.36 303.206 120.572V129.745H300.375V121.048C300.375 119.033 299.539 117.406 297.005 117.406C294.777 117.406 293.635 119.183 293.635 121.379V129.745Z" fill="#E1251B"/>
<path d="M309.416 129.896C309.491 130.881 309.943 131.799 310.677 132.461C311.411 133.122 312.371 133.477 313.359 133.45C316.398 133.45 317.782 131.882 317.782 128.754V126.664C317.092 127.989 315.524 129.043 313.359 129.043C309.508 129.043 306.706 126.116 306.706 122.031C306.706 118.117 309.386 114.985 313.359 114.985C315.587 114.985 317.092 115.822 317.812 117.273V115.257H320.613V128.637C320.613 132.309 318.807 135.892 313.359 135.892C309.746 135.892 307.041 133.605 306.668 130.502L309.416 129.896ZM317.904 122.043C317.904 119.242 316.231 117.406 313.781 117.406C311.331 117.406 309.6 119.242 309.6 122.043C309.6 124.845 311.226 126.676 313.781 126.676C316.206 126.693 317.891 124.841 317.891 122.043H317.904Z" fill="#E1251B"/>
<path d="M326.559 107.748C326.961 107.744 327.355 107.86 327.691 108.081C328.027 108.302 328.29 108.617 328.447 108.988C328.604 109.358 328.647 109.766 328.571 110.161C328.496 110.556 328.305 110.92 328.023 111.206C327.74 111.493 327.38 111.689 326.986 111.77C326.592 111.851 326.183 111.814 325.81 111.662C325.438 111.511 325.119 111.252 324.893 110.92C324.668 110.587 324.546 110.194 324.543 109.792C324.541 109.526 324.592 109.261 324.692 109.014C324.792 108.767 324.94 108.542 325.127 108.352C325.314 108.162 325.537 108.011 325.783 107.907C326.028 107.804 326.292 107.749 326.559 107.748V107.748ZM325.175 129.745V115.27H327.972V129.745H325.175Z" fill="#E1251B"/>
<path d="M335.377 129.745H332.546V115.27H335.314V117.36C335.76 116.577 336.41 115.93 337.195 115.488C337.98 115.046 338.871 114.826 339.772 114.852C343.23 114.852 344.948 117.36 344.948 120.572V129.745H342.117V121.048C342.117 119.033 341.281 117.406 338.747 117.406C336.519 117.406 335.377 119.183 335.377 121.379V129.745Z" fill="#E1251B"/>
<path d="M362.192 125.623C361.381 128.182 359.06 130.197 355.69 130.197C351.81 130.197 348.406 127.37 348.406 122.462C348.406 117.921 351.688 114.818 355.33 114.818C359.783 114.818 362.28 117.887 362.28 122.403C362.281 122.705 362.261 123.007 362.221 123.306H351.35C351.408 125.894 353.273 127.701 355.711 127.701C358.061 127.701 359.231 126.405 359.775 124.774L362.192 125.623ZM359.332 121.023C359.273 118.933 357.918 117.323 355.359 117.323C354.351 117.309 353.376 117.686 352.641 118.377C351.905 119.067 351.466 120.016 351.417 121.023H359.332Z" fill="#E1251B"/>
<path d="M378.653 125.623C377.842 128.182 375.522 130.197 372.151 130.197C368.271 130.197 364.868 127.37 364.868 122.462C364.868 117.921 368.15 114.818 371.792 114.818C376.245 114.818 378.745 117.887 378.745 122.403C378.746 122.705 378.725 123.007 378.683 123.306H367.811C367.87 125.894 369.735 127.701 372.172 127.701C374.522 127.701 375.693 126.405 376.237 124.774L378.653 125.623ZM375.793 121.023C375.735 118.933 374.38 117.323 371.821 117.323C370.813 117.309 369.838 117.686 369.102 118.377C368.367 119.067 367.928 120.016 367.878 121.023H375.793Z" fill="#E1251B"/>
<path d="M390.332 118.13C389.923 118.071 389.511 118.041 389.098 118.038C386.719 118.038 385.126 119.292 385.126 122.495V129.745H382.296V115.27H385.064V117.799C385.421 116.953 386.026 116.235 386.801 115.741C387.575 115.246 388.481 114.999 389.4 115.031C389.712 115.034 390.024 115.063 390.332 115.119V118.13Z" fill="#E1251B"/>
<path d="M394.605 107.748C395.007 107.744 395.401 107.86 395.737 108.081C396.074 108.302 396.337 108.617 396.493 108.988C396.65 109.358 396.693 109.766 396.618 110.161C396.542 110.556 396.351 110.92 396.069 111.206C395.787 111.493 395.426 111.689 395.032 111.77C394.638 111.851 394.229 111.814 393.857 111.662C393.484 111.511 393.165 111.252 392.94 110.92C392.714 110.587 392.592 110.194 392.59 109.792C392.588 109.526 392.638 109.261 392.738 109.014C392.838 108.767 392.986 108.542 393.174 108.352C393.361 108.162 393.584 108.011 393.829 107.907C394.075 107.804 394.339 107.749 394.605 107.748V107.748ZM393.221 129.745V115.27H396.019V129.745H393.221Z" fill="#E1251B"/>
<path d="M403.424 129.745H400.593V115.27H403.361V117.36C403.806 116.577 404.456 115.929 405.241 115.487C406.026 115.045 406.917 114.825 407.818 114.852C411.276 114.852 412.994 117.36 412.994 120.572V129.745H410.185V121.048C410.185 119.033 409.348 117.406 406.815 117.406C404.586 117.406 403.444 119.183 403.444 121.379L403.424 129.745Z" fill="#E1251B"/>
<path d="M419.191 129.896C419.267 130.881 419.719 131.799 420.452 132.461C421.186 133.122 422.146 133.477 423.134 133.45C426.174 133.45 427.558 131.882 427.558 128.754V126.664C426.868 127.989 425.3 129.043 423.134 129.043C419.283 129.043 416.482 126.116 416.482 122.031C416.482 118.117 419.162 114.985 423.134 114.985C425.363 114.985 426.868 115.822 427.587 117.273V115.257H430.389V128.637C430.389 132.309 428.582 135.892 423.134 135.892C419.522 135.892 416.816 133.605 416.444 130.502L419.191 129.896ZM427.679 122.043C427.679 119.242 426.007 117.406 423.556 117.406C421.048 117.406 419.375 119.242 419.375 122.043C419.375 124.845 421.002 126.676 423.556 126.676C425.994 126.693 427.679 124.841 427.679 122.043V122.043Z" fill="#E1251B"/>
<path d="M274.13 165.868V144.543H277.14V165.868H274.13Z" fill="#E1251B"/>
<path d="M285.118 165.868H282.287V151.392H285.055V153.483C285.5 152.7 286.149 152.052 286.934 151.61C287.718 151.168 288.608 150.948 289.508 150.974C292.971 150.974 294.689 153.483 294.689 156.694V165.872H291.854V157.175C291.854 155.159 291.018 153.533 288.484 153.533C286.255 153.533 285.114 155.31 285.114 157.505L285.118 165.868Z" fill="#E1251B"/>
<path d="M300.526 161.205C300.706 162.711 301.852 163.911 303.896 163.911C305.489 163.911 306.363 163.008 306.363 161.987C306.363 161.084 305.703 160.39 304.498 160.123L302.031 159.579C299.773 159.098 298.419 157.564 298.419 155.515C298.419 153.035 300.735 150.945 303.562 150.945C307.534 150.945 308.767 153.533 309.068 154.829L306.56 155.761C306.438 155.009 305.836 153.353 303.549 153.353C302.102 153.353 301.141 154.285 301.141 155.281C301.141 156.15 301.68 156.786 302.813 157.024L305.159 157.534C307.776 158.107 309.165 159.704 309.165 161.841C309.165 163.886 307.446 166.323 303.867 166.323C299.895 166.323 298.21 163.764 297.967 162.113L300.526 161.205Z" fill="#E1251B"/>
<path d="M316.745 151.392H319.869V153.951H316.737V161.477C316.737 162.803 317.28 163.463 318.756 163.463C319.13 163.46 319.502 163.42 319.869 163.346V165.751C319.245 165.943 318.594 166.035 317.941 166.022C315.474 166.022 313.91 164.517 313.91 161.9V153.955H311.142V151.396H311.924C313.488 151.396 314.149 150.434 314.149 149.168V146.822H316.737L316.745 151.392Z" fill="#E1251B"/>
<path d="M324.631 143.87C325.033 143.867 325.427 143.983 325.763 144.203C326.099 144.424 326.363 144.739 326.519 145.11C326.676 145.48 326.719 145.888 326.644 146.283C326.568 146.678 326.377 147.042 326.095 147.328C325.813 147.615 325.452 147.811 325.058 147.892C324.664 147.973 324.255 147.936 323.883 147.784C323.51 147.633 323.191 147.375 322.966 147.042C322.74 146.709 322.618 146.317 322.616 145.914C322.614 145.648 322.664 145.383 322.764 145.136C322.864 144.889 323.012 144.664 323.199 144.474C323.387 144.284 323.609 144.133 323.855 144.029C324.101 143.926 324.365 143.871 324.631 143.87ZM323.247 165.868V151.392H326.044V165.868H323.247Z" fill="#E1251B"/>
<path d="M334.562 151.392H337.693V153.951H334.562V161.477C334.562 162.803 335.105 163.463 336.581 163.463C336.955 163.46 337.327 163.42 337.693 163.346V165.751C337.069 165.943 336.419 166.034 335.766 166.022C333.299 166.022 331.735 164.517 331.735 161.9V153.955H328.963V151.396H329.749C331.313 151.396 331.973 150.434 331.973 149.168V146.822H334.562V151.392Z" fill="#E1251B"/>
<path d="M346.328 166.319C342.958 166.319 340.913 163.81 340.913 160.511V151.392H343.74V160.089C343.74 162.075 344.643 163.823 347.022 163.823C349.309 163.823 350.455 162.318 350.455 160.123V151.392H353.281V163.192C353.283 164.086 353.333 164.979 353.432 165.868H350.723C350.645 165.29 350.606 164.707 350.605 164.124C349.819 165.629 348.017 166.319 346.328 166.319Z" fill="#E1251B"/>
<path d="M361.828 151.392H364.96V153.951H361.828V161.477C361.828 162.803 362.372 163.463 363.843 163.463C364.219 163.46 364.592 163.421 364.96 163.346V165.751C364.336 165.943 363.685 166.034 363.032 166.022C360.565 166.022 359.002 164.517 359.002 161.9V153.955H356.246V151.396H357.032C358.596 151.396 359.257 150.434 359.257 149.168V146.822H361.845L361.828 151.392Z" fill="#E1251B"/>
<path d="M381.028 161.745C380.217 164.304 377.901 166.319 374.531 166.319C370.646 166.319 367.247 163.493 367.247 158.584C367.247 154.043 370.525 150.94 374.167 150.94C378.62 150.94 381.12 154.01 381.12 158.525C381.122 158.827 381.102 159.129 381.062 159.428H370.165C370.224 162.017 372.093 163.823 374.531 163.823C376.876 163.823 378.051 162.527 378.591 160.896L381.028 161.745ZM378.173 157.145C378.11 155.055 376.755 153.445 374.196 153.445C373.188 153.432 372.214 153.81 371.479 154.5C370.743 155.19 370.304 156.138 370.253 157.145H378.173Z" fill="#E1251B"/>
</svg>
