<svg width="41" height="41" viewBox="0 0 41 41" fill="none" xmlns="http://www.w3.org/2000/svg">
<g filter="url(#filter0_i_715_156)">
<path fill-rule="evenodd" clip-rule="evenodd" d="M20.5 28.9412C15.8381 28.9412 12.0588 25.1619 12.0588 20.5C12.0588 15.8381 15.8381 12.0588 20.5 12.0588C25.1619 12.0588 28.9412 15.8381 28.9412 20.5C28.9412 25.1619 25.1619 28.9412 20.5 28.9412ZM20.5 41C9.17816 41 2.16782e-06 31.8218 3.15761e-06 20.5C4.1474e-06 9.17816 9.17817 -2.78195e-06 20.5 -1.79217e-06C31.8218 -8.0238e-07 41 9.17816 41 20.5C41 31.8218 31.8218 41 20.5 41Z" fill="#E6E6E6"/>
</g>
<defs>
<filter id="filter0_i_715_156" x="0" y="0" width="42" height="42" filterUnits="userSpaceOnUse" color-interpolation-filters="sRGB">
<feFlood flood-opacity="0" result="BackgroundImageFix"/>
<feBlend mode="normal" in="SourceGraphic" in2="BackgroundImageFix" result="shape"/>
<feColorMatrix in="SourceAlpha" type="matrix" values="0 0 0 0 0 0 0 0 0 0 0 0 0 0 0 0 0 0 127 0" result="hardAlpha"/>
<feOffset dx="1" dy="1"/>
<feGaussianBlur stdDeviation="1"/>
<feComposite in2="hardAlpha" operator="arithmetic" k2="-1" k3="1"/>
<feColorMatrix type="matrix" values="0 0 0 0 0 0 0 0 0 0 0 0 0 0 0 0 0 0 0.25 0"/>
<feBlend mode="normal" in2="shape" result="effect1_innerShadow_715_156"/>
</filter>
</defs>
</svg>