<svg width="15" height="15" viewBox="0 0 15 15" fill="none" xmlns="http://www.w3.org/2000/svg">
<path d="M7.5 3.75C9.86875 3.75 11.9812 5.08125 13.0125 7.1875C12.6438 7.95 12.125 8.60625 11.5063 9.1375L12.3875 10.0188C13.2562 9.25 13.9438 8.2875 14.375 7.1875C13.2937 4.44375 10.625 2.5 7.5 2.5C6.70625 2.5 5.94375 2.625 5.225 2.85625L6.25625 3.8875C6.6625 3.80625 7.075 3.75 7.5 3.75ZM6.83125 4.4625L8.125 5.75625C8.48125 5.9125 8.76875 6.2 8.925 6.55625L10.2188 7.85C10.2688 7.6375 10.3062 7.4125 10.3062 7.18125C10.3125 5.63125 9.05 4.375 7.5 4.375C7.26875 4.375 7.05 4.40625 6.83125 4.4625ZM1.25625 2.41875L2.93125 4.09375C1.9125 4.89375 1.10625 5.95625 0.625 7.1875C1.70625 9.93125 4.375 11.875 7.5 11.875C8.45 11.875 9.3625 11.6938 10.2 11.3625L12.3375 13.5L13.2188 12.6188L2.1375 1.53125L1.25625 2.41875ZM5.94375 7.10625L7.575 8.7375C7.55 8.74375 7.525 8.75 7.5 8.75C6.6375 8.75 5.9375 8.05 5.9375 7.1875C5.9375 7.15625 5.94375 7.1375 5.94375 7.10625ZM3.81875 4.98125L4.9125 6.075C4.76875 6.41875 4.6875 6.79375 4.6875 7.1875C4.6875 8.7375 5.95 10 7.5 10C7.89375 10 8.26875 9.91875 8.60625 9.775L9.21875 10.3875C8.66875 10.5375 8.09375 10.625 7.5 10.625C5.13125 10.625 3.01875 9.29375 1.9875 7.1875C2.425 6.29375 3.0625 5.55625 3.81875 4.98125Z" fill="#323232"/>
</svg>
