<svg width="10" height="11" viewBox="0 0 10 11" fill="none" xmlns="http://www.w3.org/2000/svg">
<g id="iconmonstr-globe-7 1" clip-path="url(#clip0_1699_2649)">
<path id="Vector" fill-rule="evenodd" clip-rule="evenodd" d="M6.3525 7.86947C5.96625 9.41155 5.29125 10.3695 5 10.7861C4.70875 10.3695 4.03333 9.41197 3.6475 7.86947H6.3525ZM9.54583 7.86947C8.89667 9.28238 7.60833 10.3415 6.05167 10.6749C6.59958 9.81322 6.98583 8.85738 7.20875 7.86947H9.54583ZM0.454167 7.86947H2.79125C3.01583 8.86363 3.40375 9.81863 3.94833 10.6749C2.39167 10.3415 1.10333 9.28238 0.454167 7.86947ZM6.51667 7.03613H3.48333C3.3625 6.20905 3.3625 5.36363 3.48333 4.53613H6.51708C6.63708 5.36363 6.63708 6.20905 6.51667 7.03613ZM2.64208 7.03613H0.157917C0.0545833 6.63697 0 6.2178 0 5.78613C0 5.35447 0.0545833 4.93572 0.157917 4.53613H2.64208C2.5325 5.36447 2.5325 6.2078 2.64208 7.03613ZM9.84208 7.03613H7.3575C7.46792 6.2078 7.46792 5.36447 7.35792 4.53613H9.84208C9.945 4.93572 10 5.35447 10 5.78613C10 6.2178 9.945 6.63697 9.84208 7.03613ZM6.3525 3.7028H3.6475C4.03292 2.1603 4.70833 1.2028 5 0.786133C5.4975 1.4978 6.01833 2.36905 6.3525 3.7028ZM2.79083 3.70238H0.45375C1.10333 2.28988 2.39167 1.23072 3.94833 0.896966C3.43292 1.7053 3.02583 2.66238 2.79083 3.70238ZM9.54583 3.70238H7.20875C6.97667 2.67655 6.57833 1.72322 6.05125 0.896966C7.60792 1.23072 8.89667 2.28988 9.54583 3.70238Z" fill="#616161"/>
</g>
<defs>
<clipPath id="clip0_1699_2649">
<rect width="10" height="10" fill="white" transform="translate(0 0.786133)"/>
</clipPath>
</defs>
</svg>
