<svg width="642" height="514" viewBox="0 0 642 514" fill="none" xmlns="http://www.w3.org/2000/svg">
<rect width="642" height="514" fill="white"/>
<path d="M132.504 476.732C132.504 476.432 132.396 476.197 132.182 476.029C131.971 475.861 131.598 475.688 131.062 475.508C130.527 475.328 130.09 475.154 129.75 474.986C128.645 474.443 128.092 473.697 128.092 472.748C128.092 472.275 128.229 471.859 128.502 471.5C128.779 471.137 129.17 470.855 129.674 470.656C130.178 470.453 130.744 470.352 131.373 470.352C131.986 470.352 132.535 470.461 133.02 470.68C133.508 470.898 133.887 471.211 134.156 471.617C134.426 472.02 134.561 472.48 134.561 473H132.51C132.51 472.652 132.402 472.383 132.188 472.191C131.977 472 131.689 471.904 131.326 471.904C130.959 471.904 130.668 471.986 130.453 472.15C130.242 472.311 130.137 472.516 130.137 472.766C130.137 472.984 130.254 473.184 130.488 473.363C130.723 473.539 131.135 473.723 131.725 473.914C132.314 474.102 132.799 474.305 133.178 474.523C134.1 475.055 134.561 475.787 134.561 476.721C134.561 477.467 134.279 478.053 133.717 478.479C133.154 478.904 132.383 479.117 131.402 479.117C130.711 479.117 130.084 478.994 129.521 478.748C128.963 478.498 128.541 478.158 128.256 477.729C127.975 477.295 127.834 476.797 127.834 476.234H129.896C129.896 476.691 130.014 477.029 130.248 477.248C130.486 477.463 130.871 477.57 131.402 477.57C131.742 477.57 132.01 477.498 132.205 477.354C132.404 477.205 132.504 476.998 132.504 476.732ZM137.824 471.084V472.66H138.867V474.031H137.824V476.932C137.824 477.17 137.867 477.336 137.953 477.43C138.039 477.523 138.209 477.57 138.463 477.57C138.658 477.57 138.822 477.559 138.955 477.535V478.947C138.6 479.061 138.229 479.117 137.842 479.117C137.162 479.117 136.66 478.957 136.336 478.637C136.012 478.316 135.85 477.83 135.85 477.178V474.031H135.041V472.66H135.85V471.084H137.824ZM143.221 479C143.15 478.871 143.088 478.682 143.033 478.432C142.67 478.889 142.162 479.117 141.51 479.117C140.912 479.117 140.404 478.938 139.986 478.578C139.568 478.215 139.359 477.76 139.359 477.213C139.359 476.525 139.613 476.006 140.121 475.654C140.629 475.303 141.367 475.127 142.336 475.127H142.945V474.793C142.945 474.211 142.693 473.92 142.189 473.92C141.721 473.92 141.486 474.15 141.486 474.611H139.512C139.512 473.998 139.771 473.5 140.291 473.117C140.814 472.734 141.48 472.543 142.289 472.543C143.098 472.543 143.736 472.74 144.205 473.135C144.674 473.529 144.914 474.07 144.926 474.758V477.564C144.934 478.146 145.023 478.592 145.195 478.9V479H143.221ZM141.984 477.711C142.23 477.711 142.434 477.658 142.594 477.553C142.758 477.447 142.875 477.328 142.945 477.195V476.182H142.371C141.684 476.182 141.34 476.49 141.34 477.107C141.34 477.287 141.4 477.434 141.521 477.547C141.643 477.656 141.797 477.711 141.984 477.711ZM147.838 472.66L147.902 473.404C148.34 472.83 148.943 472.543 149.713 472.543C150.373 472.543 150.865 472.74 151.189 473.135C151.518 473.529 151.688 474.123 151.699 474.916V479H149.719V474.998C149.719 474.678 149.654 474.443 149.525 474.295C149.396 474.143 149.162 474.066 148.822 474.066C148.436 474.066 148.148 474.219 147.961 474.523V479H145.986V472.66H147.838ZM152.549 475.783C152.549 474.779 152.766 473.988 153.199 473.41C153.633 472.832 154.238 472.543 155.016 472.543C155.582 472.543 156.059 472.766 156.445 473.211V470H158.426V479H156.65L156.551 478.32C156.145 478.852 155.629 479.117 155.004 479.117C154.25 479.117 153.652 478.828 153.211 478.25C152.77 477.672 152.549 476.85 152.549 475.783ZM154.523 475.906C154.523 477.031 154.852 477.594 155.508 477.594C155.945 477.594 156.258 477.41 156.445 477.043V474.629C156.266 474.254 155.957 474.066 155.52 474.066C154.91 474.066 154.58 474.559 154.529 475.543L154.523 475.906ZM163.119 479C163.049 478.871 162.986 478.682 162.932 478.432C162.568 478.889 162.061 479.117 161.408 479.117C160.811 479.117 160.303 478.938 159.885 478.578C159.467 478.215 159.258 477.76 159.258 477.213C159.258 476.525 159.512 476.006 160.02 475.654C160.527 475.303 161.266 475.127 162.234 475.127H162.844V474.793C162.844 474.211 162.592 473.92 162.088 473.92C161.619 473.92 161.385 474.15 161.385 474.611H159.41C159.41 473.998 159.67 473.5 160.189 473.117C160.713 472.734 161.379 472.543 162.188 472.543C162.996 472.543 163.635 472.74 164.104 473.135C164.572 473.529 164.812 474.07 164.824 474.758V477.564C164.832 478.146 164.922 478.592 165.094 478.9V479H163.119ZM161.883 477.711C162.129 477.711 162.332 477.658 162.492 477.553C162.656 477.447 162.773 477.328 162.844 477.195V476.182H162.27C161.582 476.182 161.238 476.49 161.238 477.107C161.238 477.287 161.299 477.434 161.42 477.547C161.541 477.656 161.695 477.711 161.883 477.711ZM169.758 474.447L169.107 474.4C168.486 474.4 168.088 474.596 167.912 474.986V479H165.938V472.66H167.789L167.854 473.475C168.186 472.854 168.648 472.543 169.242 472.543C169.453 472.543 169.637 472.566 169.793 472.613L169.758 474.447ZM170.104 475.783C170.104 474.779 170.32 473.988 170.754 473.41C171.188 472.832 171.793 472.543 172.57 472.543C173.137 472.543 173.613 472.766 174 473.211V470H175.98V479H174.205L174.105 478.32C173.699 478.852 173.184 479.117 172.559 479.117C171.805 479.117 171.207 478.828 170.766 478.25C170.324 477.672 170.104 476.85 170.104 475.783ZM172.078 475.906C172.078 477.031 172.406 477.594 173.062 477.594C173.5 477.594 173.812 477.41 174 477.043V474.629C173.82 474.254 173.512 474.066 173.074 474.066C172.465 474.066 172.135 474.559 172.084 475.543L172.078 475.906ZM182.883 470.469L184.787 476.404L186.686 470.469H189.393V479H187.33V477.008L187.529 472.93L185.467 479H184.107L182.039 472.924L182.238 477.008V479H180.182V470.469H182.883ZM192.697 479H190.717V472.66H192.697V479ZM190.6 471.025C190.6 470.744 190.701 470.514 190.904 470.334C191.107 470.154 191.371 470.064 191.695 470.064C192.02 470.064 192.283 470.154 192.486 470.334C192.689 470.514 192.791 470.744 192.791 471.025C192.791 471.307 192.689 471.537 192.486 471.717C192.283 471.896 192.02 471.986 191.695 471.986C191.371 471.986 191.107 471.896 190.904 471.717C190.701 471.537 190.6 471.307 190.6 471.025ZM196.488 474.406L197.408 472.66H199.459L197.789 475.748L199.541 479H197.479L196.482 477.125L195.504 479H193.43L195.188 475.748L193.523 472.66H195.598L196.488 474.406Z" fill="#5A5A5A"/>
<path d="M272.129 475.988H271.016V479H268.959V470.469H272.316C273.328 470.469 274.119 470.693 274.689 471.143C275.26 471.592 275.545 472.227 275.545 473.047C275.545 473.641 275.424 474.133 275.182 474.523C274.943 474.914 274.568 475.23 274.057 475.473L275.838 478.912V479H273.635L272.129 475.988ZM271.016 474.4H272.316C272.707 474.4 273 474.299 273.195 474.096C273.395 473.889 273.494 473.602 273.494 473.234C273.494 472.867 273.395 472.58 273.195 472.373C272.996 472.162 272.703 472.057 272.316 472.057H271.016V474.4ZM279.764 479.117C278.791 479.117 278.004 478.828 277.402 478.25C276.801 477.668 276.5 476.912 276.5 475.982V475.818C276.5 475.17 276.619 474.598 276.857 474.102C277.1 473.605 277.451 473.223 277.912 472.953C278.373 472.68 278.92 472.543 279.553 472.543C280.443 472.543 281.146 472.82 281.662 473.375C282.178 473.926 282.436 474.695 282.436 475.684V476.451H278.51C278.58 476.807 278.734 477.086 278.973 477.289C279.211 477.492 279.52 477.594 279.898 477.594C280.523 477.594 281.012 477.375 281.363 476.938L282.266 478.004C282.02 478.344 281.67 478.615 281.217 478.818C280.768 479.018 280.283 479.117 279.764 479.117ZM279.541 474.066C278.963 474.066 278.619 474.449 278.51 475.215H280.502V475.062C280.51 474.746 280.43 474.502 280.262 474.33C280.094 474.154 279.854 474.066 279.541 474.066ZM285.049 472.66L285.113 473.404C285.551 472.83 286.154 472.543 286.924 472.543C287.584 472.543 288.076 472.74 288.4 473.135C288.729 473.529 288.898 474.123 288.91 474.916V479H286.93V474.998C286.93 474.678 286.865 474.443 286.736 474.295C286.607 474.143 286.373 474.066 286.033 474.066C285.646 474.066 285.359 474.219 285.172 474.523V479H283.197V472.66H285.049ZM293.076 479.117C292.104 479.117 291.316 478.828 290.715 478.25C290.113 477.668 289.812 476.912 289.812 475.982V475.818C289.812 475.17 289.932 474.598 290.17 474.102C290.412 473.605 290.764 473.223 291.225 472.953C291.686 472.68 292.232 472.543 292.865 472.543C293.756 472.543 294.459 472.82 294.975 473.375C295.49 473.926 295.748 474.695 295.748 475.684V476.451H291.822C291.893 476.807 292.047 477.086 292.285 477.289C292.523 477.492 292.832 477.594 293.211 477.594C293.836 477.594 294.324 477.375 294.676 476.938L295.578 478.004C295.332 478.344 294.982 478.615 294.529 478.818C294.08 479.018 293.596 479.117 293.076 479.117ZM292.854 474.066C292.275 474.066 291.932 474.449 291.822 475.215H293.814V475.062C293.822 474.746 293.742 474.502 293.574 474.33C293.406 474.154 293.166 474.066 292.854 474.066ZM302.023 476.398L302.662 472.66H304.555L303.061 479H301.391L300.342 475.238L299.287 479H297.617L296.123 472.66H298.016L298.643 476.486L299.65 472.66H301.027L302.023 476.398ZM308.838 479C308.768 478.871 308.705 478.682 308.65 478.432C308.287 478.889 307.779 479.117 307.127 479.117C306.529 479.117 306.021 478.938 305.604 478.578C305.186 478.215 304.977 477.76 304.977 477.213C304.977 476.525 305.23 476.006 305.738 475.654C306.246 475.303 306.984 475.127 307.953 475.127H308.562V474.793C308.562 474.211 308.311 473.92 307.807 473.92C307.338 473.92 307.104 474.15 307.104 474.611H305.129C305.129 473.998 305.389 473.5 305.908 473.117C306.432 472.734 307.098 472.543 307.906 472.543C308.715 472.543 309.354 472.74 309.822 473.135C310.291 473.529 310.531 474.07 310.543 474.758V477.564C310.551 478.146 310.641 478.592 310.812 478.9V479H308.838ZM307.602 477.711C307.848 477.711 308.051 477.658 308.211 477.553C308.375 477.447 308.492 477.328 308.562 477.195V476.182H307.988C307.301 476.182 306.957 476.49 306.957 477.107C306.957 477.287 307.018 477.434 307.139 477.547C307.26 477.656 307.414 477.711 307.602 477.711ZM317.527 475.883C317.527 476.922 317.312 477.721 316.883 478.279C316.453 478.838 315.848 479.117 315.066 479.117C314.422 479.117 313.902 478.861 313.508 478.35L313.426 479H311.656V470H313.631V473.17C313.998 472.752 314.473 472.543 315.055 472.543C315.844 472.543 316.453 472.826 316.883 473.393C317.312 473.959 317.527 474.756 317.527 475.783V475.883ZM315.547 475.76C315.547 475.15 315.465 474.717 315.301 474.459C315.141 474.197 314.893 474.066 314.557 474.066C314.111 474.066 313.803 474.236 313.631 474.576V477.096C313.799 477.432 314.111 477.6 314.568 477.6C315.033 477.6 315.328 477.373 315.453 476.92C315.516 476.697 315.547 476.311 315.547 475.76ZM320.486 479H318.506V470H320.486V479ZM324.775 479.117C323.803 479.117 323.016 478.828 322.414 478.25C321.812 477.668 321.512 476.912 321.512 475.982V475.818C321.512 475.17 321.631 474.598 321.869 474.102C322.111 473.605 322.463 473.223 322.924 472.953C323.385 472.68 323.932 472.543 324.564 472.543C325.455 472.543 326.158 472.82 326.674 473.375C327.189 473.926 327.447 474.695 327.447 475.684V476.451H323.521C323.592 476.807 323.746 477.086 323.984 477.289C324.223 477.492 324.531 477.594 324.91 477.594C325.535 477.594 326.023 477.375 326.375 476.938L327.277 478.004C327.031 478.344 326.682 478.615 326.229 478.818C325.779 479.018 325.295 479.117 324.775 479.117ZM324.553 474.066C323.975 474.066 323.631 474.449 323.521 475.215H325.514V475.062C325.521 474.746 325.441 474.502 325.273 474.33C325.105 474.154 324.865 474.066 324.553 474.066ZM334.027 470.469L335.932 476.404L337.83 470.469H340.537V479H338.475V477.008L338.674 472.93L336.611 479H335.252L333.184 472.924L333.383 477.008V479H331.326V470.469H334.027ZM343.842 479H341.861V472.66H343.842V479ZM341.744 471.025C341.744 470.744 341.846 470.514 342.049 470.334C342.252 470.154 342.516 470.064 342.84 470.064C343.164 470.064 343.428 470.154 343.631 470.334C343.834 470.514 343.936 470.744 343.936 471.025C343.936 471.307 343.834 471.537 343.631 471.717C343.428 471.896 343.164 471.986 342.84 471.986C342.516 471.986 342.252 471.896 342.049 471.717C341.846 471.537 341.744 471.307 341.744 471.025ZM347.633 474.406L348.553 472.66H350.604L348.934 475.748L350.686 479H348.623L347.627 477.125L346.648 479H344.574L346.332 475.748L344.668 472.66H346.742L347.633 474.406Z" fill="#5A5A5A"/>
<path d="M499.77 419H497.725L494.701 413.691V419H492.645V410.469H494.701L497.719 415.777V410.469H499.77V419ZM504.24 415.988H503.127V419H501.07V410.469H504.428C505.439 410.469 506.23 410.693 506.801 411.143C507.371 411.592 507.656 412.227 507.656 413.047C507.656 413.641 507.535 414.133 507.293 414.523C507.055 414.914 506.68 415.23 506.168 415.473L507.949 418.912V419H505.746L504.24 415.988ZM503.127 414.4H504.428C504.818 414.4 505.111 414.299 505.307 414.096C505.506 413.889 505.605 413.602 505.605 413.234C505.605 412.867 505.506 412.58 505.307 412.373C505.107 412.162 504.814 412.057 504.428 412.057H503.127V414.4ZM514.189 415.385H510.955V417.418H514.775V419H508.898V410.469H514.787V412.057H510.955V413.855H514.189V415.385Z" fill="#5A5A5A"/>
<path d="M495.814 445.988H494.701V449H492.645V440.469H496.002C497.014 440.469 497.805 440.693 498.375 441.143C498.945 441.592 499.23 442.227 499.23 443.047C499.23 443.641 499.109 444.133 498.867 444.523C498.629 444.914 498.254 445.23 497.742 445.473L499.523 448.912V449H497.32L495.814 445.988ZM494.701 444.4H496.002C496.393 444.4 496.686 444.299 496.881 444.096C497.08 443.889 497.18 443.602 497.18 443.234C497.18 442.867 497.08 442.58 496.881 442.373C496.682 442.162 496.389 442.057 496.002 442.057H494.701V444.4ZM505.764 445.385H502.529V447.418H506.35V449H500.473V440.469H506.361V442.057H502.529V443.855H505.764V445.385Z" fill="#5A5A5A"/>
<rect x="445" y="405" width="20" height="20" fill="#5D6473"/>
<rect x="445" y="435" width="20" height="20" fill="#AABF0B"/>
<rect x="111" y="147" width="100" height="307" fill="#5D6473"/>
<rect x="111" y="74" width="100" height="73" fill="#AABF0B"/>
<rect x="260" y="417" width="100" height="37" fill="#5D6473"/>
<rect x="260" y="268" width="100" height="149" fill="#AABF0B"/>
<path d="M47 456L410 456" stroke="black" stroke-miterlimit="10"/>
<path d="M35.8223 149H31.042V148.185L33.4102 145.602C33.752 145.221 33.9945 144.903 34.1377 144.649C34.2842 144.392 34.3574 144.135 34.3574 143.878C34.3574 143.539 34.2614 143.266 34.0693 143.058C33.8805 142.849 33.625 142.745 33.3027 142.745C32.9186 142.745 32.6208 142.862 32.4092 143.097C32.1976 143.331 32.0918 143.652 32.0918 144.059H30.9053C30.9053 143.626 31.0029 143.237 31.1982 142.892C31.3968 142.543 31.6784 142.273 32.043 142.081C32.4108 141.889 32.834 141.793 33.3125 141.793C34.0026 141.793 34.5462 141.967 34.9434 142.315C35.3438 142.66 35.5439 143.139 35.5439 143.751C35.5439 144.106 35.443 144.479 35.2412 144.869C35.0426 145.257 34.7155 145.698 34.2598 146.192L32.5215 148.053H35.8223V149ZM41.0078 141.891L43.0586 147.34L45.1045 141.891H46.7012V149H45.4707V146.656L45.5928 143.521L43.4932 149H42.6094L40.5146 143.526L40.6367 146.656V149H39.4062V141.891H41.0078ZM51.0762 141.891H52.3066V146.876C52.3066 147.556 52.0934 148.097 51.667 148.497C51.2438 148.897 50.6839 149.098 49.9873 149.098C49.2451 149.098 48.6722 148.91 48.2686 148.536C47.8649 148.162 47.6631 147.641 47.6631 146.974H48.8936C48.8936 147.351 48.9863 147.636 49.1719 147.828C49.3607 148.017 49.6325 148.111 49.9873 148.111C50.3193 148.111 50.583 148.002 50.7783 147.784C50.9769 147.563 51.0762 147.258 51.0762 146.871V141.891Z" fill="black"/>
<path d="M57.6797 147.93C57.6797 148.583 57.5312 149.105 57.2344 149.496C56.9375 149.884 56.5391 150.078 56.0391 150.078C55.5755 150.078 55.2044 149.926 54.9258 149.621V151.625H53.9766V145.773H54.8516L54.8906 146.203C55.1693 145.865 55.5482 145.695 56.0273 145.695C56.543 145.695 56.9466 145.888 57.2383 146.273C57.5326 146.656 57.6797 147.189 57.6797 147.871V147.93ZM56.7344 147.848C56.7344 147.426 56.6497 147.091 56.4805 146.844C56.3138 146.596 56.0742 146.473 55.7617 146.473C55.3737 146.473 55.0951 146.633 54.9258 146.953V148.828C55.0977 149.156 55.3789 149.32 55.7695 149.32C56.0716 149.32 56.3073 149.199 56.4766 148.957C56.6484 148.712 56.7344 148.342 56.7344 147.848Z" fill="black"/>
<path d="M35.0557 46.4658H35.9395V47.418H35.0557V49H33.8691V47.418H30.7979L30.7637 46.6953L33.8301 41.8906H35.0557V46.4658ZM32.0088 46.4658H33.8691V43.4971L33.7812 43.6533L32.0088 46.4658ZM41.0078 41.8906L43.0586 47.3398L45.1045 41.8906H46.7012V49H45.4707V46.6562L45.5928 43.5215L43.4932 49H42.6094L40.5146 43.5264L40.6367 46.6562V49H39.4062V41.8906H41.0078ZM51.0762 41.8906H52.3066V46.876C52.3066 47.5563 52.0934 48.0967 51.667 48.4971C51.2438 48.8975 50.6839 49.0977 49.9873 49.0977C49.2451 49.0977 48.6722 48.9105 48.2686 48.5361C47.8649 48.1618 47.6631 47.641 47.6631 46.9736H48.8936C48.8936 47.3512 48.9863 47.6361 49.1719 47.8281C49.3607 48.0169 49.6325 48.1113 49.9873 48.1113C50.3193 48.1113 50.583 48.0023 50.7783 47.7842C50.9769 47.5628 51.0762 47.2585 51.0762 46.8711V41.8906Z" fill="black"/>
<path d="M57.6797 47.9297C57.6797 48.5833 57.5312 49.1055 57.2344 49.4961C56.9375 49.8841 56.5391 50.0781 56.0391 50.0781C55.5755 50.0781 55.2044 49.9258 54.9258 49.6211V51.625H53.9766V45.7734H54.8516L54.8906 46.2031C55.1693 45.8646 55.5482 45.6953 56.0273 45.6953C56.543 45.6953 56.9466 45.888 57.2383 46.2734C57.5326 46.6562 57.6797 47.1888 57.6797 47.8711V47.9297ZM56.7344 47.8477C56.7344 47.4258 56.6497 47.0911 56.4805 46.8438C56.3138 46.5964 56.0742 46.4727 55.7617 46.4727C55.3737 46.4727 55.0951 46.6328 54.9258 46.9531V48.8281C55.0977 49.1562 55.3789 49.3203 55.7695 49.3203C56.0716 49.3203 56.3073 49.1992 56.4766 48.957C56.6484 48.7122 56.7344 48.3424 56.7344 47.8477Z" fill="black"/>
<path d="M35.8223 249H31.042V248.185L33.4102 245.602C33.752 245.221 33.9945 244.903 34.1377 244.649C34.2842 244.392 34.3574 244.135 34.3574 243.878C34.3574 243.539 34.2614 243.266 34.0693 243.058C33.8805 242.849 33.625 242.745 33.3027 242.745C32.9186 242.745 32.6208 242.862 32.4092 243.097C32.1976 243.331 32.0918 243.652 32.0918 244.059H30.9053C30.9053 243.626 31.0029 243.237 31.1982 242.892C31.3968 242.543 31.6784 242.273 32.043 242.081C32.4108 241.889 32.834 241.793 33.3125 241.793C34.0026 241.793 34.5462 241.967 34.9434 242.315C35.3438 242.66 35.5439 243.139 35.5439 243.751C35.5439 244.106 35.443 244.479 35.2412 244.869C35.0426 245.257 34.7155 245.698 34.2598 246.192L32.5215 248.053H35.8223V249ZM41.0078 241.891L43.0586 247.34L45.1045 241.891H46.7012V249H45.4707V246.656L45.5928 243.521L43.4932 249H42.6094L40.5146 243.526L40.6367 246.656V249H39.4062V241.891H41.0078ZM51.0762 241.891H52.3066V246.876C52.3066 247.556 52.0934 248.097 51.667 248.497C51.2438 248.897 50.6839 249.098 49.9873 249.098C49.2451 249.098 48.6722 248.91 48.2686 248.536C47.8649 248.162 47.6631 247.641 47.6631 246.974H48.8936C48.8936 247.351 48.9863 247.636 49.1719 247.828C49.3607 248.017 49.6325 248.111 49.9873 248.111C50.3193 248.111 50.583 248.002 50.7783 247.784C50.9769 247.563 51.0762 247.258 51.0762 246.871V241.891Z" fill="black"/>
<path d="M57.6797 247.93C57.6797 248.583 57.5312 249.105 57.2344 249.496C56.9375 249.884 56.5391 250.078 56.0391 250.078C55.5755 250.078 55.2044 249.926 54.9258 249.621V251.625H53.9766V245.773H54.8516L54.8906 246.203C55.1693 245.865 55.5482 245.695 56.0273 245.695C56.543 245.695 56.9466 245.888 57.2383 246.273C57.5326 246.656 57.6797 247.189 57.6797 247.871V247.93ZM56.7344 247.848C56.7344 247.426 56.6497 247.091 56.4805 246.844C56.3138 246.596 56.0742 246.473 55.7617 246.473C55.3737 246.473 55.0951 246.633 54.9258 246.953V248.828C55.0977 249.156 55.3789 249.32 55.7695 249.32C56.0716 249.32 56.3073 249.199 56.4766 248.957C56.6484 248.712 56.7344 248.342 56.7344 247.848Z" fill="black"/>
<path d="M34.2549 349H33.0732V343.292L31.3301 343.888V342.887L34.1035 341.866H34.2549V349ZM41.0078 341.891L43.0586 347.34L45.1045 341.891H46.7012V349H45.4707V346.656L45.5928 343.521L43.4932 349H42.6094L40.5146 343.526L40.6367 346.656V349H39.4062V341.891H41.0078ZM51.0762 341.891H52.3066V346.876C52.3066 347.556 52.0934 348.097 51.667 348.497C51.2438 348.897 50.6839 349.098 49.9873 349.098C49.2451 349.098 48.6722 348.91 48.2686 348.536C47.8649 348.162 47.6631 347.641 47.6631 346.974H48.8936C48.8936 347.351 48.9863 347.636 49.1719 347.828C49.3607 348.017 49.6325 348.111 49.9873 348.111C50.3193 348.111 50.583 348.002 50.7783 347.784C50.9769 347.563 51.0762 347.258 51.0762 346.871V341.891Z" fill="black"/>
<path d="M57.6797 347.93C57.6797 348.583 57.5312 349.105 57.2344 349.496C56.9375 349.884 56.5391 350.078 56.0391 350.078C55.5755 350.078 55.2044 349.926 54.9258 349.621V351.625H53.9766V345.773H54.8516L54.8906 346.203C55.1693 345.865 55.5482 345.695 56.0273 345.695C56.543 345.695 56.9466 345.888 57.2383 346.273C57.5326 346.656 57.6797 347.189 57.6797 347.871V347.93ZM56.7344 347.848C56.7344 347.426 56.6497 347.091 56.4805 346.844C56.3138 346.596 56.0742 346.473 55.7617 346.473C55.3737 346.473 55.0951 346.633 54.9258 346.953V348.828C55.0977 349.156 55.3789 349.32 55.7695 349.32C56.0716 349.32 56.3073 349.199 56.4766 348.957C56.6484 348.712 56.7344 348.342 56.7344 347.848Z" fill="black"/>
<path d="M47 354L60 354" stroke="black" stroke-miterlimit="10"/>
<path d="M47 254L60 254" stroke="black" stroke-miterlimit="10"/>
<path d="M47 154L60 154" stroke="black" stroke-miterlimit="10"/>
<path d="M47 54L60 54" stroke="black" stroke-miterlimit="10"/>
<path d="M60 39L60 466" stroke="black" stroke-miterlimit="10"/>
<path d="M144.938 58.9033H145.66C146.025 58.9001 146.313 58.8057 146.524 58.6201C146.739 58.4346 146.847 58.166 146.847 57.8145C146.847 57.4759 146.757 57.2139 146.578 57.0283C146.402 56.8395 146.132 56.7451 145.768 56.7451C145.449 56.7451 145.187 56.8379 144.981 57.0234C144.776 57.2057 144.674 57.445 144.674 57.7412H143.487C143.487 57.3766 143.583 57.0446 143.775 56.7451C143.971 56.4456 144.241 56.2129 144.586 56.0469C144.934 55.8776 145.323 55.793 145.753 55.793C146.463 55.793 147.019 55.972 147.423 56.3301C147.83 56.6849 148.033 57.1797 148.033 57.8145C148.033 58.1335 147.931 58.4346 147.726 58.7178C147.524 58.9977 147.262 59.2093 146.939 59.3525C147.33 59.486 147.626 59.696 147.828 59.9824C148.033 60.2689 148.136 60.6107 148.136 61.0078C148.136 61.6458 147.916 62.1536 147.477 62.5312C147.04 62.9089 146.466 63.0977 145.753 63.0977C145.069 63.0977 144.509 62.9154 144.073 62.5508C143.637 62.1862 143.419 61.7012 143.419 61.0957H144.605C144.605 61.4082 144.71 61.6621 144.918 61.8574C145.13 62.0527 145.413 62.1504 145.768 62.1504C146.135 62.1504 146.425 62.0527 146.637 61.8574C146.848 61.6621 146.954 61.3789 146.954 61.0078C146.954 60.6335 146.843 60.3454 146.622 60.1436C146.401 59.9417 146.072 59.8408 145.636 59.8408H144.938V58.9033ZM150.064 61.75C150.286 61.75 150.457 61.8135 150.577 61.9404C150.698 62.0641 150.758 62.2204 150.758 62.4092C150.758 62.5947 150.698 62.7493 150.577 62.873C150.457 62.9935 150.286 63.0537 150.064 63.0537C149.853 63.0537 149.685 62.9935 149.562 62.873C149.438 62.7526 149.376 62.598 149.376 62.4092C149.376 62.2204 149.436 62.0641 149.557 61.9404C149.677 61.8135 149.846 61.75 150.064 61.75ZM156.52 57.7656C156.52 58.1139 156.43 58.4248 156.251 58.6982C156.072 58.9684 155.828 59.1816 155.519 59.3379C155.89 59.5104 156.174 59.7464 156.373 60.0459C156.575 60.3454 156.676 60.6839 156.676 61.0615C156.676 61.6865 156.464 62.1829 156.041 62.5508C155.618 62.9154 155.055 63.0977 154.352 63.0977C153.645 63.0977 153.079 62.9137 152.652 62.5459C152.229 62.1781 152.018 61.6833 152.018 61.0615C152.018 60.6807 152.118 60.3389 152.32 60.0361C152.522 59.7334 152.805 59.5007 153.17 59.3379C152.864 59.1816 152.621 58.9684 152.442 58.6982C152.267 58.4248 152.179 58.1139 152.179 57.7656C152.179 57.1602 152.374 56.68 152.765 56.3252C153.155 55.9704 153.683 55.793 154.347 55.793C155.014 55.793 155.543 55.9704 155.934 56.3252C156.324 56.68 156.52 57.1602 156.52 57.7656ZM155.489 61.0029C155.489 60.6514 155.383 60.3682 155.172 60.1533C154.964 59.9352 154.687 59.8262 154.342 59.8262C153.997 59.8262 153.72 59.9336 153.512 60.1484C153.307 60.3633 153.204 60.6481 153.204 61.0029C153.204 61.3512 153.305 61.6296 153.507 61.8379C153.712 62.0462 153.993 62.1504 154.352 62.1504C154.71 62.1504 154.988 62.0495 155.187 61.8477C155.388 61.6458 155.489 61.3643 155.489 61.0029ZM155.338 57.8096C155.338 57.5003 155.248 57.2464 155.069 57.0479C154.89 56.846 154.649 56.7451 154.347 56.7451C154.044 56.7451 153.805 56.8411 153.629 57.0332C153.453 57.222 153.365 57.4808 153.365 57.8096C153.365 58.1351 153.453 58.3939 153.629 58.5859C153.808 58.778 154.049 58.874 154.352 58.874C154.654 58.874 154.894 58.778 155.069 58.5859C155.248 58.3939 155.338 58.1351 155.338 57.8096ZM162.008 55.8906L164.059 61.3398L166.104 55.8906H167.701V63H166.471V60.6562L166.593 57.5215L164.493 63H163.609L161.515 57.5264L161.637 60.6562V63H160.406V55.8906H162.008ZM172.076 55.8906H173.307V60.876C173.307 61.5563 173.093 62.0967 172.667 62.4971C172.244 62.8975 171.684 63.0977 170.987 63.0977C170.245 63.0977 169.672 62.9105 169.269 62.5361C168.865 62.1618 168.663 61.641 168.663 60.9736H169.894C169.894 61.3512 169.986 61.6361 170.172 61.8281C170.361 62.0169 170.632 62.1113 170.987 62.1113C171.319 62.1113 171.583 62.0023 171.778 61.7842C171.977 61.5628 172.076 61.2585 172.076 60.8711V55.8906Z" fill="black"/>
<path d="M178.68 62.9297C178.68 63.5833 178.531 64.1055 178.234 64.4961C177.938 64.8841 177.539 65.0781 177.039 65.0781C176.576 65.0781 176.204 64.9258 175.926 64.6211V66.625H174.977V60.7734H175.852L175.891 61.2031C176.169 60.8646 176.548 60.6953 177.027 60.6953C177.543 60.6953 177.947 60.888 178.238 61.2734C178.533 61.6562 178.68 62.1888 178.68 62.8711V62.9297ZM177.734 62.8477C177.734 62.4258 177.65 62.0911 177.48 61.8438C177.314 61.5964 177.074 61.4727 176.762 61.4727C176.374 61.4727 176.095 61.6328 175.926 61.9531V63.8281C176.098 64.1562 176.379 64.3203 176.77 64.3203C177.072 64.3203 177.307 64.1992 177.477 63.957C177.648 63.7122 177.734 63.3424 177.734 62.8477Z" fill="black"/>
<path d="M293.095 257H291.913V251.292L290.17 251.888V250.887L292.943 249.866H293.095V257ZM296.381 255.75C296.602 255.75 296.773 255.813 296.894 255.94C297.014 256.064 297.074 256.22 297.074 256.409C297.074 256.595 297.014 256.749 296.894 256.873C296.773 256.993 296.602 257.054 296.381 257.054C296.169 257.054 296.002 256.993 295.878 256.873C295.754 256.753 295.692 256.598 295.692 256.409C295.692 256.22 295.753 256.064 295.873 255.94C295.993 255.813 296.163 255.75 296.381 255.75ZM302.836 251.766C302.836 252.114 302.746 252.425 302.567 252.698C302.388 252.968 302.144 253.182 301.835 253.338C302.206 253.51 302.491 253.746 302.689 254.046C302.891 254.345 302.992 254.684 302.992 255.062C302.992 255.687 302.781 256.183 302.357 256.551C301.934 256.915 301.371 257.098 300.668 257.098C299.962 257.098 299.395 256.914 298.969 256.546C298.546 256.178 298.334 255.683 298.334 255.062C298.334 254.681 298.435 254.339 298.637 254.036C298.839 253.733 299.122 253.501 299.486 253.338C299.18 253.182 298.938 252.968 298.759 252.698C298.583 252.425 298.495 252.114 298.495 251.766C298.495 251.16 298.69 250.68 299.081 250.325C299.472 249.97 299.999 249.793 300.663 249.793C301.33 249.793 301.859 249.97 302.25 250.325C302.641 250.68 302.836 251.16 302.836 251.766ZM301.806 255.003C301.806 254.651 301.7 254.368 301.488 254.153C301.28 253.935 301.003 253.826 300.658 253.826C300.313 253.826 300.036 253.934 299.828 254.148C299.623 254.363 299.521 254.648 299.521 255.003C299.521 255.351 299.621 255.63 299.823 255.838C300.028 256.046 300.31 256.15 300.668 256.15C301.026 256.15 301.304 256.049 301.503 255.848C301.705 255.646 301.806 255.364 301.806 255.003ZM301.654 251.81C301.654 251.5 301.565 251.246 301.386 251.048C301.207 250.846 300.966 250.745 300.663 250.745C300.36 250.745 300.121 250.841 299.945 251.033C299.77 251.222 299.682 251.481 299.682 251.81C299.682 252.135 299.77 252.394 299.945 252.586C300.124 252.778 300.365 252.874 300.668 252.874C300.971 252.874 301.21 252.778 301.386 252.586C301.565 252.394 301.654 252.135 301.654 251.81ZM307.733 249.856V250.838H307.587C306.923 250.848 306.392 251.03 305.995 251.385C305.598 251.74 305.362 252.243 305.287 252.894C305.668 252.493 306.155 252.293 306.747 252.293C307.375 252.293 307.87 252.514 308.231 252.957C308.596 253.4 308.778 253.971 308.778 254.671C308.778 255.394 308.565 255.979 308.139 256.429C307.715 256.875 307.159 257.098 306.469 257.098C305.759 257.098 305.183 256.836 304.74 256.312C304.301 255.787 304.081 255.101 304.081 254.251V253.846C304.081 252.599 304.384 251.622 304.989 250.916C305.598 250.21 306.472 249.856 307.611 249.856H307.733ZM306.459 253.25C306.199 253.25 305.959 253.323 305.741 253.47C305.526 253.616 305.368 253.812 305.268 254.056V254.417C305.268 254.944 305.378 255.364 305.6 255.677C305.821 255.986 306.107 256.141 306.459 256.141C306.811 256.141 307.089 256.009 307.294 255.745C307.499 255.481 307.602 255.135 307.602 254.705C307.602 254.275 307.497 253.925 307.289 253.655C307.081 253.385 306.804 253.25 306.459 253.25ZM314.008 249.891L316.059 255.34L318.104 249.891H319.701V257H318.471V254.656L318.593 251.521L316.493 257H315.609L313.515 251.526L313.637 254.656V257H312.406V249.891H314.008ZM324.076 249.891H325.307V254.876C325.307 255.556 325.093 256.097 324.667 256.497C324.244 256.897 323.684 257.098 322.987 257.098C322.245 257.098 321.672 256.91 321.269 256.536C320.865 256.162 320.663 255.641 320.663 254.974H321.894C321.894 255.351 321.986 255.636 322.172 255.828C322.361 256.017 322.632 256.111 322.987 256.111C323.319 256.111 323.583 256.002 323.778 255.784C323.977 255.563 324.076 255.258 324.076 254.871V249.891Z" fill="black"/>
<path d="M330.68 256.93C330.68 257.583 330.531 258.105 330.234 258.496C329.938 258.884 329.539 259.078 329.039 259.078C328.576 259.078 328.204 258.926 327.926 258.621V260.625H326.977V254.773H327.852L327.891 255.203C328.169 254.865 328.548 254.695 329.027 254.695C329.543 254.695 329.947 254.888 330.238 255.273C330.533 255.656 330.68 256.189 330.68 256.871V256.93ZM329.734 256.848C329.734 256.426 329.65 256.091 329.48 255.844C329.314 255.596 329.074 255.473 328.762 255.473C328.374 255.473 328.095 255.633 327.926 255.953V257.828C328.098 258.156 328.379 258.32 328.77 258.32C329.072 258.32 329.307 258.199 329.477 257.957C329.648 257.712 329.734 257.342 329.734 256.848Z" fill="black"/>
</svg>
