<svg width="700" height="172" viewBox="0 0 700 172" fill="none" xmlns="http://www.w3.org/2000/svg">
<rect width="700" height="172"/>
<path d="M134.183 29.3248C135.563 30.2008 137.177 30.7046 139.365 30.7046C142.261 30.7046 144.65 29.2239 144.65 25.8927C144.65 21.2801 133.879 20.7083 133.879 14.5496C133.879 10.7802 137.177 8.42358 141.319 8.42358C142.462 8.42358 144.313 8.59208 145.93 9.19677L145.559 11.3189C144.517 10.7452 142.865 10.443 141.284 10.443C138.862 10.443 136.203 11.4527 136.203 14.4817C136.203 19.195 146.972 19.2279 146.972 26.0942C146.972 30.8403 142.9 32.724 139.264 32.724C136.976 32.724 135.193 32.2531 133.947 31.7143L134.183 29.3248Z" fill="black"/>
<path d="M165.214 17.4429C164.071 16.9391 162.691 16.5688 161.546 16.5688C157.406 16.5688 155.082 19.565 155.082 23.7375C155.082 27.6427 157.439 30.9083 161.309 30.9083C162.656 30.9083 163.902 30.6039 165.182 30.133L165.383 32.1195C163.935 32.6232 162.588 32.724 160.974 32.724C155.452 32.724 152.76 28.5166 152.76 23.7375C152.76 18.4525 156.16 14.7511 161.243 14.7511C163.295 14.7511 164.776 15.222 165.383 15.4235L165.214 17.4429Z" fill="black"/>
<path d="M171.61 7.07657H173.73V18.0495H173.798C174.706 16.166 176.625 14.7511 179.148 14.7511C183.761 14.7511 185.005 17.8152 185.005 22.0555V32.321H182.885V22.0882C182.885 19.1271 182.313 16.5688 178.813 16.5688C175.044 16.5688 173.73 20.1367 173.73 23.1329V32.321H171.61V7.07657Z" fill="black"/>
<path d="M210.587 32.321H208.029L203.35 17.4779H203.282L198.604 32.321H196.046L190.526 15.154H192.848L197.358 29.9992H197.426L202.205 15.154H204.763L209.308 29.9992H209.373L214.119 15.154H216.24L210.587 32.321Z" fill="black"/>
<path d="M232.228 22.5264C232.228 19.5302 231.017 16.5688 227.854 16.5688C224.722 16.5688 222.804 19.6988 222.804 22.5264H232.228ZM233.273 31.7822C231.792 32.3889 229.873 32.724 228.29 32.724C222.602 32.724 220.482 28.8868 220.482 23.7375C220.482 18.4876 223.377 14.7511 227.718 14.7511C232.565 14.7511 234.552 18.6563 234.552 23.2667V24.3442H222.804C222.804 27.98 224.757 30.9083 228.459 30.9083C230.007 30.9083 232.263 30.2686 233.273 29.6292V31.7822Z" fill="black"/>
<path d="M241.215 15.1541H243.335V32.321H241.215V15.1541ZM243.335 10.5765H241.215V7.75104H243.335V10.5765Z" fill="black"/>
<path d="M249.732 30.538L260.066 16.972H250.135V15.154H262.521V16.972L252.19 30.5031H262.521V32.321H249.732V30.538Z" fill="black"/>
<path d="M279.348 22.5264C279.348 19.5302 278.137 16.5688 274.975 16.5688C271.843 16.5688 269.924 19.6988 269.924 22.5264H279.348ZM280.393 31.7822C278.912 32.3889 276.994 32.724 275.411 32.724C269.722 32.724 267.602 28.8868 267.602 23.7375C267.602 18.4876 270.498 14.7511 274.839 14.7511C279.686 14.7511 281.672 18.6563 281.672 23.2667V24.3442H269.924C269.924 27.98 271.878 30.9083 275.579 30.9083C277.128 30.9083 279.383 30.2686 280.393 29.6292V31.7822Z" fill="black"/>
<path d="M288.337 18.9914C288.337 17.1078 288.337 16.4003 288.203 15.1541H290.324V18.4525H290.389C291.165 16.5362 292.612 14.7511 294.8 14.7511C295.304 14.7511 295.911 14.8518 296.281 14.9525V17.1757C295.843 17.0399 295.271 16.972 294.732 16.972C291.366 16.972 290.457 20.7436 290.457 23.8383V32.321H288.337V18.9914Z" fill="black"/>
<path d="M302.17 15.1541H304.29V32.321H302.17V15.1541ZM304.29 10.5765H302.17V7.75104H304.29V10.5765Z" fill="black"/>
<path d="M310.955 29.8307C312.234 30.4702 313.783 30.9083 315.432 30.9083C317.451 30.9083 319.234 29.7956 319.234 27.8441C319.234 23.7726 310.988 24.4122 310.988 19.4294C310.988 16.0301 313.748 14.7511 316.575 14.7511C317.485 14.7511 319.302 14.9525 320.815 15.5264L320.614 17.3772C319.504 16.8712 317.99 16.5688 316.812 16.5688C314.624 16.5688 313.108 17.2413 313.108 19.4294C313.108 22.6271 321.556 22.2241 321.556 27.8441C321.556 31.4799 318.157 32.724 315.566 32.724C313.916 32.724 312.267 32.5223 310.754 31.918L310.955 29.8307Z" fill="black"/>
<path d="M339.159 17.4429C338.015 16.9391 336.636 16.5688 335.49 16.5688C331.351 16.5688 329.027 19.565 329.027 23.7375C329.027 27.6427 331.383 30.9083 335.254 30.9083C336.601 30.9083 337.847 30.6039 339.126 30.133L339.327 32.1195C337.879 32.6232 336.532 32.724 334.919 32.724C329.397 32.724 326.705 28.5166 326.705 23.7375C326.705 18.4525 330.104 14.7511 335.188 14.7511C337.24 14.7511 338.72 15.222 339.327 15.4235L339.159 17.4429Z" fill="black"/>
<path d="M345.554 7.07657H347.674V18.0495H347.742C348.651 16.166 350.57 14.7511 353.093 14.7511C357.706 14.7511 358.949 17.8152 358.949 22.0555V32.321H356.829V22.0882C356.829 19.1271 356.258 16.5688 352.758 16.5688C348.988 16.5688 347.674 20.1367 347.674 23.1329V32.321H345.554V7.07657Z" fill="black"/>
<path d="M377.36 22.5264C377.36 19.5302 376.149 16.5688 372.986 16.5688C369.855 16.5688 367.936 19.6988 367.936 22.5264H377.36ZM378.405 31.7822C376.924 32.3889 375.006 32.724 373.422 32.724C367.734 32.724 365.614 28.8868 365.614 23.7375C365.614 18.4876 368.51 14.7511 372.851 14.7511C377.698 14.7511 379.684 18.6563 379.684 23.2667V24.3442H367.936C367.936 27.98 369.89 30.9083 373.591 30.9083C375.14 30.9083 377.395 30.2686 378.405 29.6292V31.7822Z" fill="black"/>
<path d="M397.556 8.8266H409.066V10.8458H399.878V19.2279H408.595V21.2472H399.878V30.3016H409.471V32.321H397.556V8.8266Z" fill="black"/>
<path d="M416.776 15.1541H418.896V32.321H416.776V15.1541ZM418.896 10.5765H416.776V7.75104H418.896V10.5765Z" fill="black"/>
<path d="M433.268 30.9083C437.037 30.9083 438.349 26.8673 438.349 23.7375C438.349 20.6077 437.037 16.5688 433.268 16.5688C429.229 16.5688 428.184 20.4061 428.184 23.7375C428.184 27.0711 429.229 30.9083 433.268 30.9083ZM440.471 32.321H438.349V29.5942H438.283C437.138 31.7822 435.388 32.724 432.931 32.724C428.219 32.724 425.863 28.821 425.863 23.7375C425.863 18.5203 427.882 14.7511 432.931 14.7511C436.297 14.7511 437.979 17.2085 438.283 18.0495H438.349V7.07657H440.471V32.321Z" fill="black"/>
<path d="M454.474 30.5031C458.309 30.5031 459.69 26.8674 459.69 23.7375C459.69 19.598 458.479 16.5688 454.608 16.5688C450.571 16.5688 449.526 20.4061 449.526 23.7375C449.526 27.1039 450.872 30.5031 454.474 30.5031ZM461.812 30.9083C461.812 35.6874 459.659 39.5903 453.77 39.5903C451.513 39.5903 449.459 38.9508 448.584 38.6814L448.75 36.5612C450.064 37.2358 451.948 37.7746 453.801 37.7746C459.255 37.7746 459.726 33.8016 459.726 28.9545H459.659C458.515 31.4449 456.627 32.321 454.442 32.321C448.952 32.321 447.202 27.5418 447.202 23.7375C447.202 18.5203 449.221 14.7511 454.272 14.7511C456.56 14.7511 458.04 15.0534 459.623 17.1078H459.69V15.1541H461.812V30.9083Z" fill="black"/>
<path d="M480.019 22.5264C480.019 19.5302 478.808 16.5688 475.646 16.5688C472.515 16.5688 470.595 19.6988 470.595 22.5264H480.019ZM481.064 31.7822C479.584 32.3889 477.664 32.724 476.081 32.724C470.393 32.724 468.276 28.8868 468.276 23.7375C468.276 18.4876 471.169 14.7511 475.511 14.7511C480.355 14.7511 482.342 18.6563 482.342 23.2667V24.3442H470.595C470.595 27.98 472.55 30.9083 476.251 30.9083C477.799 30.9083 480.055 30.2686 481.064 29.6292V31.7822Z" fill="black"/>
<path d="M489.008 19.195C489.008 17.8809 489.008 16.5362 488.874 15.1541H490.928V18.2182H490.995C491.699 16.6697 492.978 14.7511 496.548 14.7511C500.792 14.7511 502.402 17.5787 502.402 21.348V32.321H500.285V21.8868C500.285 18.6563 499.141 16.5688 496.212 16.5688C492.341 16.5688 491.13 19.9682 491.13 22.8286V32.321H489.008V19.195Z" fill="black"/>
<path d="M517.047 30.9083C520.748 30.9083 522.735 27.7106 522.735 23.7375C522.735 19.7667 520.748 16.5688 517.047 16.5688C513.342 16.5688 511.355 19.7667 511.355 23.7375C511.355 27.7106 513.342 30.9083 517.047 30.9083ZM517.047 14.7511C522.6 14.7511 525.058 19.0593 525.058 23.7375C525.058 28.4158 522.6 32.724 517.047 32.724C511.494 32.724 509.036 28.4158 509.036 23.7375C509.036 19.0593 511.494 14.7511 517.047 14.7511Z" fill="black"/>
<path d="M530.374 29.8307C531.652 30.4702 533.204 30.9083 534.851 30.9083C536.869 30.9083 538.654 29.7956 538.654 27.8441C538.654 23.7726 530.41 24.4122 530.41 19.4294C530.41 16.0301 533.168 14.7511 535.994 14.7511C536.905 14.7511 538.721 14.9525 540.233 15.5264L540.036 17.3772C538.923 16.8712 537.412 16.5688 536.232 16.5688C534.043 16.5688 532.527 17.2413 532.527 19.4294C532.527 22.6271 540.978 22.2241 540.978 27.8441C540.978 31.4799 537.578 32.724 534.985 32.724C533.334 32.724 531.688 32.5223 530.172 31.918L530.374 29.8307Z" fill="black"/>
<path d="M546.091 29.8307C547.37 30.4702 548.922 30.9083 550.568 30.9083C552.586 30.9083 554.372 29.7956 554.372 27.8441C554.372 23.7726 546.123 24.4122 546.123 19.4294C546.123 16.0301 548.886 14.7511 551.712 14.7511C552.622 14.7511 554.439 14.9525 555.95 15.5264L555.749 17.3772C554.641 16.8712 553.129 16.5688 551.949 16.5688C549.76 16.5688 548.244 17.2413 548.244 19.4294C548.244 22.6271 556.695 22.2241 556.695 27.8441C556.695 31.4799 553.295 32.724 550.702 32.724C549.052 32.724 547.406 32.5223 545.889 31.918L546.091 29.8307Z" fill="black"/>
<path d="M573.592 22.5264C573.592 19.5302 572.377 16.5688 569.214 16.5688C566.083 16.5688 564.164 19.6988 564.164 22.5264H573.592ZM574.633 31.7822C573.153 32.3889 571.237 32.724 569.654 32.724C563.966 32.724 561.844 28.8868 561.844 23.7375C561.844 18.4876 564.738 14.7511 569.08 14.7511C573.929 14.7511 575.916 18.6563 575.916 23.2667V24.3442H564.164C564.164 27.98 566.119 30.9083 569.82 30.9083C571.367 30.9083 573.624 30.2686 574.633 29.6292V31.7822Z" fill="black"/>
<path d="M582.577 19.195C582.577 17.8809 582.577 16.5362 582.442 15.1541H584.496V18.2182H584.564C585.268 16.6697 586.546 14.7511 590.117 14.7511C594.356 14.7511 595.971 17.5787 595.971 21.348V32.321H593.853V21.8868C593.853 18.6563 592.71 16.5688 589.781 16.5688C585.91 16.5688 584.698 19.9682 584.698 22.8286V32.321H582.577V19.195Z" fill="black"/>
<path d="M602.605 29.8307C603.883 30.4702 605.431 30.9083 607.081 30.9083C609.1 30.9083 610.881 29.7956 610.881 27.8441C610.881 23.7726 602.636 24.4122 602.636 19.4294C602.636 16.0301 605.395 14.7511 608.225 14.7511C609.131 14.7511 610.952 14.9525 612.464 15.5264L612.262 17.3772C611.154 16.8712 609.638 16.5688 608.458 16.5688C606.274 16.5688 604.758 17.2413 604.758 19.4294C604.758 22.6271 613.209 22.2241 613.209 27.8441C613.209 31.4799 609.804 32.724 607.216 32.724C605.565 32.724 603.915 32.5223 602.398 31.918L602.605 29.8307Z" fill="black"/>
<path d="M630.81 17.4429C629.666 16.9391 628.285 16.5688 627.141 16.5688C623.001 16.5688 620.677 19.565 620.677 23.7375C620.677 27.6427 623.032 30.9083 626.903 30.9083C628.253 30.9083 629.496 30.6039 630.779 30.133L630.976 32.1195C629.532 32.6232 628.182 32.724 626.571 32.724C621.05 32.724 618.354 28.5166 618.354 23.7375C618.354 18.4525 621.754 14.7511 626.84 14.7511C628.89 14.7511 630.371 15.222 630.976 15.4235L630.81 17.4429Z" fill="black"/>
<path d="M637.206 7.07657H639.323V18.0495H639.391C640.301 16.166 642.221 14.7511 644.742 14.7511C649.353 14.7511 650.6 17.8152 650.6 22.0555V32.321H648.483V22.0882C648.483 19.1271 647.909 16.5688 644.41 16.5688C640.638 16.5688 639.323 20.1367 639.323 23.1329V32.321H637.206V7.07657Z" fill="black"/>
<path d="M668.201 23.6696H667.6C663.927 23.6696 659.558 24.042 659.558 27.8112C659.558 30.0649 661.168 30.9083 663.119 30.9083C668.103 30.9083 668.201 26.5651 668.201 24.7144V23.6696ZM668.403 29.5614H668.341C667.399 31.6136 665.003 32.724 662.886 32.724C658.006 32.724 657.23 29.4255 657.23 27.8771C657.23 22.1233 663.357 21.854 667.798 21.854H668.201V20.9777C668.201 18.0495 667.161 16.5688 664.299 16.5688C662.518 16.5688 660.836 16.972 659.248 17.9815V15.9294C660.563 15.2899 662.783 14.7511 664.299 14.7511C668.538 14.7511 670.323 16.6697 670.323 21.1465V28.7203C670.323 30.1001 670.323 31.1427 670.494 32.321H668.403V29.5614Z" fill="black"/>
<path d="M679.442 16.972H675.979V15.1541H679.442V13.91C679.442 10.3093 679.577 6.67358 683.991 6.67358C684.659 6.67358 685.57 6.77436 685.973 7.01086L685.839 8.86147C685.399 8.62507 684.762 8.49147 684.157 8.49147C681.259 8.49147 681.564 11.6213 681.564 13.6735V15.1541H685.435V16.972H681.564V32.321H679.442V16.972Z" fill="black"/>
<path d="M699.233 16.972H695.33V28.0808C695.33 29.6292 695.904 30.9083 697.622 30.9083C698.43 30.9083 698.968 30.7397 699.569 30.5031L699.708 32.2531C699.201 32.4546 698.161 32.724 697.116 32.724C693.348 32.724 693.209 30.133 693.209 27.003V16.972H689.844V15.1541H693.209V11.0146L695.33 10.2742V15.1541H699.233V16.972Z" fill="black"/>
<path d="M150.676 57.8788C149.195 57.1055 147.073 56.8691 145.424 56.8691C139.333 56.8691 135.898 61.177 135.898 67.0011C135.898 72.9234 139.232 77.1308 145.424 77.1308C146.972 77.1308 149.329 76.929 150.676 76.1211L150.809 78.1406C149.53 78.9157 146.906 79.1501 145.424 79.1501C138.018 79.1501 133.577 74.2703 133.577 67.0011C133.577 59.8651 138.154 54.8497 145.424 54.8497C146.803 54.8497 149.598 55.0862 150.809 55.7258L150.676 57.8788Z" fill="black"/>
<path d="M165.249 77.3345C168.953 77.3345 170.937 74.1368 170.937 70.1635C170.937 66.1929 168.953 62.9952 165.249 62.9952C161.548 62.9952 159.561 66.1929 159.561 70.1635C159.561 74.1368 161.548 77.3345 165.249 77.3345ZM165.249 61.1771C170.804 61.1771 173.261 65.4855 173.261 70.1635C173.261 74.8419 170.804 79.1502 165.249 79.1502C159.697 79.1502 157.239 74.8419 157.239 70.1635C157.239 65.4855 159.697 61.1771 165.249 61.1771Z" fill="black"/>
<path d="M179.891 65.621C179.891 64.3071 179.891 62.9623 179.757 61.5803H181.809V64.6444H181.877C182.583 63.096 183.862 61.1771 187.43 61.1771C191.672 61.1771 193.286 64.0049 193.286 67.774V78.7471H191.166V68.3127C191.166 65.0823 190.023 62.9952 187.094 62.9952C183.222 62.9952 182.011 66.3942 182.011 69.2548V78.7471H179.891V65.621Z" fill="black"/>
<path d="M202.678 63.3979H199.211V61.5803H202.678V60.3359C202.678 56.7354 202.811 53.0995 207.22 53.0995C207.895 53.0995 208.804 53.2004 209.207 53.4346L209.073 55.2875C208.635 55.0511 207.996 54.9175 207.389 54.9175C204.496 54.9175 204.798 58.0474 204.798 60.0996V61.5803H208.668V63.3979H204.798V78.7471H202.678V63.3979Z" fill="black"/>
<path d="M221.998 54.9502H224.656L220.416 59.7973H218.868L221.998 54.9502ZM225.531 68.9524C225.531 65.9564 224.319 62.9952 221.157 62.9952C218.025 62.9952 216.106 66.1251 216.106 68.9524H225.531ZM226.575 78.2082C225.095 78.8148 223.176 79.1502 221.592 79.1502C215.905 79.1502 213.784 75.3129 213.784 70.1635C213.784 64.9135 216.68 61.1771 221.021 61.1771C225.868 61.1771 227.854 65.0823 227.854 69.6928V70.7703H216.106C216.106 74.4059 218.059 77.3345 221.761 77.3345C223.309 77.3345 225.566 76.6949 226.575 76.0553V78.2082Z" fill="black"/>
<path d="M240.913 77.3345C244.682 77.3345 245.994 73.2934 245.994 70.1635C245.994 67.0339 244.682 62.9952 240.913 62.9952C236.874 62.9952 235.829 66.8326 235.829 70.1635C235.829 73.4972 236.874 77.3345 240.913 77.3345ZM248.116 78.7471H245.994V76.0203H245.928C244.782 78.2082 243.033 79.1502 240.575 79.1502C235.864 79.1502 233.507 75.2469 233.507 70.1635C233.507 64.9468 235.527 61.1771 240.575 61.1771C243.942 61.1771 245.624 63.6347 245.928 64.4758H245.994V53.5028H248.116V78.7471Z" fill="black"/>
<path d="M262.79 54.9502H265.449L261.207 59.7973H259.66L262.79 54.9502ZM266.323 68.9524C266.323 65.9564 265.112 62.9952 261.949 62.9952C258.817 62.9952 256.899 66.1251 256.899 68.9524H266.323ZM267.368 78.2082C265.887 78.8148 263.969 79.1502 262.385 79.1502C256.697 79.1502 254.577 75.3129 254.577 70.1635C254.577 64.9135 257.473 61.1771 261.813 61.1771C266.66 61.1771 268.647 65.0823 268.647 69.6928V70.7703H256.899C256.899 74.4059 258.853 77.3345 262.554 77.3345C264.102 77.3345 266.358 76.6949 267.368 76.0553V78.2082Z" fill="black"/>
<path d="M275.312 65.4174C275.312 63.5338 275.312 62.8264 275.178 61.5803H277.298V64.8808H277.364C278.139 62.9623 279.587 61.1771 281.775 61.1771C282.279 61.1771 282.886 61.278 283.256 61.3785V63.6014C282.817 63.4661 282.246 63.3979 281.707 63.3979C278.341 63.3979 277.432 67.1676 277.432 70.2643V78.7471H275.312V65.4174Z" fill="black"/>
<path d="M298.806 70.0981H298.199C294.531 70.0981 290.155 70.4681 290.155 74.2373C290.155 76.4913 291.771 77.3345 293.723 77.3345C298.703 77.3345 298.806 72.9912 298.806 71.1405V70.0981ZM299.008 75.9875H298.94C297.998 78.0397 295.608 79.1502 293.486 79.1502C288.606 79.1502 287.833 75.8516 287.833 74.3032C287.833 68.5495 293.959 68.2799 298.401 68.2799H298.806V67.404C298.806 64.4758 297.761 62.9952 294.901 62.9952C293.116 62.9952 291.434 63.3979 289.853 64.4076V62.3555C291.165 61.7158 293.385 61.1771 294.901 61.1771C299.141 61.1771 300.926 63.096 300.926 67.5727V75.1464C300.926 76.5262 300.926 77.5687 301.095 78.7471H299.008V75.9875Z" fill="black"/>
<path d="M316.004 63.3978H312.099V74.5068C312.099 76.0552 312.673 77.3345 314.387 77.3345C315.196 77.3345 315.734 77.1658 316.341 76.929L316.475 78.6792C315.971 78.8807 314.926 79.1501 313.884 79.1501C310.114 79.1501 309.978 76.5589 309.978 73.4293V63.3978H306.612V61.5803H309.978V57.4406L312.099 56.7005V61.5803H316.004V63.3978Z" fill="black"/>
<path d="M322.432 61.5803H324.552V78.7471H322.432V61.5803ZM324.552 57.0028H322.432V54.1774H324.552V57.0028Z" fill="black"/>
<path d="M339.226 77.3345C342.93 77.3345 344.915 74.1368 344.915 70.1635C344.915 66.1929 342.93 62.9952 339.226 62.9952C335.525 62.9952 333.539 66.1929 333.539 70.1635C333.539 74.1368 335.525 77.3345 339.226 77.3345ZM339.226 61.1771C344.781 61.1771 347.239 65.4855 347.239 70.1635C347.239 74.8419 344.781 79.1502 339.226 79.1502C333.674 79.1502 331.217 74.8419 331.217 70.1635C331.217 65.4855 333.674 61.1771 339.226 61.1771Z" fill="black"/>
<path d="M353.868 65.621C353.868 64.3071 353.868 62.9623 353.735 61.5803H355.787V64.6444H355.855C356.56 63.096 357.839 61.1771 361.407 61.1771C365.649 61.1771 367.264 64.0049 367.264 67.774V78.7471H365.144V68.3127C365.144 65.0823 364 62.9952 361.072 62.9952C357.2 62.9952 355.988 66.3942 355.988 69.2548V78.7471H353.868V65.621Z" fill="black"/>
<path d="M385.543 76.2566C386.822 76.8963 388.371 77.3345 390.02 77.3345C392.039 77.3345 393.822 76.2216 393.822 74.2704C393.822 70.1989 385.576 70.8382 385.576 65.8554C385.576 62.4564 388.336 61.1771 391.163 61.1771C392.072 61.1771 393.89 61.3785 395.403 61.9504L395.202 63.8034C394.091 63.2974 392.578 62.9952 391.4 62.9952C389.212 62.9952 387.696 63.6675 387.696 65.8554C387.696 69.0533 396.146 68.65 396.146 74.2704C396.146 77.906 392.744 79.1502 390.153 79.1502C388.504 79.1502 386.855 78.9484 385.339 78.3442L385.543 76.2566Z" fill="black"/>
<path d="M415.967 74.7083C415.967 76.0202 415.967 77.3672 416.103 78.7471H414.049V75.6851H413.983C413.275 77.2314 411.997 79.1502 408.429 79.1502C404.188 79.1502 402.572 76.3225 402.572 72.5533V61.5803H404.692V72.0142C404.692 75.2469 405.838 77.3345 408.766 77.3345C412.636 77.3345 413.847 73.9331 413.847 71.0726V61.5803H415.967V74.7083Z" fill="black"/>
<path d="M423.911 61.5803H426.031V78.7471H423.911V61.5803ZM426.031 57.0028H423.911V54.1774H426.031V57.0028Z" fill="black"/>
<path d="M432.696 76.2566C433.975 76.8963 435.524 77.3345 437.173 77.3345C439.192 77.3345 440.975 76.2216 440.975 74.2704C440.975 70.1989 432.729 70.8382 432.729 65.8554C432.729 62.4564 435.489 61.1771 438.316 61.1771C439.225 61.1771 441.043 61.3785 442.557 61.9504L442.355 63.8034C441.245 63.2974 439.731 62.9952 438.553 62.9952C436.365 62.9952 434.849 63.6675 434.849 65.8554C434.849 69.0533 443.297 68.65 443.297 74.2704C443.297 77.906 439.898 79.1502 437.307 79.1502C435.657 79.1502 434.008 78.9484 432.495 78.3442L432.696 76.2566Z" fill="black"/>
<path d="M448.415 76.2566C449.697 76.8963 451.244 77.3345 452.895 77.3345C454.913 77.3345 456.694 76.2216 456.694 74.2704C456.694 70.1989 448.448 70.8382 448.448 65.8554C448.448 62.4564 451.208 61.1771 454.039 61.1771C454.945 61.1771 456.766 61.3785 458.278 61.9504L458.076 63.8034C456.968 63.2974 455.452 62.9952 454.272 62.9952C452.088 62.9952 450.571 63.6675 450.571 65.8554C450.571 69.0533 459.022 68.65 459.022 74.2704C459.022 77.906 455.618 79.1502 453.029 79.1502C451.379 79.1502 449.728 78.9484 448.212 78.3442L448.415 76.2566Z" fill="black"/>
<path d="M475.915 68.9524C475.915 65.9564 474.704 62.9952 471.541 62.9952C468.406 62.9952 466.491 66.1251 466.491 68.9524H475.915ZM476.96 78.2082C475.475 78.8148 473.56 79.1502 471.976 79.1502C466.289 79.1502 464.167 75.3129 464.167 70.1635C464.167 64.9135 467.065 61.1771 471.402 61.1771C476.251 61.1771 478.238 65.0823 478.238 69.6928V70.7703H466.491C466.491 74.4059 468.442 77.3345 472.142 77.3345C473.694 77.3345 475.946 76.695 476.96 76.0553V78.2082Z" fill="black"/>
<path d="M150.676 104.305C149.195 103.532 147.073 103.295 145.424 103.295C139.333 103.295 135.898 107.603 135.898 113.427C135.898 119.35 139.232 123.557 145.424 123.557C146.972 123.557 149.329 123.355 150.676 122.547L150.809 124.567C149.53 125.342 146.906 125.576 145.424 125.576C138.018 125.576 133.577 120.696 133.577 113.427C133.577 106.291 138.154 101.276 145.424 101.276C146.803 101.276 149.598 101.51 150.809 102.149L150.676 104.305Z" fill="black"/>
<path d="M165.249 123.76C168.953 123.76 170.937 120.563 170.937 116.589C170.937 112.619 168.953 109.421 165.249 109.421C161.548 109.421 159.561 112.619 159.561 116.589C159.561 120.563 161.548 123.76 165.249 123.76ZM165.249 107.603C170.804 107.603 173.261 111.911 173.261 116.589C173.261 121.268 170.804 125.576 165.249 125.576C159.697 125.576 157.239 121.268 157.239 116.589C157.239 111.911 159.697 107.603 165.249 107.603Z" fill="black"/>
<path d="M179.891 112.047C179.891 110.733 179.891 109.388 179.757 108.006H181.809V111.07H181.877C182.583 109.522 183.862 107.603 187.43 107.603C191.672 107.603 193.286 110.431 193.286 114.2V125.173H191.166V114.739C191.166 111.508 190.023 109.421 187.094 109.421C183.222 109.421 182.011 112.82 182.011 115.681V125.173H179.891V112.047Z" fill="black"/>
<path d="M202.678 109.824H199.211V108.006H202.678V106.762C202.678 103.161 202.811 99.5255 207.22 99.5255C207.895 99.5255 208.804 99.6263 209.207 99.8628L209.073 101.714C208.635 101.477 207.996 101.343 207.389 101.343C204.496 101.343 204.798 104.473 204.798 106.526V108.006H208.668V109.824H204.798V125.173H202.678V109.824Z" fill="black"/>
<path d="M225.531 115.378C225.531 112.382 224.319 109.421 221.157 109.421C218.025 109.421 216.106 112.551 216.106 115.378H225.531ZM226.575 124.634C225.095 125.241 223.176 125.576 221.592 125.576C215.905 125.576 213.784 121.739 213.784 116.589C213.784 111.34 216.68 107.603 221.021 107.603C225.868 107.603 227.854 111.508 227.854 116.119V117.196H216.106C216.106 120.832 218.059 123.76 221.761 123.76C223.309 123.76 225.566 123.121 226.575 122.481V124.634Z" fill="black"/>
<path d="M240.913 123.76C244.682 123.76 245.994 119.719 245.994 116.589C245.994 113.46 244.682 109.421 240.913 109.421C236.874 109.421 235.829 113.258 235.829 116.589C235.829 119.923 236.874 123.76 240.913 123.76ZM248.116 125.173H245.994V122.446H245.928C244.782 124.634 243.033 125.576 240.575 125.576C235.864 125.576 233.507 121.673 233.507 116.589C233.507 111.373 235.527 107.603 240.575 107.603C243.942 107.603 245.624 110.061 245.928 110.902H245.994V99.9287H248.116V125.173Z" fill="black"/>
<path d="M266.323 115.378C266.323 112.382 265.112 109.421 261.949 109.421C258.817 109.421 256.899 112.551 256.899 115.378H266.323ZM267.368 124.634C265.887 125.241 263.969 125.576 262.385 125.576C256.697 125.576 254.577 121.739 254.577 116.589C254.577 111.34 257.473 107.603 261.813 107.603C266.66 107.603 268.647 111.508 268.647 116.119V117.196H256.899C256.899 120.832 258.853 123.76 262.554 123.76C264.102 123.76 266.358 123.121 267.368 122.481V124.634Z" fill="black"/>
<path d="M275.312 111.843C275.312 109.96 275.312 109.252 275.178 108.006H277.298V111.305H277.364C278.139 109.388 279.587 107.603 281.775 107.603C282.279 107.603 282.886 107.704 283.256 107.804V110.028C282.817 109.892 282.246 109.824 281.707 109.824C278.341 109.824 277.432 113.596 277.432 116.69V125.173H275.312V111.843Z" fill="black"/>
<path d="M298.806 116.522H298.199C294.531 116.522 290.155 116.894 290.155 120.663C290.155 122.917 291.771 123.76 293.723 123.76C298.703 123.76 298.806 119.417 298.806 117.566V116.522ZM299.008 122.413H298.94C297.998 124.466 295.608 125.576 293.486 125.576C288.606 125.576 287.833 122.278 287.833 120.729C287.833 114.975 293.959 114.706 298.401 114.706H298.806V113.83C298.806 110.902 297.761 109.421 294.901 109.421C293.116 109.421 291.434 109.824 289.853 110.834V108.781C291.165 108.142 293.385 107.603 294.901 107.603C299.141 107.603 300.926 109.522 300.926 113.998V121.572C300.926 122.952 300.926 123.995 301.095 125.173H299.008V122.413Z" fill="black"/>
<path d="M307.018 123.39L317.351 109.824H307.42V108.006H319.806V109.824L309.475 123.355H319.806V125.173H307.018V123.39Z" fill="black"/>
<path d="M326.168 108.006H328.289V125.173H326.168V108.006ZM328.289 103.429H326.168V100.603H328.289V103.429Z" fill="black"/>
<path d="M342.963 123.76C346.667 123.76 348.651 120.563 348.651 116.589C348.651 112.619 346.667 109.421 342.963 109.421C339.261 109.421 337.275 112.619 337.275 116.589C337.275 120.563 339.261 123.76 342.963 123.76ZM342.963 107.603C348.517 107.603 350.975 111.911 350.975 116.589C350.975 121.268 348.517 125.576 342.963 125.576C337.411 125.576 334.953 121.268 334.953 116.589C334.953 111.911 337.411 107.603 342.963 107.603Z" fill="black"/>
<path d="M357.605 112.047C357.605 110.733 357.605 109.388 357.471 108.006H359.523V111.07H359.591C360.296 109.522 361.575 107.603 365.144 107.603C369.386 107.603 371 110.431 371 114.2V125.173H368.88V114.739C368.88 111.508 367.737 109.421 364.808 109.421C360.936 109.421 359.725 112.82 359.725 115.681V125.173H357.605V112.047Z" fill="black"/>
<path d="M389.411 115.378C389.411 112.382 388.2 109.421 385.037 109.421C381.905 109.421 379.986 112.551 379.986 115.378H389.411ZM390.455 124.634C388.975 125.241 387.056 125.576 385.473 125.576C379.785 125.576 377.665 121.739 377.665 116.589C377.665 111.34 380.56 107.603 384.901 107.603C389.748 107.603 391.735 111.508 391.735 116.119V117.196H379.986C379.986 120.832 381.94 123.76 385.642 123.76C387.19 123.76 389.446 123.121 390.455 122.481V124.634Z" fill="black"/>
<path d="M409.642 122.177C411.022 123.053 412.636 123.557 414.824 123.557C417.719 123.557 420.109 122.076 420.109 118.745C420.109 114.132 409.337 113.56 409.337 107.402C409.337 103.632 412.636 101.276 416.778 101.276C417.921 101.276 419.772 101.444 421.388 102.049L421.018 104.171C419.975 103.598 418.324 103.295 416.743 103.295C414.32 103.295 411.661 104.305 411.661 107.334C411.661 112.047 422.43 112.08 422.43 118.946C422.43 123.692 418.359 125.576 414.723 125.576C412.434 125.576 410.652 125.105 409.405 124.567L409.642 122.177Z" fill="black"/>
<path d="M435.456 125.173H432.966L427.142 108.006H429.466L434.212 122.851H434.278L439.26 108.006H441.481L435.456 125.173Z" fill="black"/>
<path d="M447.068 108.006H449.19V125.173H447.068V108.006ZM449.19 103.429H447.068V100.603H449.19V103.429Z" fill="black"/>
<path d="M455.586 123.39L465.921 109.824H455.99V108.006H468.375V109.824L458.044 123.355H468.375V125.173H455.586V123.39Z" fill="black"/>
<path d="M473.156 123.39L483.491 109.824H473.56V108.006H485.945V109.824L475.614 123.355H485.945V125.173H473.156V123.39Z" fill="black"/>
<path d="M502.77 115.378C502.77 112.382 501.559 109.421 498.396 109.421C495.265 109.421 493.346 112.551 493.346 115.378H502.77ZM503.815 124.634C502.335 125.241 500.419 125.576 498.836 125.576C493.144 125.576 491.027 121.739 491.027 116.589C491.027 111.34 493.92 107.603 498.262 107.603C503.111 107.603 505.093 111.508 505.093 116.119V117.196H493.346C493.346 120.832 495.301 123.76 499.002 123.76C500.549 123.76 502.806 123.121 503.815 122.481V124.634Z" fill="black"/>
<path d="M511.759 111.843C511.759 109.96 511.759 109.252 511.629 108.006H513.746V111.305H513.813C514.589 109.388 516.034 107.603 518.223 107.603C518.729 107.603 519.335 107.704 519.703 107.804V110.028C519.268 109.892 518.694 109.824 518.155 109.824C514.791 109.824 513.881 113.596 513.881 116.69V125.173H511.759V111.843Z" fill="black"/>
<path d="M535.254 116.522H534.649C530.979 116.522 526.602 116.894 526.602 120.663C526.602 122.917 528.221 123.76 530.172 123.76C535.151 123.76 535.254 119.417 535.254 117.566V116.522ZM535.456 122.413H535.389C534.447 124.466 532.056 125.576 529.934 125.576C525.054 125.576 524.283 122.278 524.283 120.729C524.283 114.975 530.41 114.706 534.851 114.706H535.254V113.83C535.254 110.902 534.209 109.421 531.352 109.421C529.566 109.421 527.884 109.824 526.301 110.834V108.781C527.615 108.142 529.836 107.603 531.352 107.603C535.591 107.603 537.376 109.522 537.376 113.998V121.572C537.376 122.952 537.376 123.995 537.542 125.173H535.456V122.413Z" fill="black"/>
<path d="M150.676 150.729C149.195 149.955 147.073 149.719 145.424 149.719C139.333 149.719 135.898 154.027 135.898 159.851C135.898 165.773 139.232 169.98 145.424 169.98C146.972 169.98 149.329 169.779 150.676 168.971L150.809 170.99C149.53 171.765 146.906 172 145.424 172C138.018 172 133.577 167.12 133.577 159.851C133.577 152.715 138.154 147.699 145.424 147.699C146.803 147.699 149.598 147.934 150.809 148.573L150.676 150.729Z" fill="black"/>
<path d="M165.249 170.184C168.953 170.184 170.937 166.986 170.937 163.013C170.937 159.043 168.953 155.845 165.249 155.845C161.548 155.845 159.561 159.043 159.561 163.013C159.561 166.986 161.548 170.184 165.249 170.184ZM165.249 154.027C170.804 154.027 173.261 158.335 173.261 163.013C173.261 167.692 170.804 172 165.249 172C159.697 172 157.239 167.692 157.239 163.013C157.239 158.335 159.697 154.027 165.249 154.027Z" fill="black"/>
<path d="M179.891 158.471C179.891 157.157 179.891 155.812 179.757 154.43H181.809V157.494H181.877C182.583 155.946 183.862 154.027 187.43 154.027C191.672 154.027 193.286 156.855 193.286 160.624V171.597H191.166V161.162C191.166 157.932 190.023 155.845 187.094 155.845C183.222 155.845 182.011 159.244 182.011 162.104V171.597H179.891V158.471Z" fill="black"/>
<path d="M202.678 156.247H199.211V154.43H202.678V153.186C202.678 149.585 202.811 145.949 207.22 145.949C207.895 145.949 208.804 146.05 209.207 146.286L209.073 148.137C208.635 147.901 207.996 147.767 207.389 147.767C204.496 147.767 204.798 150.897 204.798 152.949V154.43H208.668V156.247H204.798V171.597H202.678V156.247Z" fill="black"/>
<path d="M225.531 161.802C225.531 158.806 224.319 155.845 221.157 155.845C218.025 155.845 216.106 158.975 216.106 161.802H225.531ZM226.575 171.058C225.095 171.665 223.176 172 221.592 172C215.905 172 213.784 168.163 213.784 163.013C213.784 157.763 216.68 154.027 221.021 154.027C225.868 154.027 227.854 157.932 227.854 162.543V163.62H216.106C216.106 167.256 218.059 170.184 221.761 170.184C223.309 170.184 225.566 169.544 226.575 168.905V171.058Z" fill="black"/>
<path d="M240.913 170.184C244.682 170.184 245.994 166.143 245.994 163.013C245.994 159.884 244.682 155.845 240.913 155.845C236.874 155.845 235.829 159.682 235.829 163.013C235.829 166.347 236.874 170.184 240.913 170.184ZM248.116 171.597H245.994V168.87H245.928C244.782 171.058 243.033 172 240.575 172C235.864 172 233.507 168.097 233.507 163.013C233.507 157.796 235.527 154.027 240.575 154.027C243.942 154.027 245.624 156.484 245.928 157.325H245.994V146.352H248.116V171.597Z" fill="black"/>
<path d="M266.323 161.802C266.323 158.806 265.112 155.845 261.949 155.845C258.817 155.845 256.899 158.975 256.899 161.802H266.323ZM267.368 171.058C265.887 171.665 263.969 172 262.385 172C256.697 172 254.577 168.163 254.577 163.013C254.577 157.763 257.473 154.027 261.813 154.027C266.66 154.027 268.647 157.932 268.647 162.543V163.62H256.899C256.899 167.256 258.853 170.184 262.554 170.184C264.102 170.184 266.358 169.544 267.368 168.905V171.058Z" fill="black"/>
<path d="M275.312 158.267C275.312 156.383 275.312 155.676 275.178 154.43H277.298V157.728H277.364C278.139 155.812 279.587 154.027 281.775 154.027C282.279 154.027 282.886 154.128 283.256 154.229V156.452C282.817 156.316 282.246 156.247 281.707 156.247C278.341 156.247 277.432 160.019 277.432 163.114V171.597H275.312V158.267Z" fill="black"/>
<path d="M298.806 162.945H298.199C294.531 162.945 290.155 163.318 290.155 167.087C290.155 169.341 291.771 170.184 293.723 170.184C298.703 170.184 298.806 165.841 298.806 163.99V162.945ZM299.008 168.837H298.94C297.998 170.889 295.608 172 293.486 172C288.606 172 287.833 168.701 287.833 167.153C287.833 161.399 293.959 161.13 298.401 161.13H298.806V160.254C298.806 157.325 297.761 155.845 294.901 155.845C293.116 155.845 291.434 156.247 289.853 157.257V155.205C291.165 154.565 293.385 154.027 294.901 154.027C299.141 154.027 300.926 155.946 300.926 160.422V167.996C300.926 169.376 300.926 170.418 301.095 171.597H299.008V168.837Z" fill="black"/>
<path d="M307.018 169.814L317.351 156.247H307.42V154.43H319.806V156.247L309.475 169.779H319.806V171.597H307.018V169.814Z" fill="black"/>
<path d="M326.168 154.43H328.289V171.597H326.168V154.43ZM328.289 149.852H326.168V147.027H328.289V149.852Z" fill="black"/>
<path d="M349.661 167.558C349.661 168.87 349.661 170.217 349.797 171.597H347.742V168.535H347.676C346.969 170.081 345.69 172 342.122 172C337.882 172 336.266 169.175 336.266 165.403V154.43H338.385V164.864C338.385 168.097 339.531 170.184 342.459 170.184C346.329 170.184 347.54 166.783 347.54 163.922V154.43H349.661V167.558Z" fill="black"/>
<path d="M357.605 158.471C357.605 157.157 357.605 155.812 357.471 154.43H359.523V157.494H359.591C360.296 155.946 361.575 154.027 365.144 154.027C369.386 154.027 371 156.855 371 160.624V171.597H368.88V161.162C368.88 157.932 367.737 155.845 364.808 155.845C360.936 155.845 359.725 159.244 359.725 162.104V171.597H357.605V158.471Z" fill="black"/>
<path d="M389.277 169.106C390.557 169.746 392.105 170.184 393.754 170.184C395.774 170.184 397.556 169.071 397.556 167.12C397.556 163.048 389.31 163.688 389.31 158.705C389.31 155.306 392.07 154.027 394.898 154.027C395.806 154.027 397.624 154.229 399.138 154.802L398.936 156.653C397.826 156.147 396.312 155.845 395.134 155.845C392.946 155.845 391.43 156.517 391.43 158.705C391.43 161.903 399.878 161.5 399.878 167.12C399.878 170.756 396.479 172 393.888 172C392.239 172 390.589 171.798 389.076 171.194L389.277 169.106Z" fill="black"/>
<path d="M412.266 171.597H409.776L403.952 154.43H406.276L411.022 169.275H411.087L416.07 154.43H418.291L412.266 171.597Z" fill="black"/>
<path d="M423.878 154.43H425.999V171.597H423.878V154.43ZM425.999 149.852H423.878V147.027H425.999V149.852Z" fill="black"/>
<path d="M432.394 169.814L442.727 156.247H432.797V154.43H445.182V156.247L434.851 169.779H445.182V171.597H432.394V169.814Z" fill="black"/>
<path d="M451.545 158.267C451.545 156.383 451.545 155.676 451.41 154.43H453.532V157.728H453.599C454.371 155.812 455.819 154.027 458.008 154.027C458.511 154.027 459.116 154.128 459.489 154.229V156.452C459.049 156.316 458.479 156.247 457.941 156.247C454.572 156.247 453.666 160.019 453.666 163.114V171.597H451.545V158.267Z" fill="black"/>
<path d="M475.04 162.945H474.434C470.765 162.945 466.387 163.318 466.387 167.087C466.387 169.341 468.002 170.184 469.958 170.184C474.937 170.184 475.04 165.841 475.04 163.99V162.945ZM475.242 168.837H475.175C474.233 170.889 471.842 172 469.72 172C464.84 172 464.068 168.701 464.068 167.153C464.068 161.399 470.191 161.13 474.632 161.13H475.04V160.254C475.04 157.325 473.995 155.845 471.133 155.845C469.348 155.845 467.666 156.247 466.087 157.257V155.205C467.397 154.565 469.617 154.027 471.133 154.027C475.376 154.027 477.157 155.946 477.157 160.422V167.996C477.157 169.376 477.157 170.418 477.328 171.597H475.242V168.837Z" fill="black"/>
<path d="M95.3903 7.79715C95.3903 7.79715 77.5881 0 47.7838 0H47.7748C17.9703 0 0.163822 7.79715 0.163822 7.79715C0.163822 7.79715 -1.43052 42.3193 5.32836 61.8388C17.2651 96.1595 47.7707 105.801 47.7707 105.801H47.7793H47.7882C47.7882 105.801 78.2891 96.1595 90.2302 61.8388C96.9889 42.3193 95.3903 7.79715 95.3903 7.79715Z" fill="#E1251B"/>
<path d="M79.419 37.5578V56.5775H57.2282V78.769H38.2078V56.5775H16.0167V37.5578H38.2078V15.3709H57.2237L57.2282 37.5578H79.419Z" fill="white"/>
</svg>
