<?xml version="1.0" encoding="UTF-8"?>
<svg id="Calque_2" data-name="Calque 2" xmlns="http://www.w3.org/2000/svg" viewBox="0 0 484.62 100.68">
  <defs>
    <style>
      .cls-1 {
        fill: #4cba81;
      }

      .cls-2 {
        fill: #87c89d;
      }

      .cls-3 {
        fill: #4dba82;
      }

      .cls-4 {
        fill: #4bb981;
      }

      .cls-5 {
        fill: #4bba81;
      }

      .cls-6 {
        fill: #01ac63;
      }

      .cls-7 {
        fill: #4cba82;
      }
    </style>
  </defs>
  <g id="Calque_1-2" data-name="Calque 1">
    <g>
      <path class="cls-1" d="M.12,58.24c3.58-32.04,50.07-36.6,60.83-7.89.61,1.63,2.02,6.17,2.02,7.69v9.1H19.78c-1.7,0,.76,5.22,1.25,6.03,5.58,9.16,20.94,8.1,25.91-1.17l12.2,10.92c.48.97-2.61,3.89-3.47,4.65-13.75,12.01-41.2,9.15-51.01-6.96-2.33-3.83-3.19-7.66-4.54-11.85.27-3.35-.37-7.23,0-10.51ZM43.5,55.41c-1.47-12.14-21.81-11.59-23.92,0h23.92Z"/>
      <path class="cls-2" d="M126.21,100.68h-.81c-1.89-3.09-5.11-5.54-7.3-8.49v-.4c4.63-2.06,8.53-5.45,11.76-9.3l7.23,7.89-10.87,10.3Z"/>
      <path class="cls-1" d="M260.21,32.77l10.55,31.94,10.39-31.88h13.27s10.4,32.69,10.4,32.69l10.54-32.75h18.04l-22.69,59.65c-1.81.11-11.26.64-11.98-.22l-10.95-28.3-10.8,28.65-11.51.09-23.3-59.86h18.04Z"/>
      <path class="cls-1" d="M387.72,92.6h-18.25c-.18,0,.29-3.66-.21-3.64-7.27,6.29-22.69,5.74-29.93-.07s-7.29-19.32-1.48-26.4c7.45-9.07,20.91-8.74,31.62-8.7-.01-7.69-9.61-8.39-15.16-6.02-1.28.55-3.01,2.45-4.06,2.39-2.05-.11-9.38-5.96-12-6.68-1.39-1.45,3.11-4.52,4.33-5.38,8.99-6.37,21.06-7.96,31.56-4.54,6.53,2.13,13.57,8.64,13.57,15.98v43.05ZM369.48,67.53h-11.96c-1.99,0-5.03,2.55-5.61,4.52-2.82,9.66,12.06,9.95,16.35,4.18.23-.3,1.22-1.9,1.22-2.02v-6.67Z"/>
      <path class="cls-4" d="M162.7,32.77v37.39c0,.62.9,4.11,1.2,4.87,2.44,6.28,12.47,6.32,16.64,2,1.42-1.48,3.25-6.11,3.25-8.08v-36.18h17.84v59.83h-17.84v-5.26c-6.48,6.27-16.76,7.39-25.22,5.14-10.14-2.7-12.71-10.77-13.7-20.3v-39.41s17.84,0,17.84,0Z"/>
      <path class="cls-1" d="M129.86,82.09l-11.35-12.13c.05-.11-.04-.28,0-.4,7.3-19.4-15.31-35.76-27.97-19.6-9.4,12.01-.56,33.57,16.21,30.11.13-.03.28.03.41,0l10.95,11.72v.4c-13.59,5.54-29.84,3.46-39.94-7.68-18.35-20.22-5.57-53.59,21.95-55.74,29.43-2.3,47.16,29.91,29.75,53.31Z"/>
      <path class="cls-5" d="M420.16,15.79v16.98h14.19v14.96h-14.19v23.25c0,.92.99,4.02,1.54,4.93,2.23,3.76,6.14,3.24,9.62,1.74,1.13-.49,1.87-1.43,3.04-1.62v14.35c-4.07,3.01-9.04,3.43-13.98,3.03-23.83-1.96-16.95-29.27-18.05-45.68h-6.89v-14.96h6.89V15.79h17.84Z"/>
      <path class="cls-1" d="M470.43,15.79v16.98h14.19v14.96h-14.19v20.01c0,1.76.54,5.92,1.31,7.59,2.52,5.5,8.95,3.43,12.88.7v14.35c-4.12,3.14-9.32,3.44-14.34,2.98-23-2.11-16.69-29.67-17.69-45.63h-6.49v-14.96h6.49V15.79h17.84Z"/>
      <rect class="cls-3" x="214.19" y="32.77" width="18.25" height="59.83"/>
      <polygon class="cls-3" points="24.85 25.49 38.44 0 55.27 8.32 54.87 9.54 41.27 25.49 24.85 25.49"/>
      <path class="cls-7" d="M220.98,6.99c15.57-2.63,15.77,19.79.34,17.66-9.63-1.33-10.28-15.98-.34-17.66Z"/>
      <path class="cls-6" d="M129.86,82.09v.4c-3.23,3.85-7.13,7.24-11.76,9.3l-10.95-11.72c4.34-1.13,9.65-6.01,11.35-10.11l11.35,12.13Z"/>
      <path class="cls-2" d="M118.51,69.56c-.04.12.05.29,0,.4-1.7,4.1-7.01,8.97-11.35,10.11-.12.03-.27-.03-.41,0-.91-1.58-7.87-7.84-7.64-9.04.16-.82,9.47-8.12,10.48-9.79.47-.38.66-.04,1.02.2,2.78,1.91,4.87,6.22,7.89,8.11Z"/>
    </g>
  </g>
</svg>