<svg width="183" height="73" viewBox="0 0 183 73" fill="none" xmlns="http://www.w3.org/2000/svg">
<path d="M1.36288 68.7171C1.46022 69.0091 1.6549 69.2037 1.84958 69.3984C2.04426 69.5931 2.33628 69.6904 2.62831 69.7877C2.92033 69.8851 3.30969 69.8851 3.60171 69.8851C3.79639 69.8851 3.99107 69.8851 4.28309 69.7877C4.47777 69.6904 4.76979 69.5931 4.96448 69.4957C5.15916 69.3984 5.35384 69.2037 5.45118 69.0091C5.54852 68.8144 5.64586 68.5224 5.64586 68.2304C5.64586 68.0357 5.64586 67.7437 5.54852 67.6464C5.45118 67.4517 5.35384 67.3544 5.15916 67.1597C4.96448 67.0624 4.86714 66.9651 4.67245 66.8677C4.47777 66.7704 4.28309 66.7704 4.08841 66.6731L2.43362 66.1864C2.23894 66.0891 2.04426 66.0891 1.75224 65.9917C1.55756 65.8944 1.36288 65.7971 1.1682 65.6024C1.07086 65.4077 0.973518 65.2131 0.876178 65.0184C0.778838 64.8237 0.778838 64.5317 0.778838 64.1424C0.778838 63.9477 0.778838 63.6557 0.876178 63.4611C0.973518 63.1691 1.07086 62.8771 1.26554 62.6824C1.46022 62.3904 1.75224 62.1957 2.04426 62.0984C2.43362 61.9037 2.82299 61.8064 3.40703 61.8064C3.79639 61.8064 4.18575 61.9037 4.47777 62.0011C4.86714 62.0984 5.15916 62.2931 5.35384 62.4877C5.64586 62.6824 5.84054 62.9744 5.93788 63.2664C6.13256 63.5584 6.13256 63.9477 6.13256 64.4344H5.45118C5.45118 64.1424 5.35384 63.8504 5.2565 63.5584C5.15916 63.3637 4.96448 63.0717 4.76979 62.9744C4.57511 62.7797 4.38043 62.6824 4.08841 62.5851C3.79639 62.4877 3.60171 62.4877 3.30969 62.4877C3.01767 62.4877 2.82299 62.4877 2.62831 62.5851C2.43362 62.6824 2.23894 62.7797 2.04426 62.8771C1.84958 62.9744 1.75224 63.1691 1.6549 63.3637C1.55756 63.5584 1.46022 63.8504 1.46022 64.1424C1.46022 64.3371 1.46022 64.5317 1.55756 64.6291C1.6549 64.8237 1.6549 64.9211 1.84958 65.0184C1.94692 65.1157 2.04426 65.2131 2.23894 65.3104C2.33628 65.4077 2.53097 65.4077 2.72565 65.5051L4.57511 65.9917C4.86714 66.0891 5.06182 66.1864 5.35384 66.2837C5.54852 66.3811 5.84054 66.5757 5.93788 66.6731C6.13256 66.8677 6.2299 67.0624 6.32724 67.2571C6.42458 67.5491 6.52192 67.8411 6.52192 68.1331C6.52192 68.2304 6.52192 68.3277 6.52192 68.5224C6.52192 68.7171 6.32724 68.9117 6.2299 69.1064C6.13256 69.3011 6.03522 69.4957 5.93788 69.6904C5.84054 69.7877 5.64586 69.9824 5.45118 70.0797C5.2565 70.2744 4.96448 70.3717 4.67245 70.4691C4.38043 70.5664 3.99107 70.5664 3.50437 70.5664C3.01767 70.5664 2.62831 70.4691 2.23894 70.3717C1.84958 70.2744 1.55756 70.0797 1.26554 69.8851C0.973518 69.6904 0.778838 69.3011 0.681497 69.0091C0.486816 68.6197 0.486816 68.2304 0.486816 67.6464H1.1682C1.1682 68.0357 1.26554 68.4251 1.36288 68.7171Z" fill="black"/>
<path d="M13.0437 61.9037V62.5851H8.56608V65.6024H12.8491V66.2837H8.56608V69.5931H13.1411V70.2744H7.78735V61.8064H13.0437V61.9037Z" fill="black"/>
<path d="M17.9107 61.9038C18.2028 61.9038 18.4948 61.9038 18.7868 62.0012C19.0788 62.0985 19.2735 62.1958 19.5655 62.3905C19.7602 62.5851 19.9549 62.7798 20.0522 63.0718C20.1496 63.3638 20.2469 63.6558 20.2469 64.0452C20.2469 64.6292 20.1496 65.0185 19.8576 65.4078C19.5655 65.7971 19.2735 66.0892 18.7868 66.1865C19.0788 66.1865 19.2735 66.2838 19.3709 66.3811C19.5655 66.4785 19.6629 66.5758 19.7602 66.7705C19.8576 66.9651 19.9549 67.1598 19.9549 67.3545C19.9549 67.5491 20.0522 67.8412 20.0522 68.0358C20.0522 68.1332 20.0522 68.3278 20.0522 68.5225C20.0522 68.7172 20.0522 68.9118 20.0522 69.1065C20.0522 69.3012 20.1496 69.4958 20.1496 69.6905C20.1496 69.8851 20.2469 69.9825 20.3443 70.0798H19.5655C19.5655 69.9825 19.4682 69.8851 19.4682 69.7878C19.4682 69.6905 19.4682 69.5932 19.3709 69.3985C19.3709 69.3012 19.3709 69.1065 19.3709 69.0092C19.3709 68.9118 19.3709 68.8145 19.3709 68.7171C19.3709 68.4251 19.3709 68.1331 19.2735 67.8411C19.2735 67.5491 19.1762 67.2572 19.0788 67.0625C18.9815 66.8678 18.7868 66.6732 18.5921 66.4785C18.3975 66.3812 18.1054 66.2838 17.8134 66.2838H15.0879V70.0798H14.4065V61.6118H17.9107V61.9038ZM17.8134 65.9918C18.0081 65.9918 18.2028 65.9918 18.3975 65.8945C18.5921 65.7971 18.7868 65.6998 18.8842 65.6025C19.0788 65.5052 19.1762 65.3105 19.2735 65.1158C19.3709 64.9212 19.3709 64.7265 19.3709 64.4345C19.3709 63.9478 19.2735 63.4612 18.9815 63.1692C18.6895 62.8772 18.3001 62.6825 17.7161 62.6825H14.9905V65.9918H17.8134Z" fill="black"/>
<path d="M21.7071 61.9038L24.1406 69.4958L26.5741 61.9038H27.3529L24.53 70.3718H23.6539L20.8311 61.9038H21.7071Z" fill="black"/>
<path d="M29.2021 61.9038V70.3718H28.5208V61.9038H29.2021Z" fill="black"/>
<path d="M36.3082 63.6557C36.1135 63.3637 36.0161 63.1691 35.8215 62.9744C35.6268 62.7797 35.3348 62.6824 35.1401 62.5851C34.8481 62.4877 34.6534 62.4877 34.3614 62.4877C33.8747 62.4877 33.388 62.5851 33.0959 62.7797C32.7066 62.9744 32.4146 63.2664 32.2199 63.6557C32.0252 64.0451 31.8305 64.4344 31.7332 64.8237C31.6358 65.3104 31.5385 65.6997 31.5385 66.1864C31.5385 66.6731 31.6358 67.0624 31.7332 67.5491C31.8305 68.0357 32.0252 68.4251 32.2199 68.7171C32.4146 69.1064 32.7066 69.3984 33.0959 69.5931C33.4853 69.7877 33.8747 69.8851 34.3614 69.8851C34.7507 69.8851 35.0427 69.7877 35.3348 69.6904C35.6268 69.5931 35.8215 69.3984 36.1135 69.1064C36.3082 68.8144 36.5028 68.6197 36.6002 68.2304C36.6975 67.9384 36.7949 67.5491 36.8922 67.1597H37.5736C37.4763 67.6464 37.3789 68.1331 37.2816 68.6197C37.0869 69.0091 36.8922 69.3984 36.6002 69.6904C36.3082 69.9824 36.0161 70.1771 35.6268 70.3717C35.2374 70.5664 34.8481 70.5664 34.3614 70.5664C33.7773 70.5664 33.1933 70.4691 32.8039 70.1771C32.3172 69.9824 31.9279 69.5931 31.6358 69.2037C31.3438 68.8144 31.1491 68.3277 30.9544 67.8411C30.7598 67.3544 30.7598 66.7704 30.7598 66.1864C30.7598 65.6024 30.8571 65.0184 30.9544 64.5317C31.1491 64.0451 31.3438 63.5584 31.6358 63.1691C31.9279 62.7797 32.3172 62.3904 32.8039 62.1957C33.2906 62.0011 33.7773 61.8064 34.3614 61.8064C34.7507 61.8064 35.0427 61.9037 35.4321 62.0011C35.8215 62.0984 36.1135 62.2931 36.4055 62.4877C36.6975 62.6824 36.8922 62.9744 37.0869 63.3637C37.2816 63.6557 37.3789 64.1424 37.4763 64.5317H36.7949C36.5028 64.1424 36.4055 63.8504 36.3082 63.6557Z" fill="black"/>
<path d="M43.998 61.9037V62.5851H39.423V65.6024H43.706V66.2837H39.423V69.5931H43.998V70.2744H38.6443V61.8064H43.998V61.9037Z" fill="black"/>
<path d="M45.8476 68.7171C45.9449 69.0091 46.1396 69.2037 46.3343 69.3984C46.529 69.5931 46.821 69.6904 47.113 69.7877C47.405 69.8851 47.7944 69.8851 48.0864 69.8851C48.2811 69.8851 48.4758 69.8851 48.7678 69.7877C48.9625 69.6904 49.2545 69.5931 49.4492 69.4957C49.6438 69.3984 49.8385 69.2037 49.9359 69.0091C50.0332 68.8144 50.1306 68.5224 50.1306 68.2304C50.1306 68.0357 50.1306 67.7437 50.0332 67.6464C49.9359 67.4517 49.8385 67.3544 49.6438 67.1597C49.4492 67.0624 49.3518 66.9651 49.1571 66.8677C48.9625 66.7704 48.7678 66.7704 48.5731 66.6731L46.9183 66.1864C46.7236 66.0891 46.529 66.0891 46.2369 65.9917C46.0423 65.8944 45.8476 65.7971 45.6529 65.6024C45.4582 65.4077 45.3609 65.2131 45.2635 65.0184C45.1662 64.8237 45.1662 64.5317 45.1662 64.1424C45.1662 63.9477 45.1662 63.6557 45.2635 63.4611C45.3609 63.1691 45.4582 62.8771 45.6529 62.6824C45.8476 62.3904 46.1396 62.1957 46.4316 62.0984C46.821 61.9037 47.2103 61.8064 47.7944 61.8064C48.1837 61.8064 48.5731 61.9037 48.8651 62.0011C49.2545 62.0984 49.5465 62.2931 49.7412 62.4877C50.0332 62.6824 50.2279 62.9744 50.3252 63.2664C50.5199 63.5584 50.5199 63.9477 50.5199 64.4344H49.8385C49.8385 64.1424 49.7412 63.8504 49.6438 63.5584C49.5465 63.3637 49.3518 63.0717 49.1571 62.9744C48.9625 62.7797 48.7678 62.6824 48.4758 62.5851C48.1837 62.4877 47.9891 62.4877 47.697 62.4877C47.405 62.4877 47.2103 62.4877 47.0157 62.5851C46.821 62.6824 46.6263 62.7797 46.4316 62.8771C46.2369 62.9744 46.1396 63.1691 46.0423 63.3637C45.9449 63.5584 45.8476 63.8504 45.8476 64.1424C45.8476 64.3371 45.8476 64.5317 45.9449 64.6291C46.0423 64.8237 46.0423 64.9211 46.2369 65.0184C46.3343 65.1157 46.4316 65.2131 46.6263 65.3104C46.7236 65.4077 46.9183 65.4077 47.113 65.5051L48.9625 65.9917C49.2545 66.0891 49.4492 66.1864 49.7412 66.2837C49.9359 66.3811 50.2279 66.5757 50.3252 66.6731C50.5199 66.8677 50.6173 67.0624 50.7146 67.2571C50.8119 67.5491 50.9093 67.8411 50.9093 68.1331C50.9093 68.2304 50.9093 68.3277 50.9093 68.5224C50.9093 68.7171 50.8119 68.8144 50.8119 69.0091C50.7146 69.2037 50.6173 69.3984 50.5199 69.5931C50.4226 69.7877 50.2279 69.9824 50.0332 70.0797C49.8385 70.2744 49.5465 70.3717 49.2545 70.4691C48.9625 70.5664 48.5731 70.5664 48.0864 70.5664C47.5997 70.5664 47.2103 70.4691 46.821 70.3717C46.4316 70.2744 46.1396 70.0797 45.8476 69.8851C45.5555 69.6904 45.3609 69.3011 45.2635 69.0091C45.0688 68.6197 45.0688 68.2304 45.0688 67.6464H45.7502C45.6529 68.0357 45.7502 68.4251 45.8476 68.7171Z" fill="black"/>
<path d="M56.2629 61.9038V70.3718H55.5815V61.9038H56.2629Z" fill="black"/>
<path d="M58.8911 61.9038L63.3688 69.1065V61.9038H64.0501V70.3718H63.2714L58.8911 63.2665V70.4691H58.2097V62.0011H58.8911V61.9038Z" fill="black"/>
<path d="M68.5279 61.9037C69.6959 61.9037 70.572 62.2931 71.156 62.9744C71.7401 63.6557 72.0321 64.7264 72.0321 66.0891C72.0321 67.4517 71.7401 68.5224 71.156 69.2037C70.572 69.8851 69.6959 70.2744 68.5279 70.2744H65.8997V61.8064H68.5279V61.9037ZM68.1385 69.6904C68.7225 69.6904 69.1119 69.5931 69.5986 69.4957C69.988 69.3984 70.28 69.2037 70.572 68.9117C70.864 68.6197 71.0587 68.2304 71.156 67.8411C71.2534 67.3544 71.3507 66.8677 71.3507 66.1864C71.3507 65.5051 71.2534 65.0184 71.156 64.5317C71.0587 64.0451 70.864 63.7531 70.572 63.4611C70.28 63.1691 69.988 62.9744 69.5986 62.8771C69.2092 62.7797 68.7225 62.6824 68.1385 62.6824H66.581V69.7877H68.1385V69.6904Z" fill="black"/>
<path d="M74.0761 61.9038V67.1598C74.0761 67.6465 74.1734 68.0358 74.2707 68.4251C74.3681 68.8145 74.5628 69.0091 74.7574 69.3011C74.9521 69.4958 75.1468 69.6905 75.4388 69.7878C75.7308 69.8851 76.0229 69.9825 76.4122 69.9825C76.8016 69.9825 77.0936 69.9825 77.3856 69.7878C77.6777 69.6905 77.8723 69.4958 78.067 69.3011C78.2617 69.1065 78.359 68.8145 78.5537 68.4251C78.6511 68.0358 78.7484 67.6465 78.7484 67.1598V61.9038H79.4298V67.3545C79.4298 67.7438 79.3324 68.2305 79.2351 68.6198C79.1378 69.0091 78.9431 69.3985 78.7484 69.6905C78.5537 69.9825 78.1644 70.1771 77.8723 70.3718C77.483 70.5665 76.9963 70.6638 76.5096 70.6638C76.0229 70.6638 75.5362 70.5665 75.1468 70.3718C74.7574 70.1771 74.4654 69.9825 74.2707 69.6905C74.0761 69.3985 73.8814 69.0091 73.784 68.6198C73.6867 68.2305 73.5894 67.8411 73.5894 67.3545V61.9038H74.0761Z" fill="black"/>
<path d="M81.5714 68.7171C81.6687 69.0091 81.8634 69.2037 82.0581 69.3984C82.2528 69.5931 82.5448 69.6904 82.8368 69.7877C83.1288 69.8851 83.5182 69.8851 83.8102 69.8851C84.0049 69.8851 84.1996 69.8851 84.4916 69.7877C84.6863 69.6904 84.9783 69.5931 85.173 69.4957C85.3677 69.3984 85.5623 69.2037 85.6597 69.0091C85.757 68.8144 85.8544 68.5224 85.8544 68.2304C85.8544 68.0357 85.8544 67.7437 85.757 67.6464C85.6597 67.4517 85.5623 67.3544 85.3676 67.1597C85.173 67.0624 85.0756 66.9651 84.8809 66.8677C84.6863 66.7704 84.4916 66.7704 84.2969 66.6731L82.5448 66.1864C82.3501 66.0891 82.1554 66.0891 81.8634 65.9917C81.6687 65.8944 81.474 65.7971 81.2794 65.6024C81.0847 65.4077 80.9873 65.2131 80.89 65.0184C80.7926 64.8237 80.7927 64.5317 80.7927 64.1424C80.7927 63.9477 80.7926 63.6557 80.89 63.4611C80.9873 63.1691 81.0847 62.8771 81.2794 62.6824C81.474 62.3904 81.7661 62.1957 82.0581 62.0984C82.4474 61.9037 82.8368 61.8064 83.4208 61.8064C83.8102 61.8064 84.1996 61.9037 84.4916 62.0011C84.881 62.0984 85.173 62.2931 85.3676 62.4877C85.6597 62.6824 85.8544 62.9744 85.9517 63.2664C86.1464 63.5584 86.1464 63.9477 86.1464 64.4344H85.465C85.465 64.1424 85.3677 63.8504 85.2703 63.5584C85.173 63.3637 84.9783 63.0717 84.7836 62.9744C84.5889 62.7797 84.3942 62.6824 84.1022 62.5851C83.8102 62.4877 83.6155 62.4877 83.3235 62.4877C83.0315 62.4877 82.8368 62.4877 82.6421 62.5851C82.4474 62.6824 82.2528 62.7797 82.0581 62.8771C81.8634 62.9744 81.7661 63.1691 81.6687 63.3637C81.5714 63.5584 81.474 63.8504 81.474 64.1424C81.474 64.3371 81.474 64.5317 81.5714 64.6291C81.6687 64.8237 81.6687 64.9211 81.8634 65.0184C81.9607 65.1157 82.0581 65.2131 82.2528 65.3104C82.3501 65.4077 82.5448 65.4077 82.7395 65.5051L84.5889 65.9917C84.881 66.0891 85.0756 66.1864 85.3676 66.2837C85.5623 66.3811 85.8544 66.5757 85.9517 66.6731C86.1464 66.8677 86.2437 67.0624 86.3411 67.2571C86.4384 67.5491 86.5357 67.8411 86.5357 68.1331C86.5357 68.2304 86.5357 68.3277 86.5357 68.5224C86.5357 68.7171 86.4384 68.8144 86.4384 69.0091C86.3411 69.2037 86.2437 69.3984 86.1464 69.5931C86.049 69.7877 85.8544 69.9824 85.6597 70.0797C85.465 70.2744 85.173 70.3717 84.8809 70.4691C84.5889 70.5664 84.1996 70.5664 83.7129 70.5664C83.2262 70.5664 82.8368 70.4691 82.4474 70.3717C82.0581 70.2744 81.7661 70.0797 81.474 69.8851C81.182 69.6904 80.9873 69.3011 80.89 69.0091C80.6953 68.6197 80.6953 68.2304 80.6953 67.6464H81.3767C81.3767 68.0357 81.3767 68.4251 81.5714 68.7171Z" fill="black"/>
<path d="M93.2522 61.9038V62.5851H90.5266V70.3718H89.8452V62.5851H87.217V61.9038H93.2522Z" fill="black"/>
<path d="M97.6327 61.9038C97.9247 61.9038 98.2167 61.9038 98.5087 62.0012C98.8008 62.0985 98.9954 62.1958 99.2875 62.3905C99.4821 62.5851 99.6768 62.7798 99.7742 63.0718C99.8715 63.3638 99.9688 63.6558 99.9688 64.0452C99.9688 64.6292 99.8715 65.0185 99.5795 65.4078C99.2875 65.7971 98.9954 66.0892 98.5087 66.1865C98.8008 66.1865 98.9954 66.2838 99.0928 66.3811C99.2875 66.4785 99.3848 66.5758 99.4821 66.7705C99.5795 66.9651 99.6768 67.1598 99.6768 67.3545C99.6768 67.5491 99.7742 67.8412 99.7742 68.0358C99.7742 68.1332 99.7742 68.3278 99.7742 68.5225C99.7742 68.7172 99.7742 68.9118 99.7742 69.1065C99.7742 69.3012 99.8715 69.4958 99.8715 69.6905C99.8715 69.8851 99.9688 69.9825 100.066 70.0798H99.2875C99.2875 69.9825 99.1901 69.8851 99.1901 69.7878C99.1901 69.6905 99.1901 69.5932 99.0928 69.3985C99.0928 69.3012 99.0928 69.1065 99.0928 69.0092C99.0928 68.9118 99.0928 68.8145 99.0928 68.7171C99.0928 68.4251 99.0928 68.1331 98.9954 67.8411C98.9954 67.5491 98.8981 67.2572 98.8008 67.0625C98.7034 66.8678 98.5087 66.6732 98.3141 66.4785C98.1194 66.3812 97.8274 66.2838 97.5353 66.2838H94.8098V70.0798H94.1284V61.6118H97.6327V61.9038ZM97.6327 65.9918C97.8274 65.9918 98.022 65.9918 98.2167 65.8945C98.4114 65.7971 98.6061 65.6998 98.7034 65.6025C98.8981 65.5052 98.9954 65.3105 99.0928 65.1158C99.1901 64.9212 99.1901 64.7265 99.1901 64.4345C99.1901 63.9478 99.0928 63.4612 98.8008 63.1692C98.5087 62.8772 98.1194 62.6825 97.5353 62.6825H94.8098V65.9918H97.6327Z" fill="black"/>
<path d="M102.305 61.9038V70.3718H101.624V61.9038H102.305Z" fill="black"/>
<path d="M109.411 61.9037V62.5851H104.836V65.6024H109.119V66.2837H104.836V69.5931H109.411V70.2744H104.154V61.8064H109.411V61.9037Z" fill="black"/>
<path d="M111.455 61.9038V69.6905H115.738V70.3718H110.773V61.9038H111.455Z" fill="black"/>
<path d="M117.198 68.7171C117.295 69.0091 117.49 69.2037 117.685 69.3984C117.879 69.5931 118.171 69.6904 118.463 69.7877C118.755 69.8851 119.145 69.8851 119.437 69.8851C119.631 69.8851 119.826 69.8851 120.118 69.7877C120.313 69.6904 120.605 69.5931 120.8 69.4957C120.994 69.3984 121.189 69.2037 121.286 69.0091C121.384 68.8144 121.481 68.5224 121.481 68.2304C121.481 68.0357 121.384 67.7437 121.384 67.6464C121.286 67.4517 121.189 67.3544 120.994 67.1597C120.8 67.0624 120.702 66.9651 120.507 66.8677C120.313 66.7704 120.118 66.7704 119.923 66.6731L118.269 66.1864C118.074 66.0891 117.879 66.0891 117.587 65.9917C117.393 65.8944 117.198 65.7971 117.003 65.6024C116.809 65.4077 116.711 65.2131 116.614 65.0184C116.517 64.8237 116.517 64.5317 116.517 64.1424C116.517 63.9477 116.517 63.6557 116.614 63.4611C116.711 63.1691 116.809 62.8771 117.003 62.6824C117.198 62.3904 117.49 62.1957 117.782 62.0984C118.171 61.9037 118.561 61.8064 119.145 61.8064C119.534 61.8064 119.923 61.9037 120.215 62.0011C120.605 62.0984 120.897 62.2931 121.092 62.4877C121.384 62.6824 121.578 62.9744 121.676 63.2664C121.87 63.5584 121.87 63.9477 121.87 64.4344H121.189C121.189 64.1424 121.092 63.8504 120.994 63.5584C120.897 63.3637 120.702 63.0717 120.507 62.9744C120.313 62.7797 120.118 62.6824 119.826 62.5851C119.534 62.4877 119.339 62.4877 119.047 62.4877C118.755 62.4877 118.561 62.4877 118.366 62.5851C118.171 62.6824 117.977 62.7797 117.782 62.8771C117.587 62.9744 117.49 63.1691 117.393 63.3637C117.295 63.5584 117.198 63.8504 117.198 64.1424C117.198 64.3371 117.198 64.5317 117.295 64.6291C117.393 64.8237 117.393 64.9211 117.587 65.0184C117.685 65.1157 117.782 65.2131 117.977 65.3104C118.074 65.4077 118.269 65.4077 118.463 65.5051L120.313 65.9917C120.605 66.0891 120.8 66.1864 121.092 66.2837C121.286 66.3811 121.578 66.5757 121.676 66.6731C121.87 66.8677 121.968 67.0624 122.065 67.2571C122.162 67.5491 122.26 67.8411 122.26 68.1331C122.26 68.2304 122.26 68.3277 122.26 68.5224C122.26 68.7171 122.162 68.8144 122.162 69.0091C122.065 69.2037 121.968 69.3984 121.87 69.5931C121.773 69.7877 121.578 69.9824 121.384 70.0797C121.189 70.2744 120.897 70.3717 120.605 70.4691C120.313 70.5664 119.923 70.5664 119.437 70.5664C118.95 70.5664 118.561 70.4691 118.171 70.3717C117.782 70.2744 117.49 70.0797 117.198 69.8851C116.906 69.6904 116.711 69.3011 116.614 69.0091C116.419 68.6197 116.419 68.2304 116.419 67.6464H117.101C117.003 68.0357 117.101 68.4251 117.198 68.7171Z" fill="black"/>
<path d="M127.614 61.9038V69.6905H131.896V70.3718H126.932V61.9038H127.614Z" fill="black"/>
<path d="M135.887 61.9038L138.905 70.3718H138.126L137.153 67.7438H133.648L132.772 70.3718H131.994L135.109 61.9038H135.887ZM136.958 67.0625L135.498 62.6825L133.94 67.0625H136.958Z" fill="black"/>
<path d="M140.462 61.9038V67.1598C140.462 67.6465 140.56 68.0358 140.657 68.4251C140.754 68.8145 140.949 69.0091 141.144 69.3011C141.338 69.4958 141.533 69.6905 141.825 69.7878C142.117 69.8851 142.409 69.9825 142.798 69.9825C143.188 69.9825 143.48 69.9825 143.772 69.7878C144.064 69.6905 144.259 69.4958 144.453 69.3011C144.648 69.1065 144.745 68.8145 144.94 68.4251C145.037 68.0358 145.135 67.6465 145.135 67.1598V61.9038H145.816V67.3545C145.816 67.7438 145.719 68.2305 145.621 68.6198C145.524 69.0091 145.329 69.3985 145.135 69.6905C144.94 69.9825 144.551 70.1771 144.259 70.3718C143.869 70.5665 143.383 70.6638 142.896 70.6638C142.409 70.6638 141.922 70.5665 141.533 70.3718C141.144 70.1771 140.852 69.9825 140.657 69.6905C140.462 69.3985 140.268 69.0091 140.17 68.6198C140.073 68.2305 139.976 67.8411 139.976 67.3545V61.9038H140.462Z" fill="black"/>
<path d="M147.86 68.7171C147.958 69.0091 148.152 69.2037 148.347 69.3984C148.542 69.5931 148.834 69.6904 149.126 69.7877C149.418 69.8851 149.807 69.8851 150.099 69.8851C150.294 69.8851 150.488 69.8851 150.78 69.7877C150.975 69.6904 151.267 69.5931 151.462 69.4957C151.657 69.3984 151.851 69.2037 151.949 69.0091C152.046 68.8144 152.143 68.5224 152.143 68.2304C152.143 68.0357 152.143 67.7437 152.046 67.6464C151.949 67.4517 151.851 67.3544 151.657 67.1597C151.462 67.0624 151.365 66.9651 151.17 66.8677C150.975 66.7704 150.78 66.7704 150.586 66.6731L148.931 66.1864C148.736 66.0891 148.542 66.0891 148.25 65.9917C148.055 65.8944 147.86 65.7971 147.666 65.6024C147.471 65.4077 147.374 65.2131 147.276 65.0184C147.179 64.8237 147.179 64.5317 147.179 64.1424C147.179 63.9477 147.179 63.6557 147.276 63.4611C147.374 63.1691 147.471 62.8771 147.666 62.6824C147.86 62.3904 148.152 62.1957 148.444 62.0984C148.834 61.9037 149.223 61.8064 149.807 61.8064C150.196 61.8064 150.586 61.9037 150.878 62.0011C151.267 62.0984 151.559 62.2931 151.754 62.4877C152.046 62.6824 152.241 62.9744 152.338 63.2664C152.533 63.5584 152.533 63.9477 152.533 64.4344H151.851C151.851 64.1424 151.754 63.8504 151.657 63.5584C151.559 63.3637 151.365 63.0717 151.17 62.9744C150.975 62.7797 150.78 62.6824 150.488 62.5851C150.196 62.4877 150.002 62.4877 149.71 62.4877C149.418 62.4877 149.223 62.4877 149.028 62.5851C148.834 62.6824 148.639 62.7797 148.444 62.8771C148.25 62.9744 148.152 63.1691 148.055 63.3637C147.958 63.5584 147.86 63.8504 147.86 64.1424C147.86 64.3371 147.86 64.5317 147.958 64.6291C148.055 64.8237 148.055 64.9211 148.25 65.0184C148.347 65.1157 148.444 65.2131 148.639 65.3104C148.736 65.4077 148.931 65.4077 149.126 65.5051L150.975 65.9917C151.267 66.0891 151.462 66.1864 151.754 66.2837C151.949 66.3811 152.241 66.5757 152.338 66.6731C152.533 66.8677 152.63 67.0624 152.727 67.2571C152.825 67.5491 152.922 67.8411 152.922 68.1331C152.922 68.2304 152.922 68.3277 152.922 68.5224C152.922 68.7171 152.825 68.8144 152.825 69.0091C152.727 69.2037 152.63 69.3984 152.533 69.5931C152.435 69.7877 152.241 69.9824 152.046 70.0797C151.851 70.2744 151.559 70.3717 151.267 70.4691C150.975 70.5664 150.586 70.5664 150.099 70.5664C149.612 70.5664 149.223 70.4691 148.834 70.3717C148.444 70.2744 148.152 70.0797 147.86 69.8851C147.568 69.6904 147.374 69.3011 147.276 69.0091C147.179 68.6197 147.082 68.2304 147.082 67.6464H147.763C147.666 68.0357 147.763 68.4251 147.86 68.7171Z" fill="black"/>
<path d="M157.399 61.9038L160.417 70.3718H159.638L158.665 67.7438H155.161L154.285 70.3718H153.506L156.621 61.9038H157.399ZM158.47 67.0625L157.01 62.6825L155.453 67.0625H158.47Z" fill="black"/>
<path d="M162.072 61.9038L166.55 69.1065V61.9038H167.231V70.3718H166.452L161.975 63.1691V70.3718H161.293V61.9038H162.072Z" fill="black"/>
<path d="M169.859 61.9038L174.337 69.1065V61.9038H175.018V70.3718H174.239L169.762 63.1691V70.3718H169.08V61.9038H169.859Z" fill="black"/>
<path d="M182.124 61.9037V62.5851H177.549V65.6024H181.832V66.2837H177.549V69.5931H182.124V70.2744H176.77V61.8064H182.124V61.9037Z" fill="black"/>
<path d="M10.0262 32.4119C8.17671 31.6333 6.52192 30.4653 5.06182 29.1026C3.69905 27.7399 2.53097 26.0853 1.75224 24.1386C0.973518 22.2893 0.486816 20.2453 0.486816 18.0066C0.486816 15.8653 0.876178 13.8213 1.75224 11.8746C2.53097 10.0253 3.69905 8.3706 5.06182 6.9106C6.52192 5.4506 8.07937 4.37994 10.0262 3.60127C11.8756 2.8226 13.9198 2.33594 16.1586 2.33594H71.3507C72.9081 2.33594 74.2709 2.91994 75.3416 3.9906C76.4124 5.1586 76.8991 6.42394 76.8991 8.0786C76.8991 9.63594 76.315 10.9986 75.2443 12.0693C74.1735 13.1399 72.8108 13.7239 71.2533 13.7239H15.8666C14.6985 13.7239 13.6278 14.1133 12.7517 14.9893C11.8756 15.7679 11.3889 16.8386 11.3889 18.1039C11.3889 19.2719 11.8756 20.3426 12.7517 21.1213C13.6278 21.9973 14.6985 22.3866 15.8666 22.3866H63.4661C65.7049 22.3866 67.7491 22.7759 69.5985 23.6519C71.5453 24.4306 73.2001 25.5986 74.5629 26.9613C75.9256 28.3239 77.0937 30.0759 77.8725 31.9253C78.6512 33.8719 79.1379 35.9159 79.1379 38.0573C79.1379 40.2959 78.7485 42.3399 77.8725 44.1893C76.9964 46.0386 75.9256 47.6933 74.5629 49.1533C73.2001 50.5159 71.448 51.6839 69.5985 52.4626C67.6517 53.2413 65.6076 53.6306 63.4661 53.6306H6.13256C4.57511 53.6306 3.21235 53.0466 2.1416 51.9759C1.07086 50.9053 0.486816 49.5426 0.486816 47.9853C0.486816 46.4279 1.07086 45.0653 2.1416 43.9946C3.21235 42.9239 4.57511 42.3399 6.13256 42.3399H63.9528C65.1209 42.3399 66.0943 41.9506 66.9703 41.0746C67.8464 40.2959 68.2358 39.2253 68.2358 38.0573C68.2358 36.7919 67.8464 35.7213 66.9703 34.8453C66.0943 33.9693 65.1209 33.5799 63.9528 33.5799H16.0613C13.9198 33.6773 11.8756 33.2879 10.0262 32.4119Z" fill="black"/>
<path d="M95.4912 51.976C94.4205 53.0466 93.0577 53.6306 91.5002 53.6306C89.9428 53.6306 88.58 53.0466 87.5093 51.976C86.4385 50.9053 85.8545 49.5426 85.8545 47.9853V27.9346C85.8545 26.3773 86.4385 25.0146 87.5093 23.944C88.58 22.8733 89.9428 22.2893 91.5002 22.2893C93.0577 22.2893 94.4205 22.8733 95.4912 23.944C96.5619 25.0146 97.146 26.3773 97.146 27.9346V47.9853C97.146 49.5426 96.5619 50.9053 95.4912 51.976Z" fill="black"/>
<path d="M115.641 52.3653C113.694 51.5867 111.942 50.4187 110.482 49.056C109.021 47.6934 107.853 46.0387 106.977 44.092C106.101 42.2427 105.712 40.1987 105.712 37.96V8.07868C105.712 6.52135 106.296 5.15868 107.367 4.08802C108.437 3.01735 109.8 2.43335 111.358 2.43335C112.818 2.43335 114.181 3.01735 115.251 4.08802C116.419 5.15868 116.906 6.52135 116.906 8.07868V37.96C116.906 39.128 117.393 40.1987 118.269 40.9773C119.145 41.8533 120.216 42.2427 121.384 42.2427H177.062C178.62 42.2427 179.983 42.8267 181.053 43.8974C182.124 44.968 182.708 46.3307 182.708 47.888C182.708 49.4454 182.124 50.808 181.053 51.8787C179.983 52.9493 178.62 53.5334 177.062 53.5334H121.773C119.632 53.6307 117.587 53.2413 115.641 52.3653Z" fill="black"/>
<path d="M99.2875 10.3173C99.2875 14.6973 95.7832 18.2014 91.4029 18.2014C87.0226 18.2014 83.5183 14.6973 83.5183 10.3173C83.5183 5.93735 87.0226 2.43335 91.4029 2.43335C95.6859 2.43335 99.2875 5.93735 99.2875 10.3173Z" fill="#E30613"/>
</svg>
