<svg width="30" height="30" fill="none" xmlns="http://www.w3.org/2000/svg"><path fill-rule="evenodd" clip-rule="evenodd" d="M15 0C6.716 0 0 6.716 0 15c0 8.284 6.716 15 15 15 8.284 0 15-6.716 15-15 0-8.284-6.716-15-15-15zm12.5 15c0 .856-.087 1.692-.253 2.5h-4.816a26.725 26.725 0 0 0 0-5h4.816c.166.807.253 1.644.253 2.5zm-5.426-5h4.375a12.56 12.56 0 0 0-6.81-6.597C20.759 5.31 21.595 7.55 22.074 10zm-2.568 0H16.25V2.928C17.769 4.753 18.896 7.19 19.506 10zm-5.756 0V2.928C12.231 4.753 11.104 7.19 10.494 10h3.256zm0 2.5v5h-3.662a22.9 22.9 0 0 1 0-5h3.662zm0 14.573V20h-3.256c.61 2.81 1.737 5.247 3.256 7.073zm2.5 0V20h3.256c-.61 2.81-1.737 5.247-3.256 7.073zm0-14.573v5h3.663a22.9 22.9 0 0 0 0-5H16.25zm-5.889-9.097C9.241 5.31 8.405 7.55 7.926 10H3.551a12.56 12.56 0 0 1 6.81-6.597zM7.57 12.5H2.752a12.48 12.48 0 0 0 0 5H7.57a26.717 26.717 0 0 1 0-5zM3.55 20h4.375c.479 2.45 1.315 4.689 2.435 6.598A12.56 12.56 0 0 1 3.551 20zm18.523 0c-.479 2.45-1.315 4.689-2.435 6.598A12.56 12.56 0 0 0 26.449 20h-4.375z" fill="#fff"/></svg>