<svg width="14" height="14" fill="none" xmlns="http://www.w3.org/2000/svg"><path fill-rule="evenodd" clip-rule="evenodd" d="M7 0a7 7 0 110 14A7 7 0 017 0zM1.167 7c0 .4.04.79.118 1.167h2.247a12.469 12.469 0 010-2.334H1.285A5.824 5.824 0 001.167 7zm2.532-2.333H1.657a5.861 5.861 0 013.178-3.08c-.522.892-.913 1.936-1.136 3.08zm1.198 0h1.52v-3.3c-.71.85-1.235 1.988-1.52 3.3zm2.686 0v-3.3c.71.85 1.235 1.988 1.52 3.3h-1.52zm0 1.166v2.334h1.71c.085-.83.085-1.504 0-2.334h-1.71zm0 6.8v-3.3h1.52c-.285 1.312-.81 2.45-1.52 3.3zm-1.166 0v-3.3h-1.52c.285 1.312.81 2.45 1.52 3.3zm0-6.8v2.334h-1.71a10.686 10.686 0 010-2.334h1.71zm2.748-4.245c.522.89.913 1.935 1.136 3.079h2.042a5.861 5.861 0 00-3.178-3.08zm1.303 4.245h2.248a5.824 5.824 0 010 2.334h-2.248c.075-.805.07-1.585 0-2.334zm1.875 3.5H10.3c-.223 1.144-.614 2.188-1.136 3.08a5.861 5.861 0 003.178-3.08zm-8.644 0c.223 1.144.614 2.188 1.136 3.08a5.861 5.861 0 01-3.178-3.08H3.7z" fill="#000"/></svg>