<svg width="12" height="12" fill="none" xmlns="http://www.w3.org/2000/svg"><path d="M10.66 4.775l-.945-.315.445-.89a.5.5 0 00-.095-.57L9 1.935a.5.5 0 00-.575-.095l-.89.445-.315-.945A.5.5 0 006.75 1h-1.5a.5.5 0 00-.475.34l-.315.945-.89-.445a.5.5 0 00-.57.095L1.935 3a.5.5 0 00-.095.575l.445.89-.945.315a.5.5 0 00-.34.47v1.5a.5.5 0 00.34.475l.945.315-.445.89a.5.5 0 00.095.57L3 10.065a.5.5 0 00.575.095l.89-.445.315.945a.5.5 0 00.475.34h1.5a.5.5 0 00.475-.34l.315-.945.89.445A.5.5 0 009 10.065L10.065 9a.5.5 0 00.095-.575l-.445-.89.945-.315a.5.5 0 00.34-.47v-1.5a.5.5 0 00-.34-.475zM10 6.39l-.6.2A1 1 0 008.82 8l.285.57-.55.55L8 8.82a1 1 0 00-1.395.58l-.2.6H5.61l-.2-.6A1 1 0 004 8.82l-.57.285-.55-.55.3-.555a1 1 0 00-.58-1.41l-.6-.2v-.78l.6-.2A1 1 0 003.18 4l-.285-.555.55-.55L4 3.18a1 1 0 001.41-.58l.2-.6h.78l.2.6A1 1 0 008 3.18l.57-.285.55.55-.3.555a1 1 0 00.58 1.395l.6.2v.795zM6 4a2 2 0 100 4 2 2 0 000-4zm0 3a1 1 0 110-2 1 1 0 010 2z" fill="#000"/></svg>