<svg width="20" height="20" viewBox="0 0 20 20" fill="none" xmlns="http://www.w3.org/2000/svg">
<path d="M11.6584 20C10.3637 20 9.1566 19.4371 8.33101 18.4677C7.91196 18.6678 7.44913 18.7741 6.97379 18.7741C5.3101 18.7741 3.94038 17.4794 3.8278 15.847C2.82708 15.5718 2.10156 14.6649 2.10156 13.5892C2.10156 12.3008 3.15231 11.25 4.44073 11.25H15.5549C16.8496 11.25 17.9003 12.3008 17.9003 13.5892C17.9003 14.7212 17.0998 15.6657 16.0303 15.8846C15.8989 18.1737 13.9913 20 11.6584 20ZM8.11836 17.1355C8.40823 16.9164 8.82371 16.9917 9.019 17.2981V17.2981C9.60067 18.205 10.5826 18.7491 11.6584 18.7491C13.3846 18.7491 14.7919 17.3419 14.7919 15.6156C14.7919 15.5281 14.7856 15.4405 14.7794 15.3529V15.3529C14.7458 14.9904 15.0311 14.6774 15.3952 14.6774H15.5549C16.1554 14.6774 16.6495 14.1896 16.6495 13.5892C16.6495 12.9887 16.1616 12.5009 15.5549 12.5009H4.44699C3.84656 12.5009 3.35871 12.9887 3.35871 13.5892C3.35871 14.1896 3.84656 14.6774 4.44699 14.6774V14.6774C4.82407 14.6774 5.1218 15.0027 5.08494 15.3779V15.3779C5.07869 15.4593 5.07243 15.5343 5.07243 15.6156C5.07243 16.6664 5.92304 17.517 6.97379 17.517C7.39284 17.517 7.78687 17.3856 8.11836 17.1355V17.1355Z" fill="black"/>
<path d="M11.0537 3.85998C11.0474 3.85998 11.041 3.85364 11.041 3.85364C11.0474 3.85998 11.0791 3.89172 11.0537 3.85998Z" fill="black"/>
<path d="M17.5842 7.27283C17.445 7.54496 17.2931 7.81709 17.1222 8.07656C17.0589 8.17149 16.9766 8.34869 16.888 8.41831C16.8627 8.43096 16.8437 8.43729 16.8184 8.44995C17.0969 7.82342 17.1728 7.06399 16.9323 6.47543C16.8437 6.26659 16.6982 6.13369 16.4704 6.12103C16.3754 6.1147 16.2742 6.10837 16.1792 6.10205C16.097 6.09572 16.021 6.12736 15.9577 6.16533C15.9957 6.10837 16.0337 6.05774 16.0653 6.00079C16.6602 5.85523 17.2488 5.88054 17.7867 6.23495C18.3816 6.62732 18.9385 5.66537 18.3436 5.27933C17.7804 4.91227 17.1665 4.79203 16.559 4.83C16.5843 4.7414 16.6096 4.6528 16.6159 4.55787C16.6476 4.10854 16.4197 3.74148 16.0717 3.49467C15.7869 3.18457 15.4198 3.09597 15.0148 3.21621C14.9768 3.21621 14.9388 3.22254 14.9009 3.22887C14.9072 3.17191 14.9135 3.12128 14.9199 3.06433C14.9452 2.44412 14.9009 1.69102 14.6351 1.13411C14.4642 0.779708 14.23 0.526564 13.8883 0.343035C13.7364 0.260764 13.5845 0.159507 13.42 0.0898922C13.1921 -0.0176937 12.977 0.00129204 12.7365 0.00129204C12.3504 0.00129204 12.0214 0.0139492 11.6606 0.159507C11.3505 0.286078 11.0784 0.450621 10.8189 0.665793C10.5784 0.874636 10.4076 1.12778 10.2051 1.36194C9.97723 1.62774 9.7494 1.88088 9.5722 2.19098C9.40133 2.51374 9.27476 2.84915 9.11654 3.16558C8.9963 2.76688 8.80644 2.3935 8.49001 2.08972C8.04701 1.65938 7.42681 1.39991 6.81294 1.46952C6.19274 1.53914 5.64848 1.84924 5.19915 2.27325C5.02195 2.44412 4.85741 2.63398 4.71185 2.8365C4.41441 2.77321 4.16759 2.95674 4.06 3.22887C3.80686 3.87438 3.73092 4.5642 3.84483 5.25402C3.93976 5.8489 3.97773 6.39949 4.28151 6.93742C4.42706 7.19689 4.61692 7.43105 4.82576 7.63989C4.83209 7.64622 4.84475 7.65255 4.85108 7.65888C4.85741 7.7981 4.87006 7.93733 4.87639 8.07023C4.88905 8.22845 4.94601 8.38033 5.02195 8.52589C4.98398 8.52589 4.94601 8.52589 4.90803 8.51956C4.94601 8.52589 4.99031 8.53222 5.02828 8.53855C4.95866 8.53222 4.88905 8.51956 4.81311 8.51323C4.70552 8.49425 4.59793 8.46261 4.49668 8.42463L4.49035 8.41831L4.48402 8.40565C4.48402 8.39932 4.48402 8.39932 4.48402 8.39299C4.49035 8.36135 4.49668 8.33603 4.50933 8.30439C4.51566 8.29806 4.51566 8.28541 4.52199 8.27908C4.59161 8.15251 4.61692 7.99429 4.57895 7.85506C4.54098 7.72849 4.44605 7.58926 4.32581 7.52598C4.06633 7.38675 3.71826 7.45636 3.56638 7.72216C3.44613 7.94999 3.3512 8.21579 3.37652 8.47526C3.3955 8.65246 3.43348 8.78536 3.50942 8.94358C3.55372 9.03218 3.617 9.10812 3.68662 9.17774C3.31323 9.19039 2.91453 9.09546 2.71835 8.84232C2.5095 8.56386 2.42723 8.11453 2.39559 7.77912C2.3766 7.55762 2.3766 7.32979 2.42723 7.12095C2.43989 7.01969 2.47153 6.92476 2.52849 6.83616C2.56013 6.79819 2.57912 6.77287 2.5981 6.74756C3.04743 6.96906 3.59169 6.39316 3.16135 6.01344C2.66139 5.57677 2.03486 5.67803 1.73109 6.27925C1.37669 6.96906 1.32606 7.68419 1.49693 8.44362C1.63616 9.07648 1.9336 9.70301 2.54115 10.0005C3.05376 10.2536 3.85749 10.2852 4.40175 10.146C4.88905 10.0194 5.37635 9.74731 5.80669 9.39291C6.36361 9.72832 6.93318 9.57644 7.48377 9.29798C7.67363 9.20305 7.80653 9.10812 7.9331 9.00054C7.8888 9.07015 7.85715 9.13976 7.8445 9.22836C7.82551 9.34861 7.8445 9.47518 7.90778 9.58276C8.04701 9.80427 8.24953 9.98779 8.509 10.0511C8.79378 10.1207 9.05958 10.0448 9.31906 9.92451C9.27476 9.94349 9.23046 9.96248 9.18616 9.98147C9.32539 9.93084 9.46461 9.86755 9.60384 9.81059C9.90129 9.84224 10.1797 9.76629 10.4455 9.63339C10.7746 9.76629 11.205 9.72199 11.5341 9.56378C11.6227 9.68402 11.7176 9.79794 11.8188 9.88654C12.2998 10.3232 12.8061 10.3106 13.4136 10.2283C13.787 10.1777 14.0592 10.0068 14.306 9.79161C14.5591 9.88654 14.8313 9.89919 15.1603 9.88654C15.5147 9.87388 15.9198 9.58909 16.2109 9.32329C16.2615 9.36126 16.3121 9.40556 16.3691 9.44354C16.7678 9.69035 17.3247 9.45619 17.6348 9.15242C18.0462 8.75372 18.293 8.18415 18.4765 7.64622C18.6411 7.1336 17.831 6.78553 17.5842 7.27283ZM8.90137 7.60192C8.92668 7.5323 8.95833 7.45003 8.98997 7.3551C8.9963 7.36143 9.00263 7.36776 9.00263 7.37409C9.05958 7.49433 9.12287 7.61458 9.20514 7.72849C9.28741 7.82975 9.38867 7.90569 9.4836 7.98163C9.48993 8.08289 9.50259 8.17782 9.52157 8.27908C9.50891 8.27908 9.49626 8.28541 9.48993 8.28541C9.36969 8.38033 9.25577 8.38033 9.13553 8.28541C9.07857 8.25376 9.02161 8.23478 8.95833 8.22212C8.83176 8.17782 8.73683 8.12086 8.65456 8.05125C8.74948 7.90569 8.83808 7.76013 8.90137 7.60192ZM8.41407 5.5831C8.44571 6.03243 8.35078 6.51973 8.21788 6.9121C8.20523 6.9564 8.18624 7.00703 8.16725 7.05766C8.14827 6.96906 8.12928 6.88046 8.10397 6.79186C8.01537 6.4248 7.99638 6.09572 8.12295 5.73499C8.16093 5.63373 8.21788 5.5388 8.26851 5.43754C8.30648 5.4945 8.35078 5.54513 8.41407 5.5831ZM7.47744 5.12744C7.36352 4.70976 7.20531 4.31738 7.0471 4.00096C6.83192 3.55796 6.06617 3.86806 6.23704 4.3427C6.41424 4.81734 6.54714 5.32363 6.59144 5.83624C6.14211 5.57677 5.72442 5.76663 5.35736 6.12103C5.29408 6.01344 5.23712 5.8932 5.18649 5.7603C4.91436 5.04517 5.05992 4.32371 5.45229 3.68453C5.74341 3.20355 6.19274 2.71625 6.75598 2.58335C7.2686 2.46311 7.77488 2.80485 7.99005 3.27317C8.14194 3.60226 8.18624 3.9883 8.19257 4.38067C7.85715 4.46294 7.63565 4.79203 7.47744 5.12744ZM10.781 6.96273C10.7367 7.06399 10.6924 7.15892 10.6417 7.25385C10.5658 7.23486 10.4835 7.20955 10.4076 7.19056C10.4645 6.69693 10.5152 6.27925 10.9075 5.99446C10.9265 6.05774 10.9392 6.12103 10.9455 6.18432C10.8696 6.45645 10.8189 6.70959 10.781 6.96273ZM11.5087 5.33629C11.4644 5.273 11.4265 5.20339 11.3758 5.1401C11.2429 4.98821 11.0278 4.99454 10.8632 5.07681C10.5531 5.22237 10.3316 5.34262 10.1291 5.5388C10.1354 5.26667 9.90762 5.08314 9.66713 5.10846C9.69877 4.9629 9.73041 4.82367 9.75573 4.67179C9.81901 4.27941 9.94559 3.8997 10.1418 3.55163C10.1481 3.5453 10.1481 3.53897 10.1544 3.52631V3.53264C10.3126 3.80477 10.6354 3.86173 10.9075 3.72883C10.8822 3.74148 10.9455 3.71617 10.9771 3.70351C10.9835 3.70351 11.0088 3.70351 11.0404 3.69718C11.0404 3.69718 11.0404 3.69718 11.0468 3.70351C11.0531 3.70351 11.0468 3.70351 11.0531 3.70984C11.0721 3.7225 11.0721 3.7225 11.0721 3.7225C11.0974 3.74781 11.1227 3.77313 11.148 3.79844C11.2999 3.97564 11.4581 4.26676 11.572 4.50091C11.6796 4.71609 11.7745 4.95024 11.8378 5.19073C11.7113 5.2287 11.6037 5.273 11.5087 5.33629ZM13.4579 9.12078C13.2618 9.22204 12.8188 9.27266 12.6226 9.17141C12.4897 9.10179 12.3821 8.96256 12.2935 8.80435C12.3947 8.64613 12.4833 8.49425 12.5466 8.35502C12.7681 8.32338 12.977 8.26009 13.1921 8.17782C13.2111 8.27275 13.2364 8.36768 13.2618 8.46893C13.3124 8.69043 13.3947 8.89928 13.5086 9.08914C13.4896 9.09546 13.4769 9.11445 13.4579 9.12078ZM13.7174 3.58327C13.6098 3.64656 13.5086 3.70984 13.4073 3.78578C13.1668 3.97564 12.9453 4.19714 12.7365 4.42497C12.6795 4.29207 12.6226 4.1655 12.5656 4.04526C12.3758 3.64656 12.1353 3.18457 11.7872 2.89978C11.4075 2.58335 10.9771 2.55804 10.5405 2.70993C10.5658 2.6593 10.5848 2.60867 10.6164 2.55804C10.8063 2.27325 11.0531 2.01378 11.2683 1.74798C11.4581 1.51382 11.6986 1.32397 11.9771 1.20372C12.2935 1.06449 12.6479 1.09614 12.9896 1.10879C13.2428 1.23537 13.5086 1.34928 13.6288 1.62141C13.7491 1.88088 13.7617 2.20364 13.7807 2.48842C13.825 2.83017 13.825 3.22887 13.7174 3.58327ZM14.6541 4.6971C14.5781 4.6528 14.4958 4.64647 14.4072 4.6528C14.4832 4.54521 14.5528 4.4313 14.6098 4.31106C14.6984 4.28574 14.7806 4.2541 14.8756 4.24144C15.0085 4.22246 15.1857 4.20347 15.3249 4.15917C15.3818 4.23511 15.4261 4.27308 15.4958 4.33004C15.5021 4.33004 15.5717 4.39333 15.5274 4.34903C15.5907 4.39966 15.5337 4.33637 15.5717 4.40598C15.5274 4.33004 15.5844 4.5199 15.578 4.43763C15.578 4.53256 15.578 4.52623 15.559 4.58951C15.5084 4.75406 15.4325 4.9186 15.3502 5.08314C15.2869 5.10213 15.23 5.12744 15.1667 5.15276C15.0401 4.98821 14.8819 4.82367 14.6541 4.6971ZM15.0654 8.86764C15.2426 8.55753 15.3629 8.22212 15.4198 7.86772C15.4388 7.73482 15.4641 7.60192 15.4831 7.46269C15.4831 7.46269 15.4831 7.46269 15.4831 7.46902C15.4958 7.74748 15.4831 8.03859 15.5337 8.31705C15.5464 8.38033 15.5717 8.44362 15.5907 8.50691C15.4388 8.66512 15.2553 8.79802 15.0654 8.86764Z" fill="black"/>
</svg>
