<svg width="13" height="13" viewBox="0 0 13 13" fill="none" xmlns="http://www.w3.org/2000/svg">
<g id="iconmonstr-laptop-6 1" clip-path="url(#clip0_1699_2651)">
<path id="Vector" d="M11.0742 9.03125V3.13125C11.0742 2.79975 10.8057 2.53125 10.4742 2.53125H1.67422C1.34272 2.53125 1.07422 2.79975 1.07422 3.13125V9.03125H11.0742ZM2.07422 3.53125H10.0742V8.03125H2.07422V3.53125ZM12.0742 9.53125V9.93125C12.0742 10.2627 11.8057 10.5312 11.4742 10.5312H0.674219C0.342719 10.5312 0.0742188 10.2627 0.0742188 9.93125V9.53125H5.07422C5.07422 9.66925 5.18622 9.78125 5.32422 9.78125H6.82422C6.96222 9.78125 7.07422 9.66925 7.07422 9.53125H12.0742Z" fill="#616161"/>
</g>
<defs>
<clipPath id="clip0_1699_2651">
<rect width="12" height="12" fill="white" transform="translate(0.0742188 0.53125)"/>
</clipPath>
</defs>
</svg>
