<svg width="829" height="365" viewBox="0 0 829 365" fill="none" xmlns="http://www.w3.org/2000/svg">
<rect width="829" height="365" fill="white"/>
<path d="M722.045 265.732C722.045 265.432 721.938 265.197 721.723 265.029C721.512 264.861 721.139 264.688 720.604 264.508C720.068 264.328 719.631 264.154 719.291 263.986C718.186 263.443 717.633 262.697 717.633 261.748C717.633 261.275 717.77 260.859 718.043 260.5C718.32 260.137 718.711 259.855 719.215 259.656C719.719 259.453 720.285 259.352 720.914 259.352C721.527 259.352 722.076 259.461 722.561 259.68C723.049 259.898 723.428 260.211 723.697 260.617C723.967 261.02 724.102 261.48 724.102 262H722.051C722.051 261.652 721.943 261.383 721.729 261.191C721.518 261 721.23 260.904 720.867 260.904C720.5 260.904 720.209 260.986 719.994 261.15C719.783 261.311 719.678 261.516 719.678 261.766C719.678 261.984 719.795 262.184 720.029 262.363C720.264 262.539 720.676 262.723 721.266 262.914C721.855 263.102 722.34 263.305 722.719 263.523C723.641 264.055 724.102 264.787 724.102 265.721C724.102 266.467 723.82 267.053 723.258 267.479C722.695 267.904 721.924 268.117 720.943 268.117C720.252 268.117 719.625 267.994 719.062 267.748C718.504 267.498 718.082 267.158 717.797 266.729C717.516 266.295 717.375 265.797 717.375 265.234H719.438C719.438 265.691 719.555 266.029 719.789 266.248C720.027 266.463 720.412 266.57 720.943 266.57C721.283 266.57 721.551 266.498 721.746 266.354C721.945 266.205 722.045 265.998 722.045 265.732ZM727.365 260.084V261.66H728.408V263.031H727.365V265.932C727.365 266.17 727.408 266.336 727.494 266.43C727.58 266.523 727.75 266.57 728.004 266.57C728.199 266.57 728.363 266.559 728.496 266.535V267.947C728.141 268.061 727.77 268.117 727.383 268.117C726.703 268.117 726.201 267.957 725.877 267.637C725.553 267.316 725.391 266.83 725.391 266.178V263.031H724.582V261.66H725.391V260.084H727.365ZM732.762 268C732.691 267.871 732.629 267.682 732.574 267.432C732.211 267.889 731.703 268.117 731.051 268.117C730.453 268.117 729.945 267.938 729.527 267.578C729.109 267.215 728.9 266.76 728.9 266.213C728.9 265.525 729.154 265.006 729.662 264.654C730.17 264.303 730.908 264.127 731.877 264.127H732.486V263.793C732.486 263.211 732.234 262.92 731.73 262.92C731.262 262.92 731.027 263.15 731.027 263.611H729.053C729.053 262.998 729.312 262.5 729.832 262.117C730.355 261.734 731.021 261.543 731.83 261.543C732.639 261.543 733.277 261.74 733.746 262.135C734.215 262.529 734.455 263.07 734.467 263.758V266.564C734.475 267.146 734.564 267.592 734.736 267.9V268H732.762ZM731.525 266.711C731.771 266.711 731.975 266.658 732.135 266.553C732.299 266.447 732.416 266.328 732.486 266.195V265.182H731.912C731.225 265.182 730.881 265.49 730.881 266.107C730.881 266.287 730.941 266.434 731.062 266.547C731.184 266.656 731.338 266.711 731.525 266.711ZM737.379 261.66L737.443 262.404C737.881 261.83 738.484 261.543 739.254 261.543C739.914 261.543 740.406 261.74 740.73 262.135C741.059 262.529 741.229 263.123 741.24 263.916V268H739.26V263.998C739.26 263.678 739.195 263.443 739.066 263.295C738.938 263.143 738.703 263.066 738.363 263.066C737.977 263.066 737.689 263.219 737.502 263.523V268H735.527V261.66H737.379ZM742.09 264.783C742.09 263.779 742.307 262.988 742.74 262.41C743.174 261.832 743.779 261.543 744.557 261.543C745.123 261.543 745.6 261.766 745.986 262.211V259H747.967V268H746.191L746.092 267.32C745.686 267.852 745.17 268.117 744.545 268.117C743.791 268.117 743.193 267.828 742.752 267.25C742.311 266.672 742.09 265.85 742.09 264.783ZM744.064 264.906C744.064 266.031 744.393 266.594 745.049 266.594C745.486 266.594 745.799 266.41 745.986 266.043V263.629C745.807 263.254 745.498 263.066 745.061 263.066C744.451 263.066 744.121 263.559 744.07 264.543L744.064 264.906ZM752.66 268C752.59 267.871 752.527 267.682 752.473 267.432C752.109 267.889 751.602 268.117 750.949 268.117C750.352 268.117 749.844 267.938 749.426 267.578C749.008 267.215 748.799 266.76 748.799 266.213C748.799 265.525 749.053 265.006 749.561 264.654C750.068 264.303 750.807 264.127 751.775 264.127H752.385V263.793C752.385 263.211 752.133 262.92 751.629 262.92C751.16 262.92 750.926 263.15 750.926 263.611H748.951C748.951 262.998 749.211 262.5 749.73 262.117C750.254 261.734 750.92 261.543 751.729 261.543C752.537 261.543 753.176 261.74 753.645 262.135C754.113 262.529 754.354 263.07 754.365 263.758V266.564C754.373 267.146 754.463 267.592 754.635 267.9V268H752.66ZM751.424 266.711C751.67 266.711 751.873 266.658 752.033 266.553C752.197 266.447 752.314 266.328 752.385 266.195V265.182H751.811C751.123 265.182 750.779 265.49 750.779 266.107C750.779 266.287 750.84 266.434 750.961 266.547C751.082 266.656 751.236 266.711 751.424 266.711ZM759.299 263.447L758.648 263.4C758.027 263.4 757.629 263.596 757.453 263.986V268H755.479V261.66H757.33L757.395 262.475C757.727 261.854 758.189 261.543 758.783 261.543C758.994 261.543 759.178 261.566 759.334 261.613L759.299 263.447ZM759.645 264.783C759.645 263.779 759.861 262.988 760.295 262.41C760.729 261.832 761.334 261.543 762.111 261.543C762.678 261.543 763.154 261.766 763.541 262.211V259H765.521V268H763.746L763.646 267.32C763.24 267.852 762.725 268.117 762.1 268.117C761.346 268.117 760.748 267.828 760.307 267.25C759.865 266.672 759.645 265.85 759.645 264.783ZM761.619 264.906C761.619 266.031 761.947 266.594 762.604 266.594C763.041 266.594 763.354 266.41 763.541 266.043V263.629C763.361 263.254 763.053 263.066 762.615 263.066C762.006 263.066 761.676 263.559 761.625 264.543L761.619 264.906ZM772.424 259.469L774.328 265.404L776.227 259.469H778.934V268H776.871V266.008L777.07 261.93L775.008 268H773.648L771.58 261.924L771.779 266.008V268H769.723V259.469H772.424ZM782.238 268H780.258V261.66H782.238V268ZM780.141 260.025C780.141 259.744 780.242 259.514 780.445 259.334C780.648 259.154 780.912 259.064 781.236 259.064C781.561 259.064 781.824 259.154 782.027 259.334C782.23 259.514 782.332 259.744 782.332 260.025C782.332 260.307 782.23 260.537 782.027 260.717C781.824 260.896 781.561 260.986 781.236 260.986C780.912 260.986 780.648 260.896 780.445 260.717C780.242 260.537 780.141 260.307 780.141 260.025ZM786.029 263.406L786.949 261.66H789L787.33 264.748L789.082 268H787.02L786.023 266.125L785.045 268H782.971L784.729 264.748L783.064 261.66H785.139L786.029 263.406Z" fill="#5A5A5A"/>
<path d="M720.814 294.988H719.701V298H717.645V289.469H721.002C722.014 289.469 722.805 289.693 723.375 290.143C723.945 290.592 724.23 291.227 724.23 292.047C724.23 292.641 724.109 293.133 723.867 293.523C723.629 293.914 723.254 294.23 722.742 294.473L724.523 297.912V298H722.32L720.814 294.988ZM719.701 293.4H721.002C721.393 293.4 721.686 293.299 721.881 293.096C722.08 292.889 722.18 292.602 722.18 292.234C722.18 291.867 722.08 291.58 721.881 291.373C721.682 291.162 721.389 291.057 721.002 291.057H719.701V293.4ZM728.449 298.117C727.477 298.117 726.689 297.828 726.088 297.25C725.486 296.668 725.186 295.912 725.186 294.982V294.818C725.186 294.17 725.305 293.598 725.543 293.102C725.785 292.605 726.137 292.223 726.598 291.953C727.059 291.68 727.605 291.543 728.238 291.543C729.129 291.543 729.832 291.82 730.348 292.375C730.863 292.926 731.121 293.695 731.121 294.684V295.451H727.195C727.266 295.807 727.42 296.086 727.658 296.289C727.896 296.492 728.205 296.594 728.584 296.594C729.209 296.594 729.697 296.375 730.049 295.938L730.951 297.004C730.705 297.344 730.355 297.615 729.902 297.818C729.453 298.018 728.969 298.117 728.449 298.117ZM728.227 293.066C727.648 293.066 727.305 293.449 727.195 294.215H729.188V294.062C729.195 293.746 729.115 293.502 728.947 293.33C728.779 293.154 728.539 293.066 728.227 293.066ZM733.734 291.66L733.799 292.404C734.236 291.83 734.84 291.543 735.609 291.543C736.27 291.543 736.762 291.74 737.086 292.135C737.414 292.529 737.584 293.123 737.596 293.916V298H735.615V293.998C735.615 293.678 735.551 293.443 735.422 293.295C735.293 293.143 735.059 293.066 734.719 293.066C734.332 293.066 734.045 293.219 733.857 293.523V298H731.883V291.66H733.734ZM741.762 298.117C740.789 298.117 740.002 297.828 739.4 297.25C738.799 296.668 738.498 295.912 738.498 294.982V294.818C738.498 294.17 738.617 293.598 738.855 293.102C739.098 292.605 739.449 292.223 739.91 291.953C740.371 291.68 740.918 291.543 741.551 291.543C742.441 291.543 743.145 291.82 743.66 292.375C744.176 292.926 744.434 293.695 744.434 294.684V295.451H740.508C740.578 295.807 740.732 296.086 740.971 296.289C741.209 296.492 741.518 296.594 741.896 296.594C742.521 296.594 743.01 296.375 743.361 295.938L744.264 297.004C744.018 297.344 743.668 297.615 743.215 297.818C742.766 298.018 742.281 298.117 741.762 298.117ZM741.539 293.066C740.961 293.066 740.617 293.449 740.508 294.215H742.5V294.062C742.508 293.746 742.428 293.502 742.26 293.33C742.092 293.154 741.852 293.066 741.539 293.066ZM750.709 295.398L751.348 291.66H753.24L751.746 298H750.076L749.027 294.238L747.973 298H746.303L744.809 291.66H746.701L747.328 295.486L748.336 291.66H749.713L750.709 295.398ZM757.523 298C757.453 297.871 757.391 297.682 757.336 297.432C756.973 297.889 756.465 298.117 755.812 298.117C755.215 298.117 754.707 297.938 754.289 297.578C753.871 297.215 753.662 296.76 753.662 296.213C753.662 295.525 753.916 295.006 754.424 294.654C754.932 294.303 755.67 294.127 756.639 294.127H757.248V293.793C757.248 293.211 756.996 292.92 756.492 292.92C756.023 292.92 755.789 293.15 755.789 293.611H753.814C753.814 292.998 754.074 292.5 754.594 292.117C755.117 291.734 755.783 291.543 756.592 291.543C757.4 291.543 758.039 291.74 758.508 292.135C758.977 292.529 759.217 293.07 759.229 293.758V296.564C759.236 297.146 759.326 297.592 759.498 297.9V298H757.523ZM756.287 296.711C756.533 296.711 756.736 296.658 756.896 296.553C757.061 296.447 757.178 296.328 757.248 296.195V295.182H756.674C755.986 295.182 755.643 295.49 755.643 296.107C755.643 296.287 755.703 296.434 755.824 296.547C755.945 296.656 756.1 296.711 756.287 296.711ZM766.213 294.883C766.213 295.922 765.998 296.721 765.568 297.279C765.139 297.838 764.533 298.117 763.752 298.117C763.107 298.117 762.588 297.861 762.193 297.35L762.111 298H760.342V289H762.316V292.17C762.684 291.752 763.158 291.543 763.74 291.543C764.529 291.543 765.139 291.826 765.568 292.393C765.998 292.959 766.213 293.756 766.213 294.783V294.883ZM764.232 294.76C764.232 294.15 764.15 293.717 763.986 293.459C763.826 293.197 763.578 293.066 763.242 293.066C762.797 293.066 762.488 293.236 762.316 293.576V296.096C762.484 296.432 762.797 296.6 763.254 296.6C763.719 296.6 764.014 296.373 764.139 295.92C764.201 295.697 764.232 295.311 764.232 294.76ZM769.172 298H767.191V289H769.172V298ZM773.461 298.117C772.488 298.117 771.701 297.828 771.1 297.25C770.498 296.668 770.197 295.912 770.197 294.982V294.818C770.197 294.17 770.316 293.598 770.555 293.102C770.797 292.605 771.148 292.223 771.609 291.953C772.07 291.68 772.617 291.543 773.25 291.543C774.141 291.543 774.844 291.82 775.359 292.375C775.875 292.926 776.133 293.695 776.133 294.684V295.451H772.207C772.277 295.807 772.432 296.086 772.67 296.289C772.908 296.492 773.217 296.594 773.596 296.594C774.221 296.594 774.709 296.375 775.061 295.938L775.963 297.004C775.717 297.344 775.367 297.615 774.914 297.818C774.465 298.018 773.98 298.117 773.461 298.117ZM773.238 293.066C772.66 293.066 772.316 293.449 772.207 294.215H774.199V294.062C774.207 293.746 774.127 293.502 773.959 293.33C773.791 293.154 773.551 293.066 773.238 293.066ZM782.713 289.469L784.617 295.404L786.516 289.469H789.223V298H787.16V296.008L787.359 291.93L785.297 298H783.938L781.869 291.924L782.068 296.008V298H780.012V289.469H782.713ZM792.527 298H790.547V291.66H792.527V298ZM790.43 290.025C790.43 289.744 790.531 289.514 790.734 289.334C790.938 289.154 791.201 289.064 791.525 289.064C791.85 289.064 792.113 289.154 792.316 289.334C792.52 289.514 792.621 289.744 792.621 290.025C792.621 290.307 792.52 290.537 792.316 290.717C792.113 290.896 791.85 290.986 791.525 290.986C791.201 290.986 790.938 290.896 790.734 290.717C790.531 290.537 790.43 290.307 790.43 290.025ZM796.318 293.406L797.238 291.66H799.289L797.619 294.748L799.371 298H797.309L796.312 296.125L795.334 298H793.26L795.018 294.748L793.354 291.66H795.428L796.318 293.406Z" fill="#5A5A5A"/>
<rect x="670" y="254" width="20" height="20" fill="#465902"/>
<rect x="670" y="284" width="20" height="20" fill="#AABF0B"/>
<path d="M43 304H616" stroke="black" stroke-miterlimit="10"/>
<path d="M56 41L56 314" stroke="black" stroke-miterlimit="10"/>
<path d="M249.451 317.346V318.898H249.363C248.625 318.898 248.018 319.076 247.541 319.432C247.068 319.783 246.777 320.273 246.668 320.902C247.113 320.465 247.676 320.246 248.355 320.246C249.094 320.246 249.682 320.516 250.119 321.055C250.557 321.594 250.775 322.301 250.775 323.176C250.775 323.719 250.646 324.217 250.389 324.67C250.135 325.123 249.777 325.479 249.316 325.736C248.859 325.99 248.352 326.117 247.793 326.117C247.188 326.117 246.646 325.98 246.17 325.707C245.693 325.43 245.322 325.035 245.057 324.523C244.791 324.012 244.654 323.422 244.646 322.754V321.963C244.646 321.084 244.834 320.295 245.209 319.596C245.588 318.893 246.127 318.342 246.826 317.943C247.525 317.545 248.301 317.346 249.152 317.346H249.451ZM247.67 321.758C247.408 321.758 247.189 321.818 247.014 321.939C246.838 322.061 246.707 322.209 246.621 322.385V322.977C246.621 324.055 246.994 324.594 247.74 324.594C248.041 324.594 248.291 324.459 248.49 324.189C248.693 323.92 248.795 323.582 248.795 323.176C248.795 322.758 248.691 322.418 248.484 322.156C248.281 321.891 248.01 321.758 247.67 321.758ZM252.885 324.084C253.197 324.084 253.457 324.178 253.664 324.365C253.871 324.549 253.975 324.785 253.975 325.074C253.975 325.363 253.871 325.602 253.664 325.789C253.457 325.973 253.197 326.064 252.885 326.064C252.568 326.064 252.307 325.971 252.1 325.783C251.896 325.596 251.795 325.359 251.795 325.074C251.795 324.789 251.896 324.553 252.1 324.365C252.307 324.178 252.568 324.084 252.885 324.084ZM255.381 321.828L255.902 317.469H260.889V319.004H257.508L257.314 320.697C257.455 320.615 257.639 320.543 257.865 320.48C258.096 320.418 258.32 320.387 258.539 320.387C259.387 320.387 260.037 320.639 260.49 321.143C260.947 321.643 261.176 322.346 261.176 323.252C261.176 323.799 261.053 324.295 260.807 324.74C260.564 325.182 260.223 325.521 259.781 325.76C259.34 325.998 258.818 326.117 258.217 326.117C257.682 326.117 257.18 326.008 256.711 325.789C256.242 325.566 255.875 325.264 255.609 324.881C255.344 324.494 255.213 324.059 255.217 323.574H257.197C257.217 323.887 257.316 324.135 257.496 324.318C257.676 324.502 257.912 324.594 258.205 324.594C258.869 324.594 259.201 324.102 259.201 323.117C259.201 322.207 258.795 321.752 257.982 321.752C257.521 321.752 257.178 321.9 256.951 322.197L255.381 321.828ZM267.768 323.234L268.822 319.66H270.938L268.354 327.061L268.242 327.33C267.875 328.15 267.227 328.561 266.297 328.561C266.039 328.561 265.768 328.521 265.482 328.443V327.031H265.74C266.018 327.031 266.229 326.99 266.373 326.908C266.521 326.83 266.631 326.688 266.701 326.48L266.859 326.059L264.656 319.66H266.766L267.768 323.234ZM274.441 326.117C273.469 326.117 272.682 325.828 272.08 325.25C271.479 324.668 271.178 323.912 271.178 322.982V322.818C271.178 322.17 271.297 321.598 271.535 321.102C271.777 320.605 272.129 320.223 272.59 319.953C273.051 319.68 273.598 319.543 274.23 319.543C275.121 319.543 275.824 319.82 276.34 320.375C276.855 320.926 277.113 321.695 277.113 322.684V323.451H273.188C273.258 323.807 273.412 324.086 273.65 324.289C273.889 324.492 274.197 324.594 274.576 324.594C275.201 324.594 275.689 324.375 276.041 323.938L276.943 325.004C276.697 325.344 276.348 325.615 275.895 325.818C275.445 326.018 274.961 326.117 274.441 326.117ZM274.219 321.066C273.641 321.066 273.297 321.449 273.188 322.215H275.18V322.062C275.188 321.746 275.107 321.502 274.939 321.33C274.771 321.154 274.531 321.066 274.219 321.066ZM281.484 326C281.414 325.871 281.352 325.682 281.297 325.432C280.934 325.889 280.426 326.117 279.773 326.117C279.176 326.117 278.668 325.938 278.25 325.578C277.832 325.215 277.623 324.76 277.623 324.213C277.623 323.525 277.877 323.006 278.385 322.654C278.893 322.303 279.631 322.127 280.6 322.127H281.209V321.793C281.209 321.211 280.957 320.92 280.453 320.92C279.984 320.92 279.75 321.15 279.75 321.611H277.775C277.775 320.998 278.035 320.5 278.555 320.117C279.078 319.734 279.744 319.543 280.553 319.543C281.361 319.543 282 319.74 282.469 320.135C282.938 320.529 283.178 321.07 283.189 321.758V324.564C283.197 325.146 283.287 325.592 283.459 325.9V326H281.484ZM280.248 324.711C280.494 324.711 280.697 324.658 280.857 324.553C281.021 324.447 281.139 324.328 281.209 324.195V323.182H280.635C279.947 323.182 279.604 323.49 279.604 324.107C279.604 324.287 279.664 324.434 279.785 324.547C279.906 324.656 280.061 324.711 280.248 324.711ZM288.123 321.447L287.473 321.4C286.852 321.4 286.453 321.596 286.277 321.986V326H284.303V319.66H286.154L286.219 320.475C286.551 319.854 287.014 319.543 287.607 319.543C287.818 319.543 288.002 319.566 288.158 319.613L288.123 321.447ZM292.154 324.219C292.154 324.051 292.066 323.916 291.891 323.814C291.715 323.713 291.381 323.607 290.889 323.498C290.396 323.389 289.99 323.246 289.67 323.07C289.35 322.891 289.105 322.674 288.938 322.42C288.77 322.166 288.686 321.875 288.686 321.547C288.686 320.965 288.926 320.486 289.406 320.111C289.887 319.732 290.516 319.543 291.293 319.543C292.129 319.543 292.801 319.732 293.309 320.111C293.816 320.49 294.07 320.988 294.07 321.605H292.09C292.09 321.098 291.822 320.844 291.287 320.844C291.08 320.844 290.906 320.902 290.766 321.02C290.625 321.133 290.555 321.275 290.555 321.447C290.555 321.623 290.641 321.766 290.812 321.875C290.984 321.984 291.258 322.074 291.633 322.145C292.012 322.215 292.344 322.299 292.629 322.396C293.582 322.725 294.059 323.312 294.059 324.16C294.059 324.738 293.801 325.209 293.285 325.572C292.773 325.936 292.109 326.117 291.293 326.117C290.75 326.117 290.266 326.02 289.84 325.824C289.414 325.629 289.082 325.363 288.844 325.027C288.605 324.691 288.486 324.338 288.486 323.967H290.332C290.34 324.26 290.438 324.475 290.625 324.611C290.812 324.744 291.053 324.811 291.346 324.811C291.615 324.811 291.816 324.756 291.949 324.646C292.086 324.537 292.154 324.395 292.154 324.219ZM300.059 326H298.078V317H300.059V326ZM303.363 326H301.383V319.66H303.363V326ZM301.266 318.025C301.266 317.744 301.367 317.514 301.57 317.334C301.773 317.154 302.037 317.064 302.361 317.064C302.686 317.064 302.949 317.154 303.152 317.334C303.355 317.514 303.457 317.744 303.457 318.025C303.457 318.307 303.355 318.537 303.152 318.717C302.949 318.896 302.686 318.986 302.361 318.986C302.037 318.986 301.773 318.896 301.57 318.717C301.367 318.537 301.266 318.307 301.266 318.025ZM305.021 326V321.031H304.102V319.66H305.021V319.156C305.021 318.434 305.234 317.873 305.66 317.475C306.086 317.076 306.684 316.877 307.453 316.877C307.734 316.877 308.043 316.918 308.379 317L308.385 318.453C308.264 318.418 308.102 318.4 307.898 318.4C307.301 318.4 307.002 318.658 307.002 319.174V319.66H308.238V321.031H307.002V326H305.021ZM311.859 326.117C310.887 326.117 310.1 325.828 309.498 325.25C308.896 324.668 308.596 323.912 308.596 322.982V322.818C308.596 322.17 308.715 321.598 308.953 321.102C309.195 320.605 309.547 320.223 310.008 319.953C310.469 319.68 311.016 319.543 311.648 319.543C312.539 319.543 313.242 319.82 313.758 320.375C314.273 320.926 314.531 321.695 314.531 322.684V323.451H310.605C310.676 323.807 310.83 324.086 311.068 324.289C311.307 324.492 311.615 324.594 311.994 324.594C312.619 324.594 313.107 324.375 313.459 323.938L314.361 325.004C314.115 325.344 313.766 325.615 313.312 325.818C312.863 326.018 312.379 326.117 311.859 326.117ZM311.637 321.066C311.059 321.066 310.715 321.449 310.605 322.215H312.598V322.062C312.605 321.746 312.525 321.502 312.357 321.33C312.189 321.154 311.949 321.066 311.637 321.066ZM318.65 324.219C318.65 324.051 318.562 323.916 318.387 323.814C318.211 323.713 317.877 323.607 317.385 323.498C316.893 323.389 316.486 323.246 316.166 323.07C315.846 322.891 315.602 322.674 315.434 322.42C315.266 322.166 315.182 321.875 315.182 321.547C315.182 320.965 315.422 320.486 315.902 320.111C316.383 319.732 317.012 319.543 317.789 319.543C318.625 319.543 319.297 319.732 319.805 320.111C320.312 320.49 320.566 320.988 320.566 321.605H318.586C318.586 321.098 318.318 320.844 317.783 320.844C317.576 320.844 317.402 320.902 317.262 321.02C317.121 321.133 317.051 321.275 317.051 321.447C317.051 321.623 317.137 321.766 317.309 321.875C317.48 321.984 317.754 322.074 318.129 322.145C318.508 322.215 318.84 322.299 319.125 322.396C320.078 322.725 320.555 323.312 320.555 324.16C320.555 324.738 320.297 325.209 319.781 325.572C319.27 325.936 318.605 326.117 317.789 326.117C317.246 326.117 316.762 326.02 316.336 325.824C315.91 325.629 315.578 325.363 315.34 325.027C315.102 324.691 314.982 324.338 314.982 323.967H316.828C316.836 324.26 316.934 324.475 317.121 324.611C317.309 324.744 317.549 324.811 317.842 324.811C318.111 324.811 318.312 324.756 318.445 324.646C318.582 324.537 318.65 324.395 318.65 324.219ZM327.369 322.877C327.369 323.861 327.146 324.648 326.701 325.238C326.26 325.824 325.662 326.117 324.908 326.117C324.326 326.117 323.848 325.904 323.473 325.479V328.438H321.498V319.66H323.344L323.402 320.246C323.781 319.777 324.279 319.543 324.896 319.543C325.678 319.543 326.285 319.832 326.719 320.41C327.152 320.984 327.369 321.775 327.369 322.783V322.877ZM325.395 322.754C325.395 321.629 325.066 321.066 324.41 321.066C323.941 321.066 323.629 321.234 323.473 321.57V324.066C323.645 324.418 323.961 324.594 324.422 324.594C325.051 324.594 325.375 324.051 325.395 322.965V322.754ZM331.816 326C331.746 325.871 331.684 325.682 331.629 325.432C331.266 325.889 330.758 326.117 330.105 326.117C329.508 326.117 329 325.938 328.582 325.578C328.164 325.215 327.955 324.76 327.955 324.213C327.955 323.525 328.209 323.006 328.717 322.654C329.225 322.303 329.963 322.127 330.932 322.127H331.541V321.793C331.541 321.211 331.289 320.92 330.785 320.92C330.316 320.92 330.082 321.15 330.082 321.611H328.107C328.107 320.998 328.367 320.5 328.887 320.117C329.41 319.734 330.076 319.543 330.885 319.543C331.693 319.543 332.332 319.74 332.801 320.135C333.27 320.529 333.51 321.07 333.521 321.758V324.564C333.529 325.146 333.619 325.592 333.791 325.9V326H331.816ZM330.58 324.711C330.826 324.711 331.029 324.658 331.189 324.553C331.354 324.447 331.471 324.328 331.541 324.195V323.182H330.967C330.279 323.182 329.936 323.49 329.936 324.107C329.936 324.287 329.996 324.434 330.117 324.547C330.238 324.656 330.393 324.711 330.58 324.711ZM336.434 319.66L336.498 320.404C336.936 319.83 337.539 319.543 338.309 319.543C338.969 319.543 339.461 319.74 339.785 320.135C340.113 320.529 340.283 321.123 340.295 321.916V326H338.314V321.998C338.314 321.678 338.25 321.443 338.121 321.295C337.992 321.143 337.758 321.066 337.418 321.066C337.031 321.066 336.744 321.219 336.557 321.523V326H334.582V319.66H336.434Z" fill="#5A5A5A"/>
<path d="M279.888 121H278.706V115.292L276.963 115.888V114.887L279.736 113.866H279.888V121ZM286.992 118.007C286.992 119.029 286.8 119.8 286.416 120.321C286.035 120.839 285.454 121.098 284.673 121.098C283.905 121.098 283.325 120.845 282.935 120.341C282.547 119.833 282.349 119.083 282.339 118.09V116.859C282.339 115.837 282.529 115.071 282.91 114.56C283.294 114.049 283.879 113.793 284.663 113.793C285.441 113.793 286.021 114.042 286.401 114.54C286.785 115.038 286.982 115.784 286.992 116.776V118.007ZM285.806 116.679C285.806 116.011 285.715 115.523 285.532 115.214C285.35 114.901 285.06 114.745 284.663 114.745C284.276 114.745 283.991 114.893 283.809 115.189C283.626 115.482 283.53 115.941 283.521 116.566V118.178C283.521 118.842 283.613 119.337 283.799 119.662C283.984 119.988 284.276 120.15 284.673 120.15C285.054 120.15 285.335 120.001 285.518 119.701C285.7 119.398 285.796 118.926 285.806 118.285V116.679ZM291.733 113.856V114.838H291.587C290.923 114.848 290.392 115.03 289.995 115.385C289.598 115.74 289.362 116.243 289.287 116.894C289.668 116.493 290.155 116.293 290.747 116.293C291.375 116.293 291.87 116.514 292.231 116.957C292.596 117.4 292.778 117.971 292.778 118.671C292.778 119.394 292.565 119.979 292.139 120.429C291.715 120.875 291.159 121.098 290.469 121.098C289.759 121.098 289.183 120.836 288.74 120.312C288.301 119.787 288.081 119.101 288.081 118.251V117.846C288.081 116.599 288.384 115.622 288.989 114.916C289.598 114.21 290.472 113.856 291.611 113.856H291.733ZM290.459 117.25C290.199 117.25 289.959 117.323 289.741 117.47C289.526 117.616 289.368 117.812 289.268 118.056V118.417C289.268 118.944 289.378 119.364 289.6 119.677C289.821 119.986 290.107 120.141 290.459 120.141C290.811 120.141 291.089 120.009 291.294 119.745C291.499 119.481 291.602 119.135 291.602 118.705C291.602 118.275 291.497 117.925 291.289 117.655C291.081 117.385 290.804 117.25 290.459 117.25ZM299.365 120.077C299.108 120.412 298.752 120.666 298.296 120.839C297.84 121.011 297.323 121.098 296.743 121.098C296.147 121.098 295.62 120.963 295.161 120.692C294.702 120.422 294.347 120.036 294.097 119.535C293.849 119.031 293.721 118.443 293.711 117.772V117.216C293.711 116.142 293.968 115.303 294.482 114.701C294.997 114.096 295.715 113.793 296.636 113.793C297.427 113.793 298.055 113.988 298.521 114.379C298.986 114.77 299.266 115.333 299.36 116.068H298.149C298.013 115.212 297.516 114.784 296.66 114.784C296.107 114.784 295.685 114.984 295.396 115.385C295.109 115.782 294.961 116.366 294.951 117.138V117.685C294.951 118.453 295.112 119.05 295.435 119.477C295.76 119.9 296.211 120.111 296.787 120.111C297.419 120.111 297.868 119.968 298.135 119.682V118.29H296.67V117.353H299.365V120.077Z" fill="black"/>
<path d="M302.504 124.078C301.902 124.078 301.414 123.889 301.039 123.512C300.667 123.132 300.48 122.626 300.48 121.996V121.879C300.48 121.457 300.561 121.081 300.723 120.75C300.887 120.417 301.116 120.158 301.41 119.973C301.704 119.788 302.033 119.695 302.395 119.695C302.97 119.695 303.414 119.879 303.727 120.246C304.042 120.613 304.199 121.133 304.199 121.805V122.188H301.438C301.466 122.536 301.582 122.812 301.785 123.016C301.991 123.219 302.249 123.32 302.559 123.32C302.993 123.32 303.348 123.145 303.621 122.793L304.133 123.281C303.964 123.534 303.737 123.73 303.453 123.871C303.172 124.009 302.855 124.078 302.504 124.078ZM302.391 120.457C302.13 120.457 301.919 120.548 301.758 120.73C301.599 120.913 301.497 121.167 301.453 121.492H303.262V121.422C303.241 121.104 303.156 120.865 303.008 120.703C302.859 120.539 302.654 120.457 302.391 120.457ZM304.762 121.852C304.762 121.19 304.913 120.665 305.215 120.277C305.517 119.889 305.926 119.695 306.441 119.695C306.913 119.695 307.286 119.861 307.562 120.191L307.617 119.773H308.461V125.625H307.512V123.641C307.236 123.932 306.876 124.078 306.434 124.078C305.928 124.078 305.523 123.882 305.219 123.488C304.914 123.092 304.762 122.547 304.762 121.852ZM305.711 121.934C305.711 122.366 305.796 122.706 305.965 122.953C306.137 123.198 306.374 123.32 306.676 123.32C307.051 123.32 307.329 123.16 307.512 122.84V120.918C307.329 120.611 307.053 120.457 306.684 120.457C306.382 120.457 306.143 120.578 305.969 120.82C305.797 121.062 305.711 121.434 305.711 121.934Z" fill="black"/>
<rect x="243" y="132" width="100" height="170" fill="#465902"/>
<path d="M121.188 322.666H122.055V324.189H121.188V326H119.213V324.189H115.914L115.797 322.982L119.213 317.486V317.469H121.188V322.666ZM117.678 322.666H119.213V320.041L119.09 320.24L117.678 322.666ZM128.477 323.234L129.531 319.66H131.646L129.062 327.061L128.951 327.33C128.584 328.15 127.936 328.561 127.006 328.561C126.748 328.561 126.477 328.521 126.191 328.443V327.031H126.449C126.727 327.031 126.938 326.99 127.082 326.908C127.23 326.83 127.34 326.688 127.41 326.48L127.568 326.059L125.365 319.66H127.475L128.477 323.234ZM135.15 326.117C134.178 326.117 133.391 325.828 132.789 325.25C132.188 324.668 131.887 323.912 131.887 322.982V322.818C131.887 322.17 132.006 321.598 132.244 321.102C132.486 320.605 132.838 320.223 133.299 319.953C133.76 319.68 134.307 319.543 134.939 319.543C135.83 319.543 136.533 319.82 137.049 320.375C137.564 320.926 137.822 321.695 137.822 322.684V323.451H133.896C133.967 323.807 134.121 324.086 134.359 324.289C134.598 324.492 134.906 324.594 135.285 324.594C135.91 324.594 136.398 324.375 136.75 323.938L137.652 325.004C137.406 325.344 137.057 325.615 136.604 325.818C136.154 326.018 135.67 326.117 135.15 326.117ZM134.928 321.066C134.35 321.066 134.006 321.449 133.896 322.215H135.889V322.062C135.896 321.746 135.816 321.502 135.648 321.33C135.48 321.154 135.24 321.066 134.928 321.066ZM142.193 326C142.123 325.871 142.061 325.682 142.006 325.432C141.643 325.889 141.135 326.117 140.482 326.117C139.885 326.117 139.377 325.938 138.959 325.578C138.541 325.215 138.332 324.76 138.332 324.213C138.332 323.525 138.586 323.006 139.094 322.654C139.602 322.303 140.34 322.127 141.309 322.127H141.918V321.793C141.918 321.211 141.666 320.92 141.162 320.92C140.693 320.92 140.459 321.15 140.459 321.611H138.484C138.484 320.998 138.744 320.5 139.264 320.117C139.787 319.734 140.453 319.543 141.262 319.543C142.07 319.543 142.709 319.74 143.178 320.135C143.646 320.529 143.887 321.07 143.898 321.758V324.564C143.906 325.146 143.996 325.592 144.168 325.9V326H142.193ZM140.957 324.711C141.203 324.711 141.406 324.658 141.566 324.553C141.73 324.447 141.848 324.328 141.918 324.195V323.182H141.344C140.656 323.182 140.312 323.49 140.312 324.107C140.312 324.287 140.373 324.434 140.494 324.547C140.615 324.656 140.77 324.711 140.957 324.711ZM148.832 321.447L148.182 321.4C147.561 321.4 147.162 321.596 146.986 321.986V326H145.012V319.66H146.863L146.928 320.475C147.26 319.854 147.723 319.543 148.316 319.543C148.527 319.543 148.711 319.566 148.867 319.613L148.832 321.447ZM152.863 324.219C152.863 324.051 152.775 323.916 152.6 323.814C152.424 323.713 152.09 323.607 151.598 323.498C151.105 323.389 150.699 323.246 150.379 323.07C150.059 322.891 149.814 322.674 149.646 322.42C149.479 322.166 149.395 321.875 149.395 321.547C149.395 320.965 149.635 320.486 150.115 320.111C150.596 319.732 151.225 319.543 152.002 319.543C152.838 319.543 153.51 319.732 154.018 320.111C154.525 320.49 154.779 320.988 154.779 321.605H152.799C152.799 321.098 152.531 320.844 151.996 320.844C151.789 320.844 151.615 320.902 151.475 321.02C151.334 321.133 151.264 321.275 151.264 321.447C151.264 321.623 151.35 321.766 151.521 321.875C151.693 321.984 151.967 322.074 152.342 322.145C152.721 322.215 153.053 322.299 153.338 322.396C154.291 322.725 154.768 323.312 154.768 324.16C154.768 324.738 154.51 325.209 153.994 325.572C153.482 325.936 152.818 326.117 152.002 326.117C151.459 326.117 150.975 326.02 150.549 325.824C150.123 325.629 149.791 325.363 149.553 325.027C149.314 324.691 149.195 324.338 149.195 323.967H151.041C151.049 324.26 151.146 324.475 151.334 324.611C151.521 324.744 151.762 324.811 152.055 324.811C152.324 324.811 152.525 324.756 152.658 324.646C152.795 324.537 152.863 324.395 152.863 324.219ZM160.768 326H158.787V317H160.768V326ZM164.072 326H162.092V319.66H164.072V326ZM161.975 318.025C161.975 317.744 162.076 317.514 162.279 317.334C162.482 317.154 162.746 317.064 163.07 317.064C163.395 317.064 163.658 317.154 163.861 317.334C164.064 317.514 164.166 317.744 164.166 318.025C164.166 318.307 164.064 318.537 163.861 318.717C163.658 318.896 163.395 318.986 163.07 318.986C162.746 318.986 162.482 318.896 162.279 318.717C162.076 318.537 161.975 318.307 161.975 318.025ZM165.73 326V321.031H164.811V319.66H165.73V319.156C165.73 318.434 165.943 317.873 166.369 317.475C166.795 317.076 167.393 316.877 168.162 316.877C168.443 316.877 168.752 316.918 169.088 317L169.094 318.453C168.973 318.418 168.811 318.4 168.607 318.4C168.01 318.4 167.711 318.658 167.711 319.174V319.66H168.947V321.031H167.711V326H165.73ZM172.568 326.117C171.596 326.117 170.809 325.828 170.207 325.25C169.605 324.668 169.305 323.912 169.305 322.982V322.818C169.305 322.17 169.424 321.598 169.662 321.102C169.904 320.605 170.256 320.223 170.717 319.953C171.178 319.68 171.725 319.543 172.357 319.543C173.248 319.543 173.951 319.82 174.467 320.375C174.982 320.926 175.24 321.695 175.24 322.684V323.451H171.314C171.385 323.807 171.539 324.086 171.777 324.289C172.016 324.492 172.324 324.594 172.703 324.594C173.328 324.594 173.816 324.375 174.168 323.938L175.07 325.004C174.824 325.344 174.475 325.615 174.021 325.818C173.572 326.018 173.088 326.117 172.568 326.117ZM172.346 321.066C171.768 321.066 171.424 321.449 171.314 322.215H173.307V322.062C173.314 321.746 173.234 321.502 173.066 321.33C172.898 321.154 172.658 321.066 172.346 321.066ZM179.359 324.219C179.359 324.051 179.271 323.916 179.096 323.814C178.92 323.713 178.586 323.607 178.094 323.498C177.602 323.389 177.195 323.246 176.875 323.07C176.555 322.891 176.311 322.674 176.143 322.42C175.975 322.166 175.891 321.875 175.891 321.547C175.891 320.965 176.131 320.486 176.611 320.111C177.092 319.732 177.721 319.543 178.498 319.543C179.334 319.543 180.006 319.732 180.514 320.111C181.021 320.49 181.275 320.988 181.275 321.605H179.295C179.295 321.098 179.027 320.844 178.492 320.844C178.285 320.844 178.111 320.902 177.971 321.02C177.83 321.133 177.76 321.275 177.76 321.447C177.76 321.623 177.846 321.766 178.018 321.875C178.189 321.984 178.463 322.074 178.838 322.145C179.217 322.215 179.549 322.299 179.834 322.396C180.787 322.725 181.264 323.312 181.264 324.16C181.264 324.738 181.006 325.209 180.49 325.572C179.979 325.936 179.314 326.117 178.498 326.117C177.955 326.117 177.471 326.02 177.045 325.824C176.619 325.629 176.287 325.363 176.049 325.027C175.811 324.691 175.691 324.338 175.691 323.967H177.537C177.545 324.26 177.643 324.475 177.83 324.611C178.018 324.744 178.258 324.811 178.551 324.811C178.82 324.811 179.021 324.756 179.154 324.646C179.291 324.537 179.359 324.395 179.359 324.219ZM188.078 322.877C188.078 323.861 187.855 324.648 187.41 325.238C186.969 325.824 186.371 326.117 185.617 326.117C185.035 326.117 184.557 325.904 184.182 325.479V328.438H182.207V319.66H184.053L184.111 320.246C184.49 319.777 184.988 319.543 185.605 319.543C186.387 319.543 186.994 319.832 187.428 320.41C187.861 320.984 188.078 321.775 188.078 322.783V322.877ZM186.104 322.754C186.104 321.629 185.775 321.066 185.119 321.066C184.65 321.066 184.338 321.234 184.182 321.57V324.066C184.354 324.418 184.67 324.594 185.131 324.594C185.76 324.594 186.084 324.051 186.104 322.965V322.754ZM192.525 326C192.455 325.871 192.393 325.682 192.338 325.432C191.975 325.889 191.467 326.117 190.814 326.117C190.217 326.117 189.709 325.938 189.291 325.578C188.873 325.215 188.664 324.76 188.664 324.213C188.664 323.525 188.918 323.006 189.426 322.654C189.934 322.303 190.672 322.127 191.641 322.127H192.25V321.793C192.25 321.211 191.998 320.92 191.494 320.92C191.025 320.92 190.791 321.15 190.791 321.611H188.816C188.816 320.998 189.076 320.5 189.596 320.117C190.119 319.734 190.785 319.543 191.594 319.543C192.402 319.543 193.041 319.74 193.51 320.135C193.979 320.529 194.219 321.07 194.23 321.758V324.564C194.238 325.146 194.328 325.592 194.5 325.9V326H192.525ZM191.289 324.711C191.535 324.711 191.738 324.658 191.898 324.553C192.062 324.447 192.18 324.328 192.25 324.195V323.182H191.676C190.988 323.182 190.645 323.49 190.645 324.107C190.645 324.287 190.705 324.434 190.826 324.547C190.947 324.656 191.102 324.711 191.289 324.711ZM197.143 319.66L197.207 320.404C197.645 319.83 198.248 319.543 199.018 319.543C199.678 319.543 200.17 319.74 200.494 320.135C200.822 320.529 200.992 321.123 201.004 321.916V326H199.023V321.998C199.023 321.678 198.959 321.443 198.83 321.295C198.701 321.143 198.467 321.066 198.127 321.066C197.74 321.066 197.453 321.219 197.266 321.523V326H195.291V319.66H197.143Z" fill="#5A5A5A"/>
<path d="M143.888 107H142.706V101.292L140.963 101.888V100.887L143.736 99.8662H143.888V107ZM149.571 107H148.39V101.292L146.646 101.888V100.887L149.42 99.8662H149.571V107ZM152.359 103.475L152.745 99.8906H156.563V100.916H153.731L153.536 102.615C153.865 102.426 154.236 102.332 154.649 102.332C155.326 102.332 155.852 102.549 156.227 102.981C156.604 103.414 156.793 103.997 156.793 104.729C156.793 105.452 156.585 106.028 156.168 106.458C155.751 106.884 155.18 107.098 154.454 107.098C153.803 107.098 153.263 106.914 152.833 106.546C152.407 106.175 152.175 105.687 152.14 105.081H153.287C153.333 105.426 153.456 105.691 153.658 105.877C153.86 106.059 154.124 106.15 154.449 106.15C154.814 106.15 155.097 106.02 155.299 105.76C155.504 105.499 155.606 105.145 155.606 104.695C155.606 104.262 155.494 103.921 155.27 103.67C155.045 103.416 154.736 103.289 154.342 103.289C154.127 103.289 153.945 103.318 153.795 103.377C153.645 103.432 153.482 103.543 153.307 103.709L152.359 103.475ZM163.365 106.077C163.108 106.412 162.752 106.666 162.296 106.839C161.84 107.011 161.323 107.098 160.743 107.098C160.147 107.098 159.62 106.963 159.161 106.692C158.702 106.422 158.347 106.036 158.097 105.535C157.849 105.031 157.721 104.443 157.711 103.772V103.216C157.711 102.142 157.968 101.303 158.482 100.701C158.997 100.096 159.715 99.793 160.636 99.793C161.427 99.793 162.055 99.9883 162.521 100.379C162.986 100.77 163.266 101.333 163.36 102.068H162.149C162.013 101.212 161.516 100.784 160.66 100.784C160.107 100.784 159.685 100.984 159.396 101.385C159.109 101.782 158.961 102.366 158.951 103.138V103.685C158.951 104.453 159.112 105.05 159.435 105.477C159.76 105.9 160.211 106.111 160.787 106.111C161.419 106.111 161.868 105.968 162.135 105.682V104.29H160.67V103.353H163.365V106.077Z" fill="black"/>
<path d="M166.504 110.078C165.902 110.078 165.414 109.889 165.039 109.512C164.667 109.132 164.48 108.626 164.48 107.996V107.879C164.48 107.457 164.561 107.081 164.723 106.75C164.887 106.417 165.116 106.158 165.41 105.973C165.704 105.788 166.033 105.695 166.395 105.695C166.97 105.695 167.414 105.879 167.727 106.246C168.042 106.613 168.199 107.133 168.199 107.805V108.188H165.438C165.466 108.536 165.582 108.812 165.785 109.016C165.991 109.219 166.249 109.32 166.559 109.32C166.993 109.32 167.348 109.145 167.621 108.793L168.133 109.281C167.964 109.534 167.737 109.73 167.453 109.871C167.172 110.009 166.855 110.078 166.504 110.078ZM166.391 106.457C166.13 106.457 165.919 106.548 165.758 106.73C165.599 106.913 165.497 107.167 165.453 107.492H167.262V107.422C167.241 107.104 167.156 106.865 167.008 106.703C166.859 106.539 166.654 106.457 166.391 106.457ZM168.762 107.852C168.762 107.19 168.913 106.665 169.215 106.277C169.517 105.889 169.926 105.695 170.441 105.695C170.913 105.695 171.286 105.861 171.562 106.191L171.617 105.773H172.461V111.625H171.512V109.641C171.236 109.932 170.876 110.078 170.434 110.078C169.928 110.078 169.523 109.882 169.219 109.488C168.914 109.092 168.762 108.547 168.762 107.852ZM169.711 107.934C169.711 108.366 169.796 108.706 169.965 108.953C170.137 109.198 170.374 109.32 170.676 109.32C171.051 109.32 171.329 109.16 171.512 108.84V106.918C171.329 106.611 171.053 106.457 170.684 106.457C170.382 106.457 170.143 106.578 169.969 106.82C169.797 107.062 169.711 107.434 169.711 107.934Z" fill="black"/>
<rect x="107" y="118" width="100" height="184" fill="#465902"/>
<path d="M517.451 317.346V318.898H517.363C516.625 318.898 516.018 319.076 515.541 319.432C515.068 319.783 514.777 320.273 514.668 320.902C515.113 320.465 515.676 320.246 516.355 320.246C517.094 320.246 517.682 320.516 518.119 321.055C518.557 321.594 518.775 322.301 518.775 323.176C518.775 323.719 518.646 324.217 518.389 324.67C518.135 325.123 517.777 325.479 517.316 325.736C516.859 325.99 516.352 326.117 515.793 326.117C515.188 326.117 514.646 325.98 514.17 325.707C513.693 325.43 513.322 325.035 513.057 324.523C512.791 324.012 512.654 323.422 512.646 322.754V321.963C512.646 321.084 512.834 320.295 513.209 319.596C513.588 318.893 514.127 318.342 514.826 317.943C515.525 317.545 516.301 317.346 517.152 317.346H517.451ZM515.67 321.758C515.408 321.758 515.189 321.818 515.014 321.939C514.838 322.061 514.707 322.209 514.621 322.385V322.977C514.621 324.055 514.994 324.594 515.74 324.594C516.041 324.594 516.291 324.459 516.49 324.189C516.693 323.92 516.795 323.582 516.795 323.176C516.795 322.758 516.691 322.418 516.484 322.156C516.281 321.891 516.01 321.758 515.67 321.758ZM520.885 324.084C521.197 324.084 521.457 324.178 521.664 324.365C521.871 324.549 521.975 324.785 521.975 325.074C521.975 325.363 521.871 325.602 521.664 325.789C521.457 325.973 521.197 326.064 520.885 326.064C520.568 326.064 520.307 325.971 520.1 325.783C519.896 325.596 519.795 325.359 519.795 325.074C519.795 324.789 519.896 324.553 520.1 324.365C520.307 324.178 520.568 324.084 520.885 324.084ZM523.381 321.828L523.902 317.469H528.889V319.004H525.508L525.314 320.697C525.455 320.615 525.639 320.543 525.865 320.48C526.096 320.418 526.32 320.387 526.539 320.387C527.387 320.387 528.037 320.639 528.49 321.143C528.947 321.643 529.176 322.346 529.176 323.252C529.176 323.799 529.053 324.295 528.807 324.74C528.564 325.182 528.223 325.521 527.781 325.76C527.34 325.998 526.818 326.117 526.217 326.117C525.682 326.117 525.18 326.008 524.711 325.789C524.242 325.566 523.875 325.264 523.609 324.881C523.344 324.494 523.213 324.059 523.217 323.574H525.197C525.217 323.887 525.316 324.135 525.496 324.318C525.676 324.502 525.912 324.594 526.205 324.594C526.869 324.594 527.201 324.102 527.201 323.117C527.201 322.207 526.795 321.752 525.982 321.752C525.521 321.752 525.178 321.9 524.951 322.197L523.381 321.828ZM535.768 323.234L536.822 319.66H538.938L536.354 327.061L536.242 327.33C535.875 328.15 535.227 328.561 534.297 328.561C534.039 328.561 533.768 328.521 533.482 328.443V327.031H533.74C534.018 327.031 534.229 326.99 534.373 326.908C534.521 326.83 534.631 326.688 534.701 326.48L534.859 326.059L532.656 319.66H534.766L535.768 323.234ZM542.441 326.117C541.469 326.117 540.682 325.828 540.08 325.25C539.479 324.668 539.178 323.912 539.178 322.982V322.818C539.178 322.17 539.297 321.598 539.535 321.102C539.777 320.605 540.129 320.223 540.59 319.953C541.051 319.68 541.598 319.543 542.23 319.543C543.121 319.543 543.824 319.82 544.34 320.375C544.855 320.926 545.113 321.695 545.113 322.684V323.451H541.188C541.258 323.807 541.412 324.086 541.65 324.289C541.889 324.492 542.197 324.594 542.576 324.594C543.201 324.594 543.689 324.375 544.041 323.938L544.943 325.004C544.697 325.344 544.348 325.615 543.895 325.818C543.445 326.018 542.961 326.117 542.441 326.117ZM542.219 321.066C541.641 321.066 541.297 321.449 541.188 322.215H543.18V322.062C543.188 321.746 543.107 321.502 542.939 321.33C542.771 321.154 542.531 321.066 542.219 321.066ZM549.484 326C549.414 325.871 549.352 325.682 549.297 325.432C548.934 325.889 548.426 326.117 547.773 326.117C547.176 326.117 546.668 325.938 546.25 325.578C545.832 325.215 545.623 324.76 545.623 324.213C545.623 323.525 545.877 323.006 546.385 322.654C546.893 322.303 547.631 322.127 548.6 322.127H549.209V321.793C549.209 321.211 548.957 320.92 548.453 320.92C547.984 320.92 547.75 321.15 547.75 321.611H545.775C545.775 320.998 546.035 320.5 546.555 320.117C547.078 319.734 547.744 319.543 548.553 319.543C549.361 319.543 550 319.74 550.469 320.135C550.938 320.529 551.178 321.07 551.189 321.758V324.564C551.197 325.146 551.287 325.592 551.459 325.9V326H549.484ZM548.248 324.711C548.494 324.711 548.697 324.658 548.857 324.553C549.021 324.447 549.139 324.328 549.209 324.195V323.182H548.635C547.947 323.182 547.604 323.49 547.604 324.107C547.604 324.287 547.664 324.434 547.785 324.547C547.906 324.656 548.061 324.711 548.248 324.711ZM556.123 321.447L555.473 321.4C554.852 321.4 554.453 321.596 554.277 321.986V326H552.303V319.66H554.154L554.219 320.475C554.551 319.854 555.014 319.543 555.607 319.543C555.818 319.543 556.002 319.566 556.158 319.613L556.123 321.447ZM560.154 324.219C560.154 324.051 560.066 323.916 559.891 323.814C559.715 323.713 559.381 323.607 558.889 323.498C558.396 323.389 557.99 323.246 557.67 323.07C557.35 322.891 557.105 322.674 556.938 322.42C556.77 322.166 556.686 321.875 556.686 321.547C556.686 320.965 556.926 320.486 557.406 320.111C557.887 319.732 558.516 319.543 559.293 319.543C560.129 319.543 560.801 319.732 561.309 320.111C561.816 320.49 562.07 320.988 562.07 321.605H560.09C560.09 321.098 559.822 320.844 559.287 320.844C559.08 320.844 558.906 320.902 558.766 321.02C558.625 321.133 558.555 321.275 558.555 321.447C558.555 321.623 558.641 321.766 558.812 321.875C558.984 321.984 559.258 322.074 559.633 322.145C560.012 322.215 560.344 322.299 560.629 322.396C561.582 322.725 562.059 323.312 562.059 324.16C562.059 324.738 561.801 325.209 561.285 325.572C560.773 325.936 560.109 326.117 559.293 326.117C558.75 326.117 558.266 326.02 557.84 325.824C557.414 325.629 557.082 325.363 556.844 325.027C556.605 324.691 556.486 324.338 556.486 323.967H558.332C558.34 324.26 558.438 324.475 558.625 324.611C558.812 324.744 559.053 324.811 559.346 324.811C559.615 324.811 559.816 324.756 559.949 324.646C560.086 324.537 560.154 324.395 560.154 324.219ZM568.059 326H566.078V317H568.059V326ZM571.363 326H569.383V319.66H571.363V326ZM569.266 318.025C569.266 317.744 569.367 317.514 569.57 317.334C569.773 317.154 570.037 317.064 570.361 317.064C570.686 317.064 570.949 317.154 571.152 317.334C571.355 317.514 571.457 317.744 571.457 318.025C571.457 318.307 571.355 318.537 571.152 318.717C570.949 318.896 570.686 318.986 570.361 318.986C570.037 318.986 569.773 318.896 569.57 318.717C569.367 318.537 569.266 318.307 569.266 318.025ZM573.021 326V321.031H572.102V319.66H573.021V319.156C573.021 318.434 573.234 317.873 573.66 317.475C574.086 317.076 574.684 316.877 575.453 316.877C575.734 316.877 576.043 316.918 576.379 317L576.385 318.453C576.264 318.418 576.102 318.4 575.898 318.4C575.301 318.4 575.002 318.658 575.002 319.174V319.66H576.238V321.031H575.002V326H573.021ZM579.859 326.117C578.887 326.117 578.1 325.828 577.498 325.25C576.896 324.668 576.596 323.912 576.596 322.982V322.818C576.596 322.17 576.715 321.598 576.953 321.102C577.195 320.605 577.547 320.223 578.008 319.953C578.469 319.68 579.016 319.543 579.648 319.543C580.539 319.543 581.242 319.82 581.758 320.375C582.273 320.926 582.531 321.695 582.531 322.684V323.451H578.605C578.676 323.807 578.83 324.086 579.068 324.289C579.307 324.492 579.615 324.594 579.994 324.594C580.619 324.594 581.107 324.375 581.459 323.938L582.361 325.004C582.115 325.344 581.766 325.615 581.312 325.818C580.863 326.018 580.379 326.117 579.859 326.117ZM579.637 321.066C579.059 321.066 578.715 321.449 578.605 322.215H580.598V322.062C580.605 321.746 580.525 321.502 580.357 321.33C580.189 321.154 579.949 321.066 579.637 321.066ZM586.65 324.219C586.65 324.051 586.562 323.916 586.387 323.814C586.211 323.713 585.877 323.607 585.385 323.498C584.893 323.389 584.486 323.246 584.166 323.07C583.846 322.891 583.602 322.674 583.434 322.42C583.266 322.166 583.182 321.875 583.182 321.547C583.182 320.965 583.422 320.486 583.902 320.111C584.383 319.732 585.012 319.543 585.789 319.543C586.625 319.543 587.297 319.732 587.805 320.111C588.312 320.49 588.566 320.988 588.566 321.605H586.586C586.586 321.098 586.318 320.844 585.783 320.844C585.576 320.844 585.402 320.902 585.262 321.02C585.121 321.133 585.051 321.275 585.051 321.447C585.051 321.623 585.137 321.766 585.309 321.875C585.48 321.984 585.754 322.074 586.129 322.145C586.508 322.215 586.84 322.299 587.125 322.396C588.078 322.725 588.555 323.312 588.555 324.16C588.555 324.738 588.297 325.209 587.781 325.572C587.27 325.936 586.605 326.117 585.789 326.117C585.246 326.117 584.762 326.02 584.336 325.824C583.91 325.629 583.578 325.363 583.34 325.027C583.102 324.691 582.982 324.338 582.982 323.967H584.828C584.836 324.26 584.934 324.475 585.121 324.611C585.309 324.744 585.549 324.811 585.842 324.811C586.111 324.811 586.312 324.756 586.445 324.646C586.582 324.537 586.65 324.395 586.65 324.219ZM595.369 322.877C595.369 323.861 595.146 324.648 594.701 325.238C594.26 325.824 593.662 326.117 592.908 326.117C592.326 326.117 591.848 325.904 591.473 325.479V328.438H589.498V319.66H591.344L591.402 320.246C591.781 319.777 592.279 319.543 592.896 319.543C593.678 319.543 594.285 319.832 594.719 320.41C595.152 320.984 595.369 321.775 595.369 322.783V322.877ZM593.395 322.754C593.395 321.629 593.066 321.066 592.41 321.066C591.941 321.066 591.629 321.234 591.473 321.57V324.066C591.645 324.418 591.961 324.594 592.422 324.594C593.051 324.594 593.375 324.051 593.395 322.965V322.754ZM599.816 326C599.746 325.871 599.684 325.682 599.629 325.432C599.266 325.889 598.758 326.117 598.105 326.117C597.508 326.117 597 325.938 596.582 325.578C596.164 325.215 595.955 324.76 595.955 324.213C595.955 323.525 596.209 323.006 596.717 322.654C597.225 322.303 597.963 322.127 598.932 322.127H599.541V321.793C599.541 321.211 599.289 320.92 598.785 320.92C598.316 320.92 598.082 321.15 598.082 321.611H596.107C596.107 320.998 596.367 320.5 596.887 320.117C597.41 319.734 598.076 319.543 598.885 319.543C599.693 319.543 600.332 319.74 600.801 320.135C601.27 320.529 601.51 321.07 601.521 321.758V324.564C601.529 325.146 601.619 325.592 601.791 325.9V326H599.816ZM598.58 324.711C598.826 324.711 599.029 324.658 599.189 324.553C599.354 324.447 599.471 324.328 599.541 324.195V323.182H598.967C598.279 323.182 597.936 323.49 597.936 324.107C597.936 324.287 597.996 324.434 598.117 324.547C598.238 324.656 598.393 324.711 598.58 324.711ZM604.434 319.66L604.498 320.404C604.936 319.83 605.539 319.543 606.309 319.543C606.969 319.543 607.461 319.74 607.785 320.135C608.113 320.529 608.283 321.123 608.295 321.916V326H606.314V321.998C606.314 321.678 606.25 321.443 606.121 321.295C605.992 321.143 605.758 321.066 605.418 321.066C605.031 321.066 604.744 321.219 604.557 321.523V326H602.582V319.66H604.434Z" fill="#5A5A5A"/>
<path d="M544.254 237.903H544.977C545.341 237.9 545.629 237.806 545.841 237.62C546.056 237.435 546.163 237.166 546.163 236.814C546.163 236.476 546.074 236.214 545.895 236.028C545.719 235.84 545.449 235.745 545.084 235.745C544.765 235.745 544.503 235.838 544.298 236.023C544.093 236.206 543.99 236.445 543.99 236.741H542.804C542.804 236.377 542.9 236.045 543.092 235.745C543.287 235.446 543.557 235.213 543.902 235.047C544.251 234.878 544.64 234.793 545.069 234.793C545.779 234.793 546.336 234.972 546.739 235.33C547.146 235.685 547.35 236.18 547.35 236.814C547.35 237.133 547.247 237.435 547.042 237.718C546.84 237.998 546.578 238.209 546.256 238.353C546.646 238.486 546.943 238.696 547.145 238.982C547.35 239.269 547.452 239.611 547.452 240.008C547.452 240.646 547.232 241.154 546.793 241.531C546.357 241.909 545.782 242.098 545.069 242.098C544.386 242.098 543.826 241.915 543.39 241.551C542.953 241.186 542.735 240.701 542.735 240.096H543.922C543.922 240.408 544.026 240.662 544.234 240.857C544.446 241.053 544.729 241.15 545.084 241.15C545.452 241.15 545.742 241.053 545.953 240.857C546.165 240.662 546.271 240.379 546.271 240.008C546.271 239.633 546.16 239.345 545.938 239.144C545.717 238.942 545.388 238.841 544.952 238.841H544.254V237.903ZM553.199 239.007C553.199 240.029 553.007 240.8 552.623 241.321C552.242 241.839 551.661 242.098 550.88 242.098C550.112 242.098 549.532 241.845 549.142 241.341C548.754 240.833 548.556 240.083 548.546 239.09V237.859C548.546 236.837 548.736 236.071 549.117 235.56C549.501 235.049 550.086 234.793 550.87 234.793C551.648 234.793 552.228 235.042 552.608 235.54C552.993 236.038 553.189 236.784 553.199 237.776V239.007ZM552.013 237.679C552.013 237.011 551.922 236.523 551.739 236.214C551.557 235.901 551.267 235.745 550.87 235.745C550.483 235.745 550.198 235.893 550.016 236.189C549.833 236.482 549.737 236.941 549.728 237.566V239.178C549.728 239.842 549.82 240.337 550.006 240.662C550.191 240.988 550.483 241.15 550.88 241.15C551.261 241.15 551.542 241.001 551.725 240.701C551.907 240.398 552.003 239.926 552.013 239.285V237.679ZM555.064 240.75C555.286 240.75 555.457 240.813 555.577 240.94C555.698 241.064 555.758 241.22 555.758 241.409C555.758 241.595 555.698 241.749 555.577 241.873C555.457 241.993 555.286 242.054 555.064 242.054C554.853 242.054 554.685 241.993 554.562 241.873C554.438 241.753 554.376 241.598 554.376 241.409C554.376 241.22 554.436 241.064 554.557 240.94C554.677 240.813 554.846 240.75 555.064 240.75ZM560.255 242H559.073V236.292L557.33 236.888V235.887L560.104 234.866H560.255V242ZM568.365 241.077C568.108 241.412 567.752 241.666 567.296 241.839C566.84 242.011 566.323 242.098 565.743 242.098C565.147 242.098 564.62 241.963 564.161 241.692C563.702 241.422 563.347 241.036 563.097 240.535C562.849 240.031 562.721 239.443 562.711 238.772V238.216C562.711 237.142 562.968 236.303 563.482 235.701C563.997 235.096 564.715 234.793 565.636 234.793C566.427 234.793 567.055 234.988 567.521 235.379C567.986 235.77 568.266 236.333 568.36 237.068H567.149C567.013 236.212 566.516 235.784 565.66 235.784C565.107 235.784 564.685 235.984 564.396 236.385C564.109 236.782 563.961 237.366 563.951 238.138V238.685C563.951 239.453 564.112 240.05 564.435 240.477C564.76 240.9 565.211 241.111 565.787 241.111C566.419 241.111 566.868 240.968 567.135 240.682V239.29H565.67V238.353H568.365V241.077Z" fill="black"/>
<path d="M571.504 245.078C570.902 245.078 570.414 244.889 570.039 244.512C569.667 244.132 569.48 243.626 569.48 242.996V242.879C569.48 242.457 569.561 242.081 569.723 241.75C569.887 241.417 570.116 241.158 570.41 240.973C570.704 240.788 571.033 240.695 571.395 240.695C571.97 240.695 572.414 240.879 572.727 241.246C573.042 241.613 573.199 242.133 573.199 242.805V243.188H570.438C570.466 243.536 570.582 243.812 570.785 244.016C570.991 244.219 571.249 244.32 571.559 244.32C571.993 244.32 572.348 244.145 572.621 243.793L573.133 244.281C572.964 244.534 572.737 244.73 572.453 244.871C572.172 245.009 571.855 245.078 571.504 245.078ZM571.391 241.457C571.13 241.457 570.919 241.548 570.758 241.73C570.599 241.913 570.497 242.167 570.453 242.492H572.262V242.422C572.241 242.104 572.156 241.865 572.008 241.703C571.859 241.539 571.654 241.457 571.391 241.457ZM573.762 242.852C573.762 242.19 573.913 241.665 574.215 241.277C574.517 240.889 574.926 240.695 575.441 240.695C575.913 240.695 576.286 240.861 576.562 241.191L576.617 240.773H577.461V246.625H576.512V244.641C576.236 244.932 575.876 245.078 575.434 245.078C574.928 245.078 574.523 244.882 574.219 244.488C573.914 244.092 573.762 243.547 573.762 242.852ZM574.711 242.934C574.711 243.366 574.796 243.706 574.965 243.953C575.137 244.198 575.374 244.32 575.676 244.32C576.051 244.32 576.329 244.16 576.512 243.84V241.918C576.329 241.611 576.053 241.457 575.684 241.457C575.382 241.457 575.143 241.578 574.969 241.82C574.797 242.062 574.711 242.434 574.711 242.934Z" fill="black"/>
<rect x="510" y="253" width="100" height="49" fill="#AABF0B"/>
<path d="M389.188 322.666H390.055V324.189H389.188V326H387.213V324.189H383.914L383.797 322.982L387.213 317.486V317.469H389.188V322.666ZM385.678 322.666H387.213V320.041L387.09 320.24L385.678 322.666ZM396.477 323.234L397.531 319.66H399.646L397.062 327.061L396.951 327.33C396.584 328.15 395.936 328.561 395.006 328.561C394.748 328.561 394.477 328.521 394.191 328.443V327.031H394.449C394.727 327.031 394.938 326.99 395.082 326.908C395.23 326.83 395.34 326.688 395.41 326.48L395.568 326.059L393.365 319.66H395.475L396.477 323.234ZM403.15 326.117C402.178 326.117 401.391 325.828 400.789 325.25C400.188 324.668 399.887 323.912 399.887 322.982V322.818C399.887 322.17 400.006 321.598 400.244 321.102C400.486 320.605 400.838 320.223 401.299 319.953C401.76 319.68 402.307 319.543 402.939 319.543C403.83 319.543 404.533 319.82 405.049 320.375C405.564 320.926 405.822 321.695 405.822 322.684V323.451H401.896C401.967 323.807 402.121 324.086 402.359 324.289C402.598 324.492 402.906 324.594 403.285 324.594C403.91 324.594 404.398 324.375 404.75 323.938L405.652 325.004C405.406 325.344 405.057 325.615 404.604 325.818C404.154 326.018 403.67 326.117 403.15 326.117ZM402.928 321.066C402.35 321.066 402.006 321.449 401.896 322.215H403.889V322.062C403.896 321.746 403.816 321.502 403.648 321.33C403.48 321.154 403.24 321.066 402.928 321.066ZM410.193 326C410.123 325.871 410.061 325.682 410.006 325.432C409.643 325.889 409.135 326.117 408.482 326.117C407.885 326.117 407.377 325.938 406.959 325.578C406.541 325.215 406.332 324.76 406.332 324.213C406.332 323.525 406.586 323.006 407.094 322.654C407.602 322.303 408.34 322.127 409.309 322.127H409.918V321.793C409.918 321.211 409.666 320.92 409.162 320.92C408.693 320.92 408.459 321.15 408.459 321.611H406.484C406.484 320.998 406.744 320.5 407.264 320.117C407.787 319.734 408.453 319.543 409.262 319.543C410.07 319.543 410.709 319.74 411.178 320.135C411.646 320.529 411.887 321.07 411.898 321.758V324.564C411.906 325.146 411.996 325.592 412.168 325.9V326H410.193ZM408.957 324.711C409.203 324.711 409.406 324.658 409.566 324.553C409.73 324.447 409.848 324.328 409.918 324.195V323.182H409.344C408.656 323.182 408.312 323.49 408.312 324.107C408.312 324.287 408.373 324.434 408.494 324.547C408.615 324.656 408.77 324.711 408.957 324.711ZM416.832 321.447L416.182 321.4C415.561 321.4 415.162 321.596 414.986 321.986V326H413.012V319.66H414.863L414.928 320.475C415.26 319.854 415.723 319.543 416.316 319.543C416.527 319.543 416.711 319.566 416.867 319.613L416.832 321.447ZM420.863 324.219C420.863 324.051 420.775 323.916 420.6 323.814C420.424 323.713 420.09 323.607 419.598 323.498C419.105 323.389 418.699 323.246 418.379 323.07C418.059 322.891 417.814 322.674 417.646 322.42C417.479 322.166 417.395 321.875 417.395 321.547C417.395 320.965 417.635 320.486 418.115 320.111C418.596 319.732 419.225 319.543 420.002 319.543C420.838 319.543 421.51 319.732 422.018 320.111C422.525 320.49 422.779 320.988 422.779 321.605H420.799C420.799 321.098 420.531 320.844 419.996 320.844C419.789 320.844 419.615 320.902 419.475 321.02C419.334 321.133 419.264 321.275 419.264 321.447C419.264 321.623 419.35 321.766 419.521 321.875C419.693 321.984 419.967 322.074 420.342 322.145C420.721 322.215 421.053 322.299 421.338 322.396C422.291 322.725 422.768 323.312 422.768 324.16C422.768 324.738 422.51 325.209 421.994 325.572C421.482 325.936 420.818 326.117 420.002 326.117C419.459 326.117 418.975 326.02 418.549 325.824C418.123 325.629 417.791 325.363 417.553 325.027C417.314 324.691 417.195 324.338 417.195 323.967H419.041C419.049 324.26 419.146 324.475 419.334 324.611C419.521 324.744 419.762 324.811 420.055 324.811C420.324 324.811 420.525 324.756 420.658 324.646C420.795 324.537 420.863 324.395 420.863 324.219ZM428.768 326H426.787V317H428.768V326ZM432.072 326H430.092V319.66H432.072V326ZM429.975 318.025C429.975 317.744 430.076 317.514 430.279 317.334C430.482 317.154 430.746 317.064 431.07 317.064C431.395 317.064 431.658 317.154 431.861 317.334C432.064 317.514 432.166 317.744 432.166 318.025C432.166 318.307 432.064 318.537 431.861 318.717C431.658 318.896 431.395 318.986 431.07 318.986C430.746 318.986 430.482 318.896 430.279 318.717C430.076 318.537 429.975 318.307 429.975 318.025ZM433.73 326V321.031H432.811V319.66H433.73V319.156C433.73 318.434 433.943 317.873 434.369 317.475C434.795 317.076 435.393 316.877 436.162 316.877C436.443 316.877 436.752 316.918 437.088 317L437.094 318.453C436.973 318.418 436.811 318.4 436.607 318.4C436.01 318.4 435.711 318.658 435.711 319.174V319.66H436.947V321.031H435.711V326H433.73ZM440.568 326.117C439.596 326.117 438.809 325.828 438.207 325.25C437.605 324.668 437.305 323.912 437.305 322.982V322.818C437.305 322.17 437.424 321.598 437.662 321.102C437.904 320.605 438.256 320.223 438.717 319.953C439.178 319.68 439.725 319.543 440.357 319.543C441.248 319.543 441.951 319.82 442.467 320.375C442.982 320.926 443.24 321.695 443.24 322.684V323.451H439.314C439.385 323.807 439.539 324.086 439.777 324.289C440.016 324.492 440.324 324.594 440.703 324.594C441.328 324.594 441.816 324.375 442.168 323.938L443.07 325.004C442.824 325.344 442.475 325.615 442.021 325.818C441.572 326.018 441.088 326.117 440.568 326.117ZM440.346 321.066C439.768 321.066 439.424 321.449 439.314 322.215H441.307V322.062C441.314 321.746 441.234 321.502 441.066 321.33C440.898 321.154 440.658 321.066 440.346 321.066ZM447.359 324.219C447.359 324.051 447.271 323.916 447.096 323.814C446.92 323.713 446.586 323.607 446.094 323.498C445.602 323.389 445.195 323.246 444.875 323.07C444.555 322.891 444.311 322.674 444.143 322.42C443.975 322.166 443.891 321.875 443.891 321.547C443.891 320.965 444.131 320.486 444.611 320.111C445.092 319.732 445.721 319.543 446.498 319.543C447.334 319.543 448.006 319.732 448.514 320.111C449.021 320.49 449.275 320.988 449.275 321.605H447.295C447.295 321.098 447.027 320.844 446.492 320.844C446.285 320.844 446.111 320.902 445.971 321.02C445.83 321.133 445.76 321.275 445.76 321.447C445.76 321.623 445.846 321.766 446.018 321.875C446.189 321.984 446.463 322.074 446.838 322.145C447.217 322.215 447.549 322.299 447.834 322.396C448.787 322.725 449.264 323.312 449.264 324.16C449.264 324.738 449.006 325.209 448.49 325.572C447.979 325.936 447.314 326.117 446.498 326.117C445.955 326.117 445.471 326.02 445.045 325.824C444.619 325.629 444.287 325.363 444.049 325.027C443.811 324.691 443.691 324.338 443.691 323.967H445.537C445.545 324.26 445.643 324.475 445.83 324.611C446.018 324.744 446.258 324.811 446.551 324.811C446.82 324.811 447.021 324.756 447.154 324.646C447.291 324.537 447.359 324.395 447.359 324.219ZM456.078 322.877C456.078 323.861 455.855 324.648 455.41 325.238C454.969 325.824 454.371 326.117 453.617 326.117C453.035 326.117 452.557 325.904 452.182 325.479V328.438H450.207V319.66H452.053L452.111 320.246C452.49 319.777 452.988 319.543 453.605 319.543C454.387 319.543 454.994 319.832 455.428 320.41C455.861 320.984 456.078 321.775 456.078 322.783V322.877ZM454.104 322.754C454.104 321.629 453.775 321.066 453.119 321.066C452.65 321.066 452.338 321.234 452.182 321.57V324.066C452.354 324.418 452.67 324.594 453.131 324.594C453.76 324.594 454.084 324.051 454.104 322.965V322.754ZM460.525 326C460.455 325.871 460.393 325.682 460.338 325.432C459.975 325.889 459.467 326.117 458.814 326.117C458.217 326.117 457.709 325.938 457.291 325.578C456.873 325.215 456.664 324.76 456.664 324.213C456.664 323.525 456.918 323.006 457.426 322.654C457.934 322.303 458.672 322.127 459.641 322.127H460.25V321.793C460.25 321.211 459.998 320.92 459.494 320.92C459.025 320.92 458.791 321.15 458.791 321.611H456.816C456.816 320.998 457.076 320.5 457.596 320.117C458.119 319.734 458.785 319.543 459.594 319.543C460.402 319.543 461.041 319.74 461.51 320.135C461.979 320.529 462.219 321.07 462.23 321.758V324.564C462.238 325.146 462.328 325.592 462.5 325.9V326H460.525ZM459.289 324.711C459.535 324.711 459.738 324.658 459.898 324.553C460.062 324.447 460.18 324.328 460.25 324.195V323.182H459.676C458.988 323.182 458.645 323.49 458.645 324.107C458.645 324.287 458.705 324.434 458.826 324.547C458.947 324.656 459.102 324.711 459.289 324.711ZM465.143 319.66L465.207 320.404C465.645 319.83 466.248 319.543 467.018 319.543C467.678 319.543 468.17 319.74 468.494 320.135C468.822 320.529 468.992 321.123 469.004 321.916V326H467.023V321.998C467.023 321.678 466.959 321.443 466.83 321.295C466.701 321.143 466.467 321.066 466.127 321.066C465.74 321.066 465.453 321.219 465.266 321.523V326H463.291V319.66H465.143Z" fill="#5A5A5A"/>
<path d="M415.73 224.903H416.453C416.818 224.9 417.106 224.806 417.317 224.62C417.532 224.435 417.64 224.166 417.64 223.814C417.64 223.476 417.55 223.214 417.371 223.028C417.195 222.84 416.925 222.745 416.561 222.745C416.242 222.745 415.979 222.838 415.774 223.023C415.569 223.206 415.467 223.445 415.467 223.741H414.28C414.28 223.377 414.376 223.045 414.568 222.745C414.764 222.446 415.034 222.213 415.379 222.047C415.727 221.878 416.116 221.793 416.546 221.793C417.256 221.793 417.812 221.972 418.216 222.33C418.623 222.685 418.826 223.18 418.826 223.814C418.826 224.133 418.724 224.435 418.519 224.718C418.317 224.998 418.055 225.209 417.732 225.353C418.123 225.486 418.419 225.696 418.621 225.982C418.826 226.269 418.929 226.611 418.929 227.008C418.929 227.646 418.709 228.154 418.27 228.531C417.833 228.909 417.259 229.098 416.546 229.098C415.862 229.098 415.302 228.915 414.866 228.551C414.43 228.186 414.212 227.701 414.212 227.096H415.398C415.398 227.408 415.503 227.662 415.711 227.857C415.923 228.053 416.206 228.15 416.561 228.15C416.928 228.15 417.218 228.053 417.43 227.857C417.641 227.662 417.747 227.379 417.747 227.008C417.747 226.633 417.636 226.345 417.415 226.144C417.194 225.942 416.865 225.841 416.429 225.841H415.73V224.903ZM423.406 226.026C423.009 226.446 422.545 226.656 422.015 226.656C421.39 226.656 420.892 226.438 420.521 226.002C420.149 225.562 419.964 224.986 419.964 224.273C419.964 223.805 420.058 223.38 420.247 222.999C420.436 222.618 420.704 222.322 421.053 222.11C421.401 221.899 421.805 221.793 422.264 221.793C422.98 221.793 423.548 222.06 423.968 222.594C424.388 223.128 424.598 223.842 424.598 224.737V225.069C424.598 226.352 424.308 227.33 423.729 228.004C423.149 228.678 422.285 229.02 421.136 229.029H420.994V228.048H421.165C421.865 228.038 422.402 227.87 422.776 227.545C423.151 227.216 423.361 226.71 423.406 226.026ZM422.264 225.729C422.501 225.729 422.724 225.66 422.933 225.523C423.141 225.387 423.302 225.198 423.416 224.957V224.493C423.416 223.969 423.309 223.548 423.094 223.229C422.879 222.91 422.601 222.75 422.259 222.75C421.917 222.75 421.644 222.892 421.438 223.175C421.237 223.455 421.136 223.81 421.136 224.239C421.136 224.685 421.238 225.045 421.443 225.318C421.648 225.592 421.922 225.729 422.264 225.729ZM431.365 228.077C431.108 228.412 430.752 228.666 430.296 228.839C429.84 229.011 429.323 229.098 428.743 229.098C428.147 229.098 427.62 228.963 427.161 228.692C426.702 228.422 426.347 228.036 426.097 227.535C425.849 227.031 425.721 226.443 425.711 225.772V225.216C425.711 224.142 425.968 223.303 426.482 222.701C426.997 222.096 427.715 221.793 428.636 221.793C429.427 221.793 430.055 221.988 430.521 222.379C430.986 222.77 431.266 223.333 431.36 224.068H430.149C430.013 223.212 429.516 222.784 428.66 222.784C428.107 222.784 427.685 222.984 427.396 223.385C427.109 223.782 426.961 224.366 426.951 225.138V225.685C426.951 226.453 427.112 227.05 427.435 227.477C427.76 227.9 428.211 228.111 428.787 228.111C429.419 228.111 429.868 227.968 430.135 227.682V226.29H428.67V225.353H431.365V228.077Z" fill="black"/>
<path d="M434.504 232.078C433.902 232.078 433.414 231.889 433.039 231.512C432.667 231.132 432.48 230.626 432.48 229.996V229.879C432.48 229.457 432.561 229.081 432.723 228.75C432.887 228.417 433.116 228.158 433.41 227.973C433.704 227.788 434.033 227.695 434.395 227.695C434.97 227.695 435.414 227.879 435.727 228.246C436.042 228.613 436.199 229.133 436.199 229.805V230.188H433.438C433.466 230.536 433.582 230.812 433.785 231.016C433.991 231.219 434.249 231.32 434.559 231.32C434.993 231.32 435.348 231.145 435.621 230.793L436.133 231.281C435.964 231.534 435.737 231.73 435.453 231.871C435.172 232.009 434.855 232.078 434.504 232.078ZM434.391 228.457C434.13 228.457 433.919 228.548 433.758 228.73C433.599 228.913 433.497 229.167 433.453 229.492H435.262V229.422C435.241 229.104 435.156 228.865 435.008 228.703C434.859 228.539 434.654 228.457 434.391 228.457ZM436.762 229.852C436.762 229.19 436.913 228.665 437.215 228.277C437.517 227.889 437.926 227.695 438.441 227.695C438.913 227.695 439.286 227.861 439.562 228.191L439.617 227.773H440.461V233.625H439.512V231.641C439.236 231.932 438.876 232.078 438.434 232.078C437.928 232.078 437.523 231.882 437.219 231.488C436.914 231.092 436.762 230.547 436.762 229.852ZM437.711 229.934C437.711 230.366 437.796 230.706 437.965 230.953C438.137 231.198 438.374 231.32 438.676 231.32C439.051 231.32 439.329 231.16 439.512 230.84V228.918C439.329 228.611 439.053 228.457 438.684 228.457C438.382 228.457 438.143 228.578 437.969 228.82C437.797 229.062 437.711 229.434 437.711 229.934Z" fill="black"/>
<rect x="377" y="240" width="100" height="62" fill="#AABF0B"/>
<path d="M24.8877 55H23.7061V49.292L21.9629 49.8877V48.8867L24.7363 47.8662H24.8877V55ZM27.6758 51.4746L28.0615 47.8906H31.8799V48.916H29.0479L28.8525 50.6152C29.1813 50.4264 29.5524 50.332 29.9658 50.332C30.6429 50.332 31.1686 50.5485 31.543 50.9814C31.9206 51.4144 32.1094 51.9971 32.1094 52.7295C32.1094 53.4521 31.901 54.0283 31.4844 54.458C31.0677 54.8844 30.4964 55.0977 29.7705 55.0977C29.1195 55.0977 28.5791 54.9137 28.1494 54.5459C27.723 54.1748 27.4919 53.6865 27.4561 53.0811H28.6035C28.6491 53.4261 28.7728 53.6914 28.9746 53.877C29.1764 54.0592 29.4401 54.1504 29.7656 54.1504C30.1302 54.1504 30.4134 54.0202 30.6152 53.7598C30.8203 53.4993 30.9229 53.1445 30.9229 52.6953C30.9229 52.2624 30.8105 51.9206 30.5859 51.6699C30.3613 51.416 30.0521 51.2891 29.6582 51.2891C29.4434 51.2891 29.2611 51.3184 29.1113 51.377C28.9616 51.4323 28.7988 51.543 28.623 51.709L27.6758 51.4746ZM37.6758 52.0068C37.6758 53.029 37.4837 53.8005 37.0996 54.3213C36.7188 54.8389 36.1377 55.0977 35.3564 55.0977C34.5882 55.0977 34.0088 54.8454 33.6182 54.3408C33.2308 53.833 33.0322 53.0827 33.0225 52.0898V50.8594C33.0225 49.8372 33.2129 49.0706 33.5938 48.5596C33.9779 48.0485 34.5622 47.793 35.3467 47.793C36.1247 47.793 36.7041 48.042 37.085 48.54C37.4691 49.0381 37.666 49.7835 37.6758 50.7764V52.0068ZM36.4893 50.6787C36.4893 50.0114 36.3981 49.5231 36.2158 49.2139C36.0335 48.9014 35.7438 48.7451 35.3467 48.7451C34.9593 48.7451 34.6745 48.8932 34.4922 49.1895C34.3099 49.4824 34.2139 49.9414 34.2041 50.5664V52.1777C34.2041 52.8418 34.2969 53.3366 34.4824 53.6621C34.668 53.9876 34.9593 54.1504 35.3564 54.1504C35.7373 54.1504 36.0189 54.0007 36.2012 53.7012C36.3835 53.3984 36.4795 52.9264 36.4893 52.2852V50.6787ZM44.3652 54.0771C44.1081 54.4124 43.7516 54.6663 43.2959 54.8389C42.8402 55.0114 42.3226 55.0977 41.7432 55.0977C41.1475 55.0977 40.6201 54.9626 40.1611 54.6924C39.7021 54.4222 39.3473 54.0365 39.0967 53.5352C38.8493 53.0306 38.7207 52.443 38.7109 51.7725V51.2158C38.7109 50.1416 38.9681 49.3034 39.4824 48.7012C39.9967 48.0957 40.7145 47.793 41.6357 47.793C42.4268 47.793 43.055 47.9883 43.5205 48.3789C43.986 48.7695 44.266 49.3327 44.3604 50.0684H43.1494C43.0127 49.2122 42.5163 48.7842 41.6602 48.7842C41.1068 48.7842 40.6852 48.9844 40.3955 49.3848C40.109 49.7819 39.9609 50.3662 39.9512 51.1377V51.6846C39.9512 52.4528 40.1123 53.0501 40.4346 53.4766C40.7601 53.8997 41.2109 54.1113 41.7871 54.1113C42.4186 54.1113 42.8678 53.9681 43.1348 53.6816V52.29H41.6699V51.3525H44.3652V54.0771Z" fill="black"/>
<path d="M24.8877 135H23.7061V129.292L21.9629 129.888V128.887L24.7363 127.866H24.8877V135ZM31.9922 132.007C31.9922 133.029 31.8001 133.8 31.416 134.321C31.0352 134.839 30.4541 135.098 29.6729 135.098C28.9046 135.098 28.3252 134.845 27.9346 134.341C27.5472 133.833 27.3486 133.083 27.3389 132.09V130.859C27.3389 129.837 27.5293 129.071 27.9102 128.56C28.2943 128.049 28.8786 127.793 29.6631 127.793C30.4411 127.793 31.0205 128.042 31.4014 128.54C31.7855 129.038 31.9824 129.784 31.9922 130.776V132.007ZM30.8057 130.679C30.8057 130.011 30.7145 129.523 30.5322 129.214C30.3499 128.901 30.0602 128.745 29.6631 128.745C29.2757 128.745 28.9909 128.893 28.8086 129.189C28.6263 129.482 28.5303 129.941 28.5205 130.566V132.178C28.5205 132.842 28.6133 133.337 28.7988 133.662C28.9844 133.988 29.2757 134.15 29.6729 134.15C30.0537 134.15 30.3353 134.001 30.5176 133.701C30.6999 133.398 30.7959 132.926 30.8057 132.285V130.679ZM37.6758 132.007C37.6758 133.029 37.4837 133.8 37.0996 134.321C36.7188 134.839 36.1377 135.098 35.3564 135.098C34.5882 135.098 34.0088 134.845 33.6182 134.341C33.2308 133.833 33.0322 133.083 33.0225 132.09V130.859C33.0225 129.837 33.2129 129.071 33.5938 128.56C33.9779 128.049 34.5622 127.793 35.3467 127.793C36.1247 127.793 36.7041 128.042 37.085 128.54C37.4691 129.038 37.666 129.784 37.6758 130.776V132.007ZM36.4893 130.679C36.4893 130.011 36.3981 129.523 36.2158 129.214C36.0335 128.901 35.7438 128.745 35.3467 128.745C34.9593 128.745 34.6745 128.893 34.4922 129.189C34.3099 129.482 34.2139 129.941 34.2041 130.566V132.178C34.2041 132.842 34.2969 133.337 34.4824 133.662C34.668 133.988 34.9593 134.15 35.3564 134.15C35.7373 134.15 36.0189 134.001 36.2012 133.701C36.3835 133.398 36.4795 132.926 36.4893 132.285V130.679ZM44.3652 134.077C44.1081 134.412 43.7516 134.666 43.2959 134.839C42.8402 135.011 42.3226 135.098 41.7432 135.098C41.1475 135.098 40.6201 134.963 40.1611 134.692C39.7021 134.422 39.3473 134.036 39.0967 133.535C38.8493 133.031 38.7207 132.443 38.7109 131.772V131.216C38.7109 130.142 38.9681 129.303 39.4824 128.701C39.9967 128.096 40.7145 127.793 41.6357 127.793C42.4268 127.793 43.055 127.988 43.5205 128.379C43.986 128.77 44.266 129.333 44.3604 130.068H43.1494C43.0127 129.212 42.5163 128.784 41.6602 128.784C41.1068 128.784 40.6852 128.984 40.3955 129.385C40.109 129.782 39.9609 130.366 39.9512 131.138V131.685C39.9512 132.453 40.1123 133.05 40.4346 133.477C40.7601 133.9 41.2109 134.111 41.7871 134.111C42.4186 134.111 42.8678 133.968 43.1348 133.682V132.29H41.6699V131.353H44.3652V134.077Z" fill="black"/>
<path d="M27.6758 211.475L28.0615 207.891H31.8799V208.916H29.0479L28.8525 210.615C29.1813 210.426 29.5524 210.332 29.9658 210.332C30.6429 210.332 31.1686 210.549 31.543 210.981C31.9206 211.414 32.1094 211.997 32.1094 212.729C32.1094 213.452 31.901 214.028 31.4844 214.458C31.0677 214.884 30.4964 215.098 29.7705 215.098C29.1195 215.098 28.5791 214.914 28.1494 214.546C27.723 214.175 27.4919 213.687 27.4561 213.081H28.6035C28.6491 213.426 28.7728 213.691 28.9746 213.877C29.1764 214.059 29.4401 214.15 29.7656 214.15C30.1302 214.15 30.4134 214.02 30.6152 213.76C30.8203 213.499 30.9229 213.145 30.9229 212.695C30.9229 212.262 30.8105 211.921 30.5859 211.67C30.3613 211.416 30.0521 211.289 29.6582 211.289C29.4434 211.289 29.2611 211.318 29.1113 211.377C28.9616 211.432 28.7988 211.543 28.623 211.709L27.6758 211.475ZM37.6758 212.007C37.6758 213.029 37.4837 213.8 37.0996 214.321C36.7188 214.839 36.1377 215.098 35.3564 215.098C34.5882 215.098 34.0088 214.845 33.6182 214.341C33.2308 213.833 33.0322 213.083 33.0225 212.09V210.859C33.0225 209.837 33.2129 209.071 33.5938 208.56C33.9779 208.049 34.5622 207.793 35.3467 207.793C36.1247 207.793 36.7041 208.042 37.085 208.54C37.4691 209.038 37.666 209.784 37.6758 210.776V212.007ZM36.4893 210.679C36.4893 210.011 36.3981 209.523 36.2158 209.214C36.0335 208.901 35.7438 208.745 35.3467 208.745C34.9593 208.745 34.6745 208.893 34.4922 209.189C34.3099 209.482 34.2139 209.941 34.2041 210.566V212.178C34.2041 212.842 34.2969 213.337 34.4824 213.662C34.668 213.988 34.9593 214.15 35.3564 214.15C35.7373 214.15 36.0189 214.001 36.2012 213.701C36.3835 213.398 36.4795 212.926 36.4893 212.285V210.679ZM44.3652 214.077C44.1081 214.412 43.7516 214.666 43.2959 214.839C42.8402 215.011 42.3226 215.098 41.7432 215.098C41.1475 215.098 40.6201 214.963 40.1611 214.692C39.7021 214.422 39.3473 214.036 39.0967 213.535C38.8493 213.031 38.7207 212.443 38.7109 211.772V211.216C38.7109 210.142 38.9681 209.303 39.4824 208.701C39.9967 208.096 40.7145 207.793 41.6357 207.793C42.4268 207.793 43.055 207.988 43.5205 208.379C43.986 208.77 44.266 209.333 44.3604 210.068H43.1494C43.0127 209.212 42.5163 208.784 41.6602 208.784C41.1068 208.784 40.6852 208.984 40.3955 209.385C40.109 209.782 39.9609 210.366 39.9512 211.138V211.685C39.9512 212.453 40.1123 213.05 40.4346 213.477C40.7601 213.9 41.2109 214.111 41.7871 214.111C42.4186 214.111 42.8678 213.968 43.1348 213.682V212.29H41.6699V211.353H44.3652V214.077Z" fill="black"/>
<path d="M47.5039 58.0781C46.9023 58.0781 46.4141 57.8893 46.0391 57.5117C45.6667 57.1315 45.4805 56.6263 45.4805 55.9961V55.8789C45.4805 55.457 45.5612 55.0807 45.7227 54.75C45.8867 54.4167 46.1159 54.1576 46.4102 53.9727C46.7044 53.7878 47.0326 53.6953 47.3945 53.6953C47.9701 53.6953 48.4141 53.8789 48.7266 54.2461C49.0417 54.6133 49.1992 55.1328 49.1992 55.8047V56.1875H46.4375C46.4661 56.5365 46.582 56.8125 46.7852 57.0156C46.9909 57.2188 47.2487 57.3203 47.5586 57.3203C47.9935 57.3203 48.3477 57.1445 48.6211 56.793L49.1328 57.2812C48.9635 57.5339 48.737 57.7305 48.4531 57.8711C48.1719 58.0091 47.8555 58.0781 47.5039 58.0781ZM47.3906 54.457C47.1302 54.457 46.9193 54.5482 46.7578 54.7305C46.599 54.9128 46.4974 55.1667 46.4531 55.4922H48.2617V55.4219C48.2409 55.1042 48.1562 54.8646 48.0078 54.7031C47.8594 54.5391 47.6536 54.457 47.3906 54.457ZM49.7617 55.8516C49.7617 55.1901 49.9128 54.6654 50.2148 54.2773C50.5169 53.8893 50.9258 53.6953 51.4414 53.6953C51.9128 53.6953 52.2865 53.8607 52.5625 54.1914L52.6172 53.7734H53.4609V59.625H52.5117V57.6406C52.2357 57.9323 51.8763 58.0781 51.4336 58.0781C50.9284 58.0781 50.5234 57.8815 50.2188 57.4883C49.9141 57.0924 49.7617 56.5469 49.7617 55.8516ZM50.7109 55.9336C50.7109 56.3659 50.7956 56.7057 50.9648 56.9531C51.1367 57.1979 51.3737 57.3203 51.6758 57.3203C52.0508 57.3203 52.3294 57.1602 52.5117 56.8398V54.918C52.3294 54.6107 52.0534 54.457 51.6836 54.457C51.3815 54.457 51.1432 54.5781 50.9688 54.8203C50.7969 55.0625 50.7109 55.4336 50.7109 55.9336Z" fill="black"/>
<path d="M47.5039 138.078C46.9023 138.078 46.4141 137.889 46.0391 137.512C45.6667 137.132 45.4805 136.626 45.4805 135.996V135.879C45.4805 135.457 45.5612 135.081 45.7227 134.75C45.8867 134.417 46.1159 134.158 46.4102 133.973C46.7044 133.788 47.0326 133.695 47.3945 133.695C47.9701 133.695 48.4141 133.879 48.7266 134.246C49.0417 134.613 49.1992 135.133 49.1992 135.805V136.188H46.4375C46.4661 136.536 46.582 136.812 46.7852 137.016C46.9909 137.219 47.2487 137.32 47.5586 137.32C47.9935 137.32 48.3477 137.145 48.6211 136.793L49.1328 137.281C48.9635 137.534 48.737 137.73 48.4531 137.871C48.1719 138.009 47.8555 138.078 47.5039 138.078ZM47.3906 134.457C47.1302 134.457 46.9193 134.548 46.7578 134.73C46.599 134.913 46.4974 135.167 46.4531 135.492H48.2617V135.422C48.2409 135.104 48.1562 134.865 48.0078 134.703C47.8594 134.539 47.6536 134.457 47.3906 134.457ZM49.7617 135.852C49.7617 135.19 49.9128 134.665 50.2148 134.277C50.5169 133.889 50.9258 133.695 51.4414 133.695C51.9128 133.695 52.2865 133.861 52.5625 134.191L52.6172 133.773H53.4609V139.625H52.5117V137.641C52.2357 137.932 51.8763 138.078 51.4336 138.078C50.9284 138.078 50.5234 137.882 50.2188 137.488C49.9141 137.092 49.7617 136.547 49.7617 135.852ZM50.7109 135.934C50.7109 136.366 50.7956 136.706 50.9648 136.953C51.1367 137.198 51.3737 137.32 51.6758 137.32C52.0508 137.32 52.3294 137.16 52.5117 136.84V134.918C52.3294 134.611 52.0534 134.457 51.6836 134.457C51.3815 134.457 51.1432 134.578 50.9688 134.82C50.7969 135.062 50.7109 135.434 50.7109 135.934Z" fill="black"/>
<path d="M47.5039 218.078C46.9023 218.078 46.4141 217.889 46.0391 217.512C45.6667 217.132 45.4805 216.626 45.4805 215.996V215.879C45.4805 215.457 45.5612 215.081 45.7227 214.75C45.8867 214.417 46.1159 214.158 46.4102 213.973C46.7044 213.788 47.0326 213.695 47.3945 213.695C47.9701 213.695 48.4141 213.879 48.7266 214.246C49.0417 214.613 49.1992 215.133 49.1992 215.805V216.188H46.4375C46.4661 216.536 46.582 216.812 46.7852 217.016C46.9909 217.219 47.2487 217.32 47.5586 217.32C47.9935 217.32 48.3477 217.145 48.6211 216.793L49.1328 217.281C48.9635 217.534 48.737 217.73 48.4531 217.871C48.1719 218.009 47.8555 218.078 47.5039 218.078ZM47.3906 214.457C47.1302 214.457 46.9193 214.548 46.7578 214.73C46.599 214.913 46.4974 215.167 46.4531 215.492H48.2617V215.422C48.2409 215.104 48.1562 214.865 48.0078 214.703C47.8594 214.539 47.6536 214.457 47.3906 214.457ZM49.7617 215.852C49.7617 215.19 49.9128 214.665 50.2148 214.277C50.5169 213.889 50.9258 213.695 51.4414 213.695C51.9128 213.695 52.2865 213.861 52.5625 214.191L52.6172 213.773H53.4609V219.625H52.5117V217.641C52.2357 217.932 51.8763 218.078 51.4336 218.078C50.9284 218.078 50.5234 217.882 50.2188 217.488C49.9141 217.092 49.7617 216.547 49.7617 215.852ZM50.7109 215.934C50.7109 216.366 50.7956 216.706 50.9648 216.953C51.1367 217.198 51.3737 217.32 51.6758 217.32C52.0508 217.32 52.3294 217.16 52.5117 216.84V214.918C52.3294 214.611 52.0534 214.457 51.6836 214.457C51.3815 214.457 51.1432 214.578 50.9688 214.82C50.7969 215.062 50.7109 215.434 50.7109 215.934Z" fill="black"/>
<path d="M43 222L56 222" stroke="black" stroke-miterlimit="10"/>
<path d="M43 142L56 142" stroke="black" stroke-miterlimit="10"/>
<path d="M43 62L56 62" stroke="black" stroke-miterlimit="10"/>
</svg>
